<svg version="1.1" viewBox="0.1 10.0 352.7 300.0" xmlns="http://www.w3.org/2000/svg">
<path fill="#C9A84C" fill-rule="evenodd" d="M175.427 18.805 C 184.024 21.169,189.911 26.735,189.311 31.932 C 189.151 33.326,189.226 33.528,190.373 34.758 C 193.273 37.867,194.119 42.617,192.377 46.004 C 191.543 47.626,190.949 47.818,190.792 46.516 C 190.740 46.083,190.542 45.417,190.352 45.037 L 190.007 44.346 188.494 45.171 C 183.593 47.842,182.726 53.388,185.509 64.280 C 186.944 69.896,187.200 81.186,186.033 87.388 C 183.261 102.125,179.966 110.486,172.437 121.888 C 171.018 124.036,168.154 129.220,166.073 133.408 C 163.991 137.597,161.363 142.407,160.232 144.098 C 159.102 145.789,158.236 147.269,158.308 147.386 C 158.381 147.504,168.230 147.485,180.196 147.344 C 223.199 146.839,285.563 146.953,319.447 147.599 C 323.922 147.685,331.459 147.756,336.197 147.758 C 344.333 147.762,344.779 147.793,344.252 148.321 C 343.728 148.845,337.996 148.886,250.216 148.991 L 156.739 149.103 155.206 151.006 L 153.672 152.910 155.795 157.089 C 158.777 162.962,159.359 163.526,162.083 163.185 C 168.125 162.430,170.611 162.930,172.099 165.200 C 172.501 165.813,173.017 166.314,173.247 166.314 C 174.532 166.314,176.948 169.885,177.246 172.225 C 177.506 174.266,177.876 175.102,178.521 175.102 C 179.032 175.102,180.590 175.918,183.014 177.456 C 184.862 178.628,186.645 181.139,187.932 184.378 C 188.429 185.631,188.968 186.910,189.129 187.221 C 189.290 187.532,189.422 187.932,189.422 188.110 C 189.422 188.289,190.751 191.476,192.374 195.194 C 193.998 198.911,195.572 202.537,195.873 203.251 C 197.585 207.314,197.909 207.716,201.465 210.178 C 203.344 211.479,206.786 213.938,209.113 215.642 C 211.440 217.345,214.572 219.609,216.072 220.672 C 221.953 224.840,223.074 226.179,224.522 230.769 C 225.056 232.463,226.179 236.046,227.019 238.731 C 228.859 244.619,230.634 250.134,231.469 252.563 C 233.604 258.767,238.057 272.389,240.993 281.692 C 241.841 284.378,242.681 286.885,242.861 287.264 C 243.041 287.643,243.124 288.229,243.044 288.566 C 242.907 289.149,242.888 289.147,242.657 288.527 C 242.324 287.633,241.976 286.776,241.400 285.435 C 241.131 284.809,240.301 282.685,239.555 280.716 C 238.810 278.747,238.062 276.797,237.893 276.383 C 237.725 275.969,237.067 274.212,236.432 272.478 C 235.797 270.743,235.139 269.032,234.969 268.674 C 234.799 268.316,233.726 265.313,232.583 262.002 C 231.441 258.690,230.189 255.102,229.802 254.028 C 228.451 250.286,226.234 243.570,224.267 237.266 C 223.178 233.775,222.034 230.114,221.726 229.129 C 220.940 226.624,218.466 224.279,211.866 219.788 C 208.920 217.783,204.910 215.037,202.955 213.686 C 198.838 210.841,198.908 210.840,199.780 213.734 C 200.147 214.952,200.974 218.108,201.618 220.748 C 202.261 223.388,203.079 226.537,203.435 227.746 C 203.790 228.954,204.242 230.529,204.438 231.245 C 204.955 233.137,205.357 233.946,206.866 236.127 C 208.392 238.333,208.558 238.777,209.981 244.426 C 212.587 254.776,210.689 251.886,207.192 240.178 C 206.855 239.051,206.060 237.639,205.080 236.428 C 203.034 233.899,200.677 227.600,198.271 218.226 C 197.904 216.794,197.358 214.670,197.059 213.507 C 196.451 211.143,194.977 207.069,193.788 204.466 C 193.356 203.522,193.002 202.684,193.002 202.604 C 193.002 202.525,192.651 201.687,192.220 200.742 C 191.790 199.797,190.961 197.779,190.377 196.257 C 189.793 194.736,189.072 193.051,188.774 192.514 C 188.476 191.977,187.816 190.439,187.307 189.097 C 185.318 183.847,184.710 183.301,182.515 184.790 C 181.750 185.310,180.317 186.159,179.333 186.677 C 177.737 187.516,175.228 189.103,170.579 192.215 C 169.042 193.244,167.103 194.292,165.663 194.872 C 165.216 195.052,164.421 195.373,163.897 195.585 C 163.372 195.797,162.201 196.123,161.293 196.309 C 159.213 196.736,157.718 197.092,156.062 197.553 C 153.402 198.293,149.033 198.771,147.517 198.488 C 145.091 198.035,145.181 197.927,148.576 197.228 C 150.237 196.886,154.193 195.817,159.642 194.239 C 160.358 194.031,161.090 193.763,161.269 193.642 C 161.633 193.396,162.214 193.223,165.500 192.379 C 167.887 191.766,169.628 190.928,173.149 188.699 C 174.312 187.962,176.936 186.390,178.978 185.207 C 184.353 182.093,184.364 181.910,179.410 178.178 C 177.378 176.647,176.494 175.762,176.313 175.080 C 175.959 173.746,175.266 173.891,174.651 175.427 C 173.960 177.156,173.542 177.070,173.286 175.143 C 172.979 172.827,172.761 172.610,171.604 173.465 L 170.632 174.183 168.229 172.920 C 165.388 171.426,163.642 170.871,161.790 170.871 C 161.014 170.871,159.778 170.541,158.899 170.101 C 155.055 168.174,153.455 168.224,148.963 170.410 C 146.427 171.644,145.212 171.785,143.991 170.985 C 142.877 170.255,142.540 170.683,142.320 173.111 C 142.115 175.365,141.881 175.578,141.318 174.021 C 140.500 171.758,141.087 169.410,142.985 167.355 C 145.074 165.093,139.387 166.194,136.753 168.562 C 135.623 169.577,133.725 170.376,133.032 170.127 C 132.096 169.791,131.489 170.546,131.489 172.045 C 131.489 173.876,130.627 173.950,130.017 172.172 C 129.372 170.291,126.593 170.644,122.050 173.187 C 121.081 173.729,117.075 176.437,116.843 176.706 C 116.531 177.068,114.082 178.847,113.451 179.170 C 112.824 179.490,110.810 183.162,108.809 187.632 C 108.248 188.885,107.405 190.767,106.936 191.813 C 104.972 196.193,101.387 203.673,100.671 204.882 C 100.247 205.598,99.100 207.868,98.123 209.927 C 93.369 219.944,89.321 225.224,86.395 225.224 C 85.861 225.224,85.249 225.788,84.193 227.258 C 80.967 231.744,78.092 234.011,75.628 234.011 C 74.247 234.011,73.947 234.163,72.370 235.654 C 67.860 239.919,63.339 238.535,65.117 233.433 C 65.399 232.623,65.360 232.271,64.911 231.585 C 63.755 229.822,64.702 226.694,69.641 215.948 C 70.671 213.706,71.781 211.247,72.505 209.601 C 73.407 207.552,78.896 196.310,84.416 185.206 C 90.409 173.150,90.462 173.008,88.400 174.427 C 86.207 175.935,84.640 177.957,82.535 181.992 C 80.536 185.823,78.970 188.486,76.686 191.936 C 74.215 195.670,74.068 193.723,76.323 187.137 C 78.047 182.099,78.277 181.317,77.896 181.778 C 77.396 182.384,74.128 185.000,70.487 187.709 C 58.844 196.370,56.861 192.158,66.850 179.984 C 67.951 178.641,69.432 176.737,70.141 175.753 C 70.849 174.768,71.545 173.913,71.687 173.851 C 71.829 173.790,72.522 172.890,73.227 171.852 C 73.932 170.813,74.698 169.764,74.928 169.521 C 75.633 168.774,83.067 158.704,84.862 156.062 C 85.592 154.988,87.215 152.970,88.467 151.577 C 91.618 148.075,94.386 141.019,94.386 136.491 C 94.386 134.468,95.749 128.559,96.742 126.282 C 97.093 125.476,97.507 124.524,97.663 124.166 C 97.819 123.808,98.404 121.977,98.962 120.098 C 99.520 118.218,100.267 115.728,100.622 114.565 C 100.976 113.401,101.848 110.106,102.559 107.242 C 106.617 90.893,108.220 85.981,111.959 78.438 C 115.375 71.546,118.776 66.752,123.994 61.469 C 136.273 49.037,137.282 47.651,140.783 38.405 C 141.631 36.168,142.832 33.312,143.453 32.059 C 144.438 30.072,145.122 29.075,147.436 26.256 C 148.163 25.370,151.643 22.642,153.133 21.790 C 156.562 19.829,157.250 19.539,160.456 18.700 C 163.126 18.000,172.748 18.068,175.427 18.805 M161.758 20.175 C 158.234 21.027,157.986 21.118,154.760 22.741 C 148.920 25.678,145.067 30.699,142.240 39.056 C 139.689 46.601,136.934 50.453,126.300 61.351 C 120.046 67.760,116.513 72.612,113.355 79.128 C 110.887 84.220,110.884 85.601,113.344 84.189 C 114.599 83.469,114.985 83.502,114.495 84.287 C 114.048 85.003,112.921 85.524,111.514 85.666 C 110.508 85.768,109.853 86.997,108.868 90.634 C 108.624 91.534,108.106 93.149,107.716 94.223 C 106.951 96.335,106.504 97.990,105.609 102.034 C 105.058 104.522,104.466 106.887,103.774 109.357 C 103.037 111.990,102.349 115.428,102.733 114.565 C 102.852 114.296,103.269 113.637,103.660 113.100 C 104.051 112.563,105.077 110.732,105.940 109.032 C 106.803 107.331,107.825 105.427,108.212 104.801 C 108.598 104.174,109.770 101.977,110.816 99.919 C 113.852 93.944,115.491 91.255,119.740 85.273 C 124.814 78.127,131.877 70.580,132.709 71.413 C 132.833 71.537,132.793 71.740,132.619 71.865 C 132.445 71.989,131.205 73.336,129.863 74.858 C 128.521 76.379,127.230 77.827,126.995 78.075 C 124.148 81.066,118.209 89.401,117.407 91.529 C 116.480 93.988,120.216 96.692,122.703 95.361 C 123.577 94.894,123.785 95.490,122.997 96.203 C 120.974 98.033,116.843 96.523,116.843 93.953 C 116.843 92.098,116.019 92.935,114.058 96.780 C 113.223 98.417,112.430 99.902,112.294 100.081 C 111.691 100.878,110.334 103.563,110.334 103.959 C 110.334 104.199,110.117 104.575,109.853 104.794 C 109.401 105.169,108.100 107.712,106.702 110.952 C 104.607 115.806,109.700 116.698,114.820 112.374 C 115.831 111.520,116.938 110.602,117.279 110.334 C 117.621 110.065,118.258 109.500,118.694 109.079 C 120.203 107.618,119.811 108.653,118.087 110.681 C 113.173 116.461,107.685 118.359,105.686 114.971 L 105.008 113.822 104.242 114.763 C 101.807 117.754,98.447 126.081,99.535 126.426 C 100.614 126.768,107.508 122.895,108.001 121.669 C 108.061 121.521,108.317 121.400,108.571 121.400 C 108.824 121.400,109.032 121.253,109.032 121.074 C 109.032 120.895,109.279 120.749,109.581 120.749 C 110.836 120.749,105.080 125.514,101.890 127.117 C 100.397 127.866,99.977 127.951,99.201 127.658 C 97.986 127.199,97.783 127.580,96.364 132.991 C 95.185 137.489,97.031 138.075,102.750 135.020 C 104.746 133.954,109.164 131.090,109.683 130.527 C 109.772 130.429,110.578 129.766,111.473 129.053 C 112.368 128.340,113.384 127.497,113.731 127.181 C 115.462 125.606,114.769 126.880,112.937 128.641 C 108.747 132.670,104.983 135.454,101.037 137.443 C 95.116 140.427,101.892 141.024,108.055 138.061 C 111.905 136.210,117.589 132.360,121.074 129.241 L 122.213 128.222 121.413 127.659 C 120.973 127.349,120.160 126.656,119.605 126.119 C 119.051 125.582,118.132 124.741,117.565 124.251 C 116.324 123.180,115.966 121.987,116.470 120.595 C 117.034 119.034,116.948 118.145,116.232 118.145 C 115.225 118.145,114.738 117.197,114.853 115.460 C 114.917 114.489,115.865 114.791,115.877 115.785 C 115.898 117.635,116.746 118.134,117.826 116.934 C 119.031 115.595,119.302 116.023,118.410 117.856 C 116.670 121.434,117.524 123.883,120.416 123.605 C 122.760 123.380,125.740 120.924,131.090 114.807 C 131.676 114.137,132.335 113.600,132.555 113.614 C 132.861 113.634,132.859 113.678,132.547 113.804 C 132.323 113.894,132.140 114.106,132.140 114.276 C 132.140 115.615,125.154 122.977,122.594 124.335 C 118.838 126.327,124.057 128.023,128.072 126.115 C 129.831 125.279,134.447 120.661,137.179 117.004 C 138.194 115.645,139.180 114.446,139.870 113.731 C 140.094 113.499,140.277 113.128,140.277 112.906 C 140.277 112.685,140.369 112.596,140.482 112.709 C 141.072 113.299,135.947 120.583,132.372 124.235 C 130.042 126.616,130.277 126.997,133.500 126.064 C 135.918 125.363,139.547 122.160,142.799 117.856 C 143.828 116.493,144.744 115.305,144.834 115.216 C 144.924 115.126,145.188 114.687,145.422 114.239 C 146.029 113.079,147.096 111.837,147.306 112.047 C 147.730 112.471,144.542 117.432,141.297 121.400 C 138.579 124.723,138.715 125.052,142.139 123.448 C 145.121 122.051,152.234 113.681,153.393 110.204 C 153.447 110.043,153.672 109.971,153.893 110.045 C 154.758 110.333,150.293 117.833,147.148 121.376 C 145.998 122.672,146.840 122.828,149.093 121.737 C 152.118 120.271,152.431 119.934,158.849 111.238 C 160.001 109.677,160.988 108.598,161.042 108.841 C 161.170 109.419,158.588 113.781,156.360 116.751 C 153.964 119.944,153.966 120.462,156.368 118.809 C 158.513 117.333,160.494 114.939,164.234 109.305 C 166.115 106.469,167.785 104.150,167.945 104.150 C 168.451 104.150,166.404 108.240,164.141 111.751 C 162.204 114.756,162.500 115.068,165.029 112.689 C 168.230 109.676,172.246 103.838,174.261 99.268 C 175.281 96.954,176.079 95.132,177.006 93.002 C 177.913 90.918,179.229 86.942,179.619 85.110 C 179.809 84.215,180.120 82.780,180.308 81.922 C 180.779 79.783,180.761 74.141,180.279 72.657 C 179.134 69.131,178.752 68.401,177.225 66.830 C 175.153 64.701,173.135 64.053,168.267 63.954 C 163.511 63.857,163.484 63.545,168.168 62.802 C 177.187 61.370,183.371 68.525,182.387 79.251 C 182.107 82.305,180.215 90.273,179.609 90.952 C 179.457 91.122,179.333 91.448,179.333 91.676 C 179.333 91.904,178.893 93.050,178.356 94.223 C 177.819 95.395,177.380 96.434,177.380 96.530 C 177.380 96.627,177.014 97.506,176.566 98.485 C 176.119 99.463,175.753 100.320,175.753 100.389 C 175.753 100.459,174.977 101.884,174.030 103.557 C 170.778 109.299,167.608 113.050,163.183 116.393 C 159.226 119.381,158.816 119.749,151.993 126.426 C 148.861 129.492,145.662 132.508,144.885 133.128 C 144.108 133.748,143.083 134.590,142.607 135.000 C 139.995 137.245,135.350 140.999,131.354 144.093 C 126.527 147.830,126.343 148.061,124.032 153.305 C 123.601 154.284,122.832 156.004,122.324 157.128 C 121.815 158.251,121.400 159.241,121.400 159.329 C 121.400 159.416,120.869 160.590,120.220 161.938 C 118.759 164.976,118.964 165.273,120.979 163.035 C 122.519 161.323,127.358 156.557,130.838 153.324 C 132.124 152.130,132.818 151.705,133.300 151.818 C 133.815 151.939,134.268 151.588,135.230 150.326 C 135.922 149.419,136.848 148.441,137.288 148.153 C 137.727 147.865,138.277 147.183,138.508 146.638 C 139.074 145.308,140.603 143.285,140.598 143.875 C 140.596 144.133,140.384 145.136,140.126 146.103 C 139.738 147.564,139.731 147.965,140.087 148.474 C 140.478 149.031,140.534 148.967,140.729 147.748 C 141.102 145.416,141.758 146.341,141.625 149.013 C 141.548 150.568,141.629 151.343,141.869 151.343 C 142.067 151.343,142.229 151.196,142.229 151.017 C 142.229 150.838,142.386 150.692,142.578 150.692 C 142.770 150.692,142.880 151.082,142.822 151.558 C 142.664 152.869,143.410 152.836,144.041 151.505 C 144.910 149.675,145.469 150.581,144.696 152.567 C 143.161 156.514,143.781 156.867,146.690 153.702 C 148.279 151.973,148.712 151.650,148.724 152.187 C 148.732 152.562,148.446 153.134,148.088 153.458 C 146.978 154.463,147.205 155.385,148.409 154.762 C 149.758 154.064,151.668 152.340,151.668 151.819 C 151.668 151.581,151.979 151.288,152.359 151.167 C 153.944 150.664,157.998 145.076,161.676 138.324 C 164.105 133.863,166.496 129.147,167.615 126.607 C 168.285 125.085,169.878 122.330,171.154 120.484 C 172.430 118.637,173.474 117.049,173.474 116.954 C 173.474 116.859,173.747 116.392,174.080 115.917 C 176.689 112.192,180.669 102.733,182.521 95.850 C 185.325 85.435,185.832 73.499,183.853 64.501 C 182.237 57.156,182.033 52.155,183.255 49.807 C 183.398 49.533,183.758 48.649,184.055 47.844 C 184.352 47.038,184.795 46.156,185.039 45.884 C 185.602 45.256,185.350 44.913,183.730 44.101 C 183.017 43.743,181.633 42.973,180.655 42.391 C 178.698 41.224,178.261 41.239,176.335 42.542 C 175.220 43.296,174.301 44.397,169.687 50.512 L 168.016 52.728 167.798 51.275 C 167.551 49.629,167.742 49.145,169.646 46.589 C 170.816 45.018,170.903 44.770,170.535 44.081 C 170.034 43.146,170.513 42.277,172.326 40.826 C 172.983 40.300,173.952 39.525,174.479 39.105 C 175.868 37.995,176.819 38.411,175.692 39.635 C 173.596 41.911,173.281 43.010,175.020 41.973 C 175.692 41.573,176.753 40.955,177.379 40.600 C 178.005 40.244,178.867 39.678,179.294 39.342 C 180.328 38.529,181.286 38.545,181.286 39.375 C 181.286 40.094,181.654 40.213,184.834 40.524 C 187.291 40.764,189.445 41.695,190.533 42.987 C 192.255 45.034,192.576 41.081,190.947 37.880 C 189.205 34.458,188.563 34.316,186.173 36.823 C 184.156 38.940,182.655 39.163,181.947 37.454 C 181.465 36.289,182.379 34.262,183.789 33.369 C 184.292 33.051,184.950 32.481,185.252 32.102 C 185.736 31.494,185.919 31.457,186.797 31.788 C 189.270 32.722,187.786 27.938,184.728 25.119 C 180.058 20.814,168.977 18.429,161.758 20.175 M171.544 27.191 C 173.305 27.692,173.553 27.784,175.797 28.769 C 177.392 29.468,179.007 31.026,179.007 31.864 C 179.007 32.859,178.479 32.710,176.815 31.245 C 175.364 29.968,173.902 29.378,174.764 30.417 C 175.517 31.324,174.752 31.635,173.889 30.772 C 173.224 30.107,172.763 29.950,171.559 29.980 L 170.057 30.018 171.277 30.255 C 173.921 30.768,175.019 33.690,173.157 35.257 C 170.345 37.622,166.966 35.686,168.096 32.357 C 168.762 30.396,168.330 29.816,167.151 31.088 C 165.162 33.234,167.708 37.103,171.109 37.103 C 172.766 37.103,175.102 35.661,175.102 34.639 C 175.102 34.383,175.248 34.174,175.427 34.174 C 176.155 34.174,175.682 35.629,174.633 36.618 C 171.945 39.153,167.932 38.275,166.186 34.772 C 165.066 32.524,165.842 29.943,167.638 29.943 C 167.946 29.943,168.282 29.723,168.385 29.455 C 168.488 29.186,168.805 28.967,169.090 28.967 C 169.374 28.967,169.517 28.820,169.406 28.641 C 168.992 27.971,165.993 28.329,162.594 29.455 C 157.839 31.029,156.446 30.896,159.912 29.200 C 164.723 26.844,168.207 26.242,171.544 27.191 M170.118 31.455 C 169.639 31.934,169.891 32.921,170.464 32.810 C 170.777 32.750,171.033 32.422,171.033 32.081 C 171.033 31.434,170.502 31.071,170.118 31.455 M185.483 33.359 C 182.787 35.920,182.349 36.792,183.634 37.039 C 184.223 37.153,187.144 34.663,187.144 34.048 C 187.144 33.358,185.989 32.878,185.483 33.359 M154.922 37.998 C 154.922 38.261,151.568 39.707,150.959 39.707 C 150.756 39.707,150.856 39.414,151.180 39.056 C 151.504 38.698,152.030 38.405,152.350 38.405 C 152.670 38.405,153.022 38.259,153.133 38.080 C 153.365 37.704,154.923 37.633,154.922 37.998 M154.272 40.966 C 154.272 41.242,151.228 42.636,150.625 42.636 C 150.151 42.636,151.352 41.542,152.292 41.117 C 153.313 40.655,154.272 40.582,154.272 40.966 M182.434 42.083 C 182.787 42.316,183.735 42.789,184.540 43.135 C 185.346 43.481,186.198 43.949,186.434 44.176 C 186.896 44.618,187.700 44.348,188.387 43.521 C 188.684 43.163,188.611 42.994,188.035 42.716 C 185.836 41.655,180.946 41.102,182.434 42.083 M154.434 43.613 C 154.111 43.971,153.708 44.264,153.539 44.264 C 153.371 44.264,152.799 44.573,152.269 44.950 C 151.003 45.851,150.759 45.568,151.935 44.562 C 153.789 42.974,155.653 42.266,154.434 43.613 M155.055 47.334 C 153.711 48.545,153.295 48.731,153.295 48.122 C 153.295 47.532,155.699 45.584,156.032 45.905 C 156.205 46.072,155.803 46.661,155.055 47.334 M157.240 48.931 C 156.518 49.653,156.225 49.797,156.225 49.428 C 156.225 48.739,157.954 47.010,158.126 47.527 C 158.197 47.741,157.799 48.373,157.240 48.931 M161.758 49.146 C 161.758 49.325,161.611 49.471,161.432 49.471 C 161.253 49.471,161.107 49.668,161.107 49.909 C 161.107 50.150,160.814 50.612,160.456 50.936 C 159.487 51.812,159.558 50.688,160.537 49.642 C 161.325 48.801,161.758 48.625,161.758 49.146 M175.107 58.447 C 175.516 60.415,175.394 60.859,174.621 60.218 C 174.075 59.764,173.905 56.631,174.428 56.631 C 174.594 56.631,174.900 57.449,175.107 58.447 M178.195 59.805 C 178.513 60.655,178.912 61.527,179.081 61.743 C 179.452 62.216,179.098 62.910,178.632 62.622 C 178.188 62.347,177.055 59.662,177.055 58.883 C 177.055 57.775,177.602 58.218,178.195 59.805 M162.990 59.678 C 165.544 60.542,166.874 61.330,166.338 61.661 C 166.146 61.780,165.837 61.784,165.652 61.669 C 163.366 60.256,156.116 59.725,152.311 60.691 C 149.761 61.339,146.518 62.399,145.697 62.853 C 144.892 63.298,144.628 62.974,145.271 62.331 C 148.256 59.346,157.789 57.919,162.990 59.678 M181.346 61.425 C 182.227 63.686,182.256 65.044,181.398 63.819 C 181.037 63.303,179.658 59.517,179.658 59.040 C 179.658 58.282,180.690 59.739,181.346 61.425 M146.725 71.301 C 147.751 72.944,150.290 73.365,152.385 72.239 C 153.307 71.745,153.372 72.472,152.470 73.182 C 150.253 74.925,145.810 73.530,145.810 71.090 C 145.810 70.421,146.238 70.520,146.725 71.301 M120.128 75.095 C 119.846 75.579,119.790 75.506,119.782 74.640 C 119.767 73.075,120.233 72.132,120.362 73.467 C 120.418 74.045,120.312 74.778,120.128 75.095 M143.169 80.716 C 145.199 82.850,147.857 82.536,150.633 79.833 C 150.870 79.603,151.236 79.426,151.447 79.440 C 151.717 79.458,151.710 79.514,151.424 79.630 C 151.200 79.720,151.017 79.932,151.017 80.101 C 151.017 80.781,148.878 82.699,147.739 83.040 C 144.884 83.895,141.579 82.223,141.579 79.924 C 141.579 79.169,141.804 79.281,143.169 80.716 M133.211 80.740 C 133.942 81.426,134.451 81.441,137.266 80.860 C 138.647 80.575,138.663 81.175,137.293 81.884 C 135.529 82.795,132.924 82.181,132.111 80.661 C 131.669 79.837,132.297 79.881,133.211 80.740 M125.666 87.617 C 126.182 88.581,128.005 89.217,129.617 88.997 L 131.001 88.807 130.232 89.481 C 128.418 91.071,124.329 89.189,124.329 86.764 C 124.329 86.375,125.350 87.027,125.666 87.617 M145.810 86.841 C 145.810 89.335,139.818 91.773,136.782 90.515 C 135.359 89.926,134.087 87.225,135.232 87.225 C 135.500 87.225,135.720 87.365,135.720 87.536 C 135.720 90.527,143.796 89.920,145.104 86.831 C 145.248 86.492,145.810 86.500,145.810 86.841 M160.986 91.616 C 162.368 92.193,163.002 92.062,164.363 90.917 C 165.718 89.777,165.587 90.534,164.188 91.934 C 162.314 93.808,159.442 93.398,158.499 91.121 C 157.868 89.597,158.376 88.797,159.158 90.083 C 159.503 90.650,160.325 91.340,160.986 91.616 M169.120 90.877 C 169.261 92.588,171.032 94.386,172.579 94.386 C 173.945 94.386,173.539 95.176,172.111 95.298 C 169.676 95.506,166.258 90.159,168.348 89.413 C 168.930 89.205,168.993 89.323,169.120 90.877 M110.055 92.739 C 110.739 93.155,111.409 93.308,112.016 93.187 C 112.983 92.993,113.207 93.335,112.547 93.995 C 111.828 94.714,110.115 94.462,109.381 93.528 C 108.221 92.054,108.463 91.771,110.055 92.739 M151.592 93.816 C 152.453 94.625,154.958 94.806,155.654 94.110 C 156.118 93.646,156.550 93.625,156.550 94.065 C 156.550 95.814,152.066 96.085,150.783 94.414 C 149.819 93.158,150.419 92.715,151.592 93.816 M138.975 93.988 C 138.975 94.439,134.938 98.207,133.898 98.728 C 133.343 99.006,131.955 100.201,130.813 101.384 C 126.675 105.670,120.379 108.527,118.466 106.987 C 116.875 105.707,116.375 103.372,117.478 102.374 C 118.098 101.813,118.112 101.830,118.062 103.092 C 117.945 106.024,119.533 106.734,123.032 105.312 C 125.371 104.362,131.579 100.132,131.121 99.801 C 131.055 99.753,130.380 99.518,129.622 99.278 C 127.769 98.691,125.773 95.798,126.457 94.691 C 126.746 94.223,127.514 94.717,127.710 95.497 C 128.604 99.059,133.313 98.614,137.347 94.586 C 138.145 93.791,138.975 93.485,138.975 93.988 M144.597 96.013 C 145.118 96.423,145.917 96.664,146.756 96.664 C 148.229 96.664,148.616 97.285,147.193 97.366 C 144.984 97.490,144.152 97.173,143.502 95.958 C 143.083 95.175,143.561 95.199,144.597 96.013 M164.036 95.990 C 164.036 97.483,168.046 99.438,168.755 98.291 C 168.999 97.897,170.220 97.855,170.220 98.241 C 170.220 99.464,166.832 100.333,165.490 99.454 C 164.055 98.513,162.720 95.688,163.710 95.688 C 163.889 95.688,164.036 95.824,164.036 95.990 M160.025 101.871 C 160.551 101.871,161.260 101.668,161.600 101.419 C 162.386 100.845,163.245 101.093,162.708 101.740 C 160.994 103.805,157.264 103.183,156.800 100.754 C 156.563 99.515,156.845 99.514,158.009 100.749 C 158.750 101.534,159.355 101.871,160.025 101.871 M150.490 103.898 C 151.247 104.516,154.597 104.721,154.597 104.150 C 154.597 103.971,154.890 103.824,155.248 103.824 C 156.374 103.824,155.958 104.486,154.398 105.176 C 151.796 106.327,148.739 105.250,148.739 103.184 C 148.739 102.342,149.154 102.108,149.495 102.757 C 149.663 103.076,150.110 103.589,150.490 103.898 M132.507 104.520 C 133.520 105.604,136.658 105.778,137.819 104.815 C 138.155 104.535,138.326 104.541,138.510 104.839 C 138.660 105.081,138.388 105.527,137.807 105.992 C 135.817 107.585,131.721 106.604,131.133 104.394 C 130.815 103.201,131.318 103.247,132.507 104.520 M142.409 104.231 C 142.890 105.809,145.003 106.818,145.647 105.777 C 145.858 105.436,147.111 105.316,147.111 105.638 C 147.111 106.194,145.921 106.858,144.667 106.999 C 143.088 107.177,141.253 105.863,141.253 104.554 C 141.253 103.345,142.069 103.116,142.409 104.231 M110.985 105.468 C 110.985 106.146,113.161 106.786,114.065 106.374 C 115.195 105.859,115.554 106.342,114.610 107.107 C 113.609 107.919,112.263 107.898,111.191 107.055 C 110.357 106.399,110.006 105.126,110.659 105.126 C 110.838 105.126,110.985 105.280,110.985 105.468 M172.498 112.047 C 172.498 112.274,172.134 113.116,171.688 113.919 C 171.243 114.722,170.638 115.859,170.344 116.447 C 169.744 117.646,168.453 118.601,168.808 117.583 C 170.105 113.862,172.498 110.273,172.498 112.047 M169.243 120.449 C 169.243 120.831,167.587 123.422,167.131 123.754 C 166.120 124.490,166.622 123.058,168.262 120.526 C 168.705 119.841,169.243 119.799,169.243 120.449 M164.222 120.855 C 164.447 121.441,163.932 122.691,163.060 123.678 C 162.665 124.125,162.140 124.776,161.894 125.123 C 161.201 126.101,160.955 125.457,161.435 123.924 C 162.189 121.521,163.798 119.750,164.222 120.855 M154.272 121.141 C 153.824 121.332,152.872 121.743,152.156 122.053 C 151.440 122.364,149.583 123.029,148.030 123.533 C 145.811 124.252,145.115 124.627,144.787 125.283 C 143.663 127.531,139.874 131.093,135.741 133.790 C 134.402 134.663,135.151 135.013,137.440 134.583 C 139.988 134.104,142.943 132.562,145.406 130.425 C 147.360 128.730,154.109 122.222,154.881 121.289 C 155.391 120.672,155.375 120.669,154.272 121.141 M141.139 125.418 C 139.084 126.163,138.068 126.723,137.597 127.371 C 136.832 128.420,132.135 132.283,130.756 132.996 C 129.412 133.691,129.785 134.260,131.504 134.136 C 133.935 133.960,138.515 130.966,142.333 127.055 C 143.796 125.557,144.686 124.195,144.101 124.350 C 144.056 124.362,142.723 124.842,141.139 125.418 M134.255 127.288 C 133.360 127.628,132.262 127.912,131.814 127.919 C 130.749 127.936,129.898 128.434,128.180 130.047 C 127.405 130.776,126.147 131.784,125.386 132.288 C 123.597 133.471,123.643 133.767,125.613 133.767 C 127.131 133.767,127.949 133.459,130.838 131.795 C 131.769 131.258,135.194 128.479,136.303 127.360 C 137.250 126.403,136.639 126.382,134.255 127.288 M125.097 128.203 C 123.645 128.344,122.934 128.583,122.494 129.079 C 122.160 129.455,120.821 130.688,119.518 131.821 C 117.345 133.709,116.766 135.005,118.513 134.070 C 118.824 133.904,119.463 133.767,119.932 133.767 C 120.402 133.767,121.469 133.386,122.303 132.921 C 126.505 130.575,129.505 127.798,127.665 127.958 C 127.352 127.986,126.196 128.096,125.097 128.203 M162.408 128.345 C 162.408 129.048,160.514 132.637,159.804 133.279 C 158.953 134.050,158.969 133.514,159.862 131.387 C 161.006 128.663,162.408 126.988,162.408 128.345 M156.225 128.872 C 156.225 129.520,153.124 134.813,152.571 135.109 C 151.243 135.819,152.042 133.807,154.434 130.414 C 155.673 128.657,156.225 128.182,156.225 128.872 M236.760 134.389 C 237.049 134.857,236.594 135.720,236.057 135.720 C 235.746 135.720,235.641 135.534,235.767 135.205 C 235.875 134.922,235.964 134.556,235.964 134.392 C 235.964 134.006,236.522 134.004,236.760 134.389 M127.258 134.974 C 126.989 135.072,126.394 135.536,125.934 136.006 C 122.820 139.188,113.422 147.393,109.355 150.482 C 109.085 150.687,107.474 151.940,105.775 153.266 C 101.273 156.781,100.703 157.196,97.478 159.313 C 87.442 165.898,85.950 165.004,89.059 154.272 C 89.894 151.389,82.315 162.150,81.236 165.379 C 79.816 169.632,79.417 172.395,80.181 172.688 C 81.167 173.066,85.755 170.526,93.247 165.454 C 99.271 161.375,99.307 161.350,103.824 157.985 C 105.525 156.718,108.015 154.877,109.358 153.895 C 110.701 152.912,112.020 151.897,112.287 151.640 C 112.555 151.383,113.653 150.442,114.727 149.549 C 115.801 148.656,116.753 147.843,116.843 147.744 C 116.932 147.644,117.322 147.346,117.709 147.082 C 118.097 146.818,119.341 145.787,120.476 144.790 C 121.610 143.794,124.223 141.632,126.282 139.986 C 131.305 135.970,131.164 136.093,131.164 135.750 C 131.164 135.521,128.146 134.638,127.811 134.769 C 127.776 134.784,127.526 134.875,127.258 134.974 M116.445 135.405 C 115.599 135.547,114.428 136.006,113.842 136.424 C 109.320 139.653,104.164 141.697,100.963 141.529 L 98.810 141.416 98.426 142.555 C 95.445 151.403,95.790 153.301,100.004 151.227 C 102.878 149.811,119.339 136.010,118.934 135.355 C 118.737 135.036,118.620 135.038,116.445 135.405 M119.750 135.986 C 116.408 139.479,109.562 145.687,106.765 147.762 C 106.162 148.210,104.851 149.211,103.851 149.987 C 95.886 156.173,92.638 151.764,97.712 141.653 C 97.977 141.125,97.983 140.814,97.732 140.563 C 97.299 140.131,94.806 143.149,94.516 144.458 C 94.257 145.627,93.591 147.189,92.277 149.715 C 90.141 153.819,88.168 161.212,88.989 162.033 C 90.132 163.176,106.039 152.652,113.426 145.867 C 114.142 145.209,116.485 143.216,118.633 141.439 C 122.992 137.833,125.305 135.713,125.305 135.327 C 125.305 134.561,120.578 135.122,119.750 135.986 M130.731 137.316 C 129.783 138.139,128.071 139.618,126.927 140.602 C 125.782 141.587,123.594 143.493,122.065 144.838 C 108.001 157.208,84.535 173.458,80.573 173.571 C 78.297 173.635,77.557 169.329,79.469 167.144 C 79.618 166.974,79.740 166.542,79.740 166.184 C 79.740 164.973,73.205 174.608,71.549 178.259 C 70.374 180.852,70.352 181.611,71.450 181.611 C 72.585 181.611,76.018 180.431,77.787 179.433 C 83.673 176.113,83.261 176.374,89.069 172.300 C 91.904 170.311,95.248 168.047,96.501 167.267 C 101.628 164.078,114.917 154.642,122.010 149.156 C 123.912 147.684,128.507 144.179,132.221 141.367 C 135.936 138.554,138.975 136.156,138.975 136.036 C 138.975 135.917,137.507 135.819,135.714 135.819 L 132.454 135.819 130.731 137.316 M95.329 139.282 C 94.796 141.061,95.220 141.336,96.373 139.960 C 97.427 138.703,97.437 138.211,96.413 138.060 C 95.859 137.978,95.649 138.214,95.329 139.282 M139.600 141.866 C 138.998 144.403,138.126 145.306,138.432 143.076 C 138.551 142.202,138.649 141.226,138.649 140.905 C 138.649 140.585,138.899 140.073,139.204 139.768 C 139.999 138.974,140.127 139.649,139.600 141.866 M237.593 143.206 C 237.732 143.295,237.641 143.557,237.393 143.788 C 237.012 144.141,236.947 144.013,236.978 142.975 C 237.000 142.261,237.085 142.015,237.179 142.392 C 237.268 142.750,237.455 143.116,237.593 143.206 M246.914 142.392 C 246.645 142.661,246.342 142.880,246.240 142.880 C 246.137 142.880,246.054 142.661,246.054 142.392 C 246.054 142.115,246.346 141.904,246.728 141.904 C 247.327 141.904,247.348 141.958,246.914 142.392 M138.215 149.281 C 137.436 150.061,138.173 153.051,139.883 156.046 C 140.501 157.129,141.294 158.527,141.644 159.154 C 142.521 160.723,143.114 161.107,144.664 161.107 C 146.166 161.107,149.715 161.954,150.187 162.425 C 151.854 164.089,151.947 162.249,150.363 158.946 C 148.975 156.051,148.762 155.876,147.800 156.838 C 147.399 157.238,146.900 157.396,146.358 157.292 C 145.895 157.204,145.214 157.354,144.818 157.631 C 143.837 158.317,143.207 157.978,143.201 156.759 C 143.195 155.517,142.914 155.036,142.102 154.879 C 141.763 154.814,141.381 154.540,141.253 154.272 C 141.125 154.003,140.780 153.322,140.486 152.757 C 140.192 152.192,139.951 151.491,139.951 151.200 C 139.951 150.095,138.740 148.757,138.215 149.281 M120.903 151.756 C 118.432 153.699,117.015 154.747,110.659 159.327 C 109.138 160.424,105.403 162.984,102.360 165.017 C 93.587 170.876,92.137 172.142,90.666 175.226 C 90.058 176.500,87.190 182.376,84.292 188.283 C 78.587 199.915,77.461 202.279,77.461 202.624 C 77.461 202.930,74.069 210.216,70.878 216.762 C 67.395 223.909,67.082 224.626,66.537 226.718 C 65.743 229.765,66.056 231.270,67.021 229.048 C 67.274 228.466,68.465 225.940,69.669 223.434 C 73.219 216.041,74.207 213.818,74.207 213.222 C 74.207 212.912,74.623 212.081,75.131 211.374 C 75.639 210.668,76.283 209.504,76.563 208.788 C 76.842 208.072,77.872 205.801,78.852 203.743 C 79.832 201.684,81.251 198.682,82.005 197.071 C 83.842 193.150,93.840 173.029,94.055 172.823 C 94.148 172.734,94.432 172.258,94.685 171.766 C 95.142 170.879,95.688 170.569,95.688 171.196 C 95.688 171.375,95.541 171.522,95.362 171.522 C 95.183 171.522,95.037 171.727,95.037 171.979 C 95.037 172.231,94.750 173.000,94.401 173.688 C 93.586 175.291,91.456 179.955,91.456 180.137 C 91.456 180.213,90.124 183.029,88.495 186.395 C 83.435 196.850,80.065 203.990,80.065 204.255 C 80.065 204.323,79.318 205.954,78.405 207.881 C 75.049 214.961,76.452 217.670,82.227 215.257 C 83.733 214.628,86.816 209.373,89.506 202.851 C 90.825 199.651,91.092 199.048,92.859 195.281 C 94.684 191.391,99.419 181.533,100.261 179.872 C 100.610 179.183,100.895 178.485,100.895 178.319 C 100.895 178.154,101.261 177.438,101.709 176.729 C 102.156 176.020,102.522 175.218,102.522 174.945 C 102.522 174.673,102.669 174.451,102.848 174.451 C 103.027 174.451,103.173 174.085,103.173 173.637 C 103.173 173.190,103.303 172.823,103.461 172.823 C 103.619 172.823,103.833 172.500,103.936 172.105 C 104.039 171.710,104.228 171.491,104.354 171.618 C 104.481 171.744,104.433 172.177,104.247 172.580 C 104.061 172.982,103.510 174.190,103.024 175.264 C 102.537 176.338,102.006 177.472,101.842 177.782 C 101.679 178.093,101.546 178.569,101.546 178.840 C 101.546 179.111,101.400 179.333,101.221 179.333 C 101.041 179.333,100.895 179.554,100.895 179.825 C 100.895 180.096,100.761 180.572,100.597 180.883 C 100.433 181.194,100.081 181.961,99.815 182.587 C 99.549 183.214,99.009 184.459,98.616 185.354 C 98.223 186.249,97.775 187.274,97.622 187.632 C 97.468 187.990,96.220 190.773,94.849 193.816 C 93.478 196.859,91.659 200.960,90.807 202.929 C 89.955 204.898,88.654 207.871,87.916 209.535 C 86.381 212.995,86.417 212.856,87.066 212.856 C 89.880 212.856,92.755 208.742,97.644 197.722 C 98.041 196.827,99.448 193.856,100.770 191.120 C 102.092 188.383,103.173 186.091,103.173 186.026 C 103.173 185.904,104.567 182.890,107.172 177.380 C 107.975 175.679,109.386 172.677,110.307 170.708 C 111.228 168.739,112.270 166.565,112.622 165.876 C 112.974 165.188,113.263 164.419,113.263 164.168 C 113.263 163.916,113.393 163.710,113.553 163.710 C 113.713 163.710,113.950 163.308,114.081 162.815 C 114.221 162.291,114.386 162.102,114.480 162.359 C 114.568 162.601,114.457 163.186,114.233 163.661 C 114.010 164.136,113.715 164.817,113.578 165.175 C 113.441 165.533,113.095 166.361,112.808 167.014 C 112.521 167.668,112.286 168.286,112.286 168.388 C 112.286 168.490,111.904 169.420,111.436 170.454 C 110.968 171.489,110.235 173.108,109.808 174.054 C 109.381 174.999,109.032 175.832,109.032 175.906 C 109.032 175.979,108.433 177.330,107.701 178.907 C 106.969 180.484,106.072 182.433,105.706 183.238 C 105.341 184.044,104.533 185.801,103.911 187.144 C 102.360 190.490,101.423 192.547,100.574 194.467 C 100.179 195.362,98.454 198.987,96.741 202.523 C 93.457 209.301,93.336 209.777,95.177 208.639 C 97.612 207.134,98.244 206.094,104.088 193.979 C 107.164 187.601,107.875 186.083,110.334 180.635 C 111.182 178.755,112.316 176.265,112.853 175.102 C 114.720 171.055,117.774 164.185,118.641 162.083 C 119.654 159.625,120.428 157.914,122.501 153.548 C 124.702 148.912,124.627 148.827,120.903 151.756 M136.370 150.610 C 136.370 150.745,135.931 151.367,135.395 151.993 C 134.159 153.437,134.145 153.295,135.900 156.876 C 138.527 162.233,137.553 165.663,133.404 165.663 C 132.575 165.663,131.489 166.935,131.489 167.905 C 131.489 168.541,131.576 168.636,131.880 168.332 C 132.094 168.117,132.763 167.941,133.366 167.941 C 134.011 167.941,134.888 167.624,135.498 167.169 C 137.656 165.560,140.102 164.933,145.051 164.721 C 149.568 164.528,150.296 164.387,149.919 163.777 C 149.667 163.370,146.401 162.499,144.112 162.230 C 142.016 161.983,141.804 161.778,139.395 157.689 C 137.738 154.874,136.927 152.515,137.196 151.289 C 137.352 150.579,137.280 150.366,136.885 150.366 C 136.602 150.366,136.371 150.476,136.370 150.610 M131.166 155.507 C 130.182 156.349,127.912 158.503,126.121 160.293 C 124.330 162.083,121.889 164.387,120.697 165.414 C 118.749 167.091,118.313 167.709,116.394 171.516 C 114.313 175.645,114.141 176.776,115.875 174.930 C 116.738 174.011,121.341 170.810,123.841 169.390 C 125.174 168.632,125.836 168.470,127.505 168.492 C 129.454 168.517,129.550 168.481,129.716 167.660 C 130.161 165.461,131.159 164.605,134.357 163.675 C 135.796 163.257,136.371 162.626,136.371 161.465 C 136.371 160.750,133.433 153.937,133.135 153.961 C 133.035 153.968,132.149 154.664,131.166 155.507 M151.054 154.721 L 150.306 155.517 151.280 157.580 C 153.883 163.092,152.625 166.314,147.870 166.314 C 147.403 166.314,146.858 166.529,146.659 166.791 C 146.460 167.053,145.714 167.456,145.000 167.686 C 143.235 168.255,143.192 168.943,144.878 169.673 C 146.475 170.365,147.329 170.221,149.196 168.946 C 151.929 167.079,154.865 166.963,158.623 168.574 C 159.481 168.942,160.807 169.243,161.568 169.243 C 163.189 169.243,166.528 170.267,168.552 171.386 C 170.158 172.273,171.124 172.372,171.989 171.740 C 173.218 170.841,172.156 170.088,167.551 168.595 C 159.487 165.981,158.498 165.115,154.162 156.876 C 152.557 153.824,152.157 153.547,151.054 154.721 M165.254 164.714 C 164.939 164.898,164.533 164.955,164.351 164.843 C 164.169 164.731,163.547 164.743,162.970 164.871 C 162.051 165.075,162.001 165.136,162.571 165.361 C 163.364 165.673,169.700 165.749,170.000 165.449 C 170.892 164.557,166.651 163.901,165.254 164.714 M169.206 167.666 C 169.956 167.882,170.419 167.872,170.655 167.637 C 170.899 167.392,170.576 167.299,169.552 167.320 L 168.104 167.349 169.206 167.666 M172.041 167.891 C 171.944 168.047,172.293 168.556,172.815 169.022 C 173.405 169.548,173.848 170.336,173.982 171.102 C 174.431 173.662,175.753 174.699,175.753 172.491 C 175.753 170.485,172.743 166.754,172.041 167.891 M69.470 178.450 C 68.933 179.069,63.908 186.287,62.819 188.004 C 59.840 192.702,62.649 191.998,70.627 186.046 C 77.004 181.288,77.214 181.044,73.881 182.262 C 69.732 183.778,68.874 182.973,70.154 178.763 C 70.394 177.976,70.028 177.808,69.470 178.450 M82.994 178.302 C 82.994 178.511,82.849 178.682,82.671 178.682 C 81.565 178.682,79.722 181.597,77.655 186.614 C 76.785 188.725,77.089 189.043,78.162 187.144 C 79.754 184.327,81.176 181.918,82.344 180.062 C 82.937 179.120,83.325 178.253,83.208 178.136 C 83.090 178.019,82.994 178.093,82.994 178.302 M76.159 198.062 C 76.159 198.378,75.100 199.052,73.312 199.874 C 62.305 204.930,61.989 205.161,49.741 217.099 C 40.358 226.243,39.798 226.937,38.074 231.570 C 36.499 235.804,33.676 241.680,32.341 243.504 C 31.295 244.934,29.944 246.030,21.969 251.928 C 19.057 254.081,12.520 259.117,9.927 261.204 C 8.735 262.163,8.052 262.270,9.145 261.326 C 9.575 260.955,10.366 260.259,10.903 259.780 C 11.440 259.301,12.755 258.177,13.825 257.282 C 14.896 256.387,16.234 255.243,16.800 254.740 C 17.366 254.237,20.079 252.074,22.828 249.934 C 25.578 247.793,28.432 245.568,29.171 244.990 C 31.407 243.241,32.989 240.436,35.642 233.523 C 38.858 225.141,38.065 226.226,49.146 215.040 C 61.317 202.754,61.997 202.238,69.976 199.238 C 74.267 197.625,76.159 197.265,76.159 198.062 M95.833 209.586 C 95.663 209.756,94.877 210.237,94.088 210.655 C 93.298 211.072,92.538 211.628,92.399 211.891 C 92.259 212.153,91.336 214.001,90.347 215.996 C 89.358 217.992,88.042 220.482,87.423 221.529 C 85.295 225.127,87.377 224.476,90.262 220.641 C 91.947 218.401,96.664 210.316,96.664 209.667 C 96.664 209.198,96.261 209.158,95.833 209.586 M136.539 216.981 C 135.794 220.640,135.188 223.183,133.897 228.062 C 132.622 232.886,132.627 232.966,134.580 237.592 C 136.727 242.678,137.526 246.616,138.311 255.980 C 139.213 266.733,139.349 266.950,147.792 271.070 C 152.058 273.152,152.290 273.409,153.728 277.624 C 155.704 283.415,157.532 288.146,159.955 293.735 C 161.161 296.516,161.422 297.130,162.102 298.779 C 162.508 299.764,162.963 300.709,163.113 300.879 C 163.451 301.263,163.470 302.035,163.141 302.032 C 163.007 302.030,162.729 301.701,162.525 301.299 C 162.320 300.898,160.839 298.007,159.233 294.874 C 156.647 289.828,152.394 279.901,151.615 277.092 C 151.130 275.340,150.016 274.315,147.129 272.966 C 141.452 270.313,138.088 267.585,137.365 265.046 C 137.001 263.771,136.683 261.500,136.050 255.655 C 135.173 247.566,134.948 246.040,134.225 243.287 C 133.802 241.676,133.160 239.555,132.798 238.573 C 132.436 237.591,132.140 236.391,132.140 235.907 C 132.140 234.239,131.484 234.417,130.127 236.452 C 128.934 238.243,125.337 241.963,125.064 241.689 C 124.806 241.432,124.827 241.399,127.421 238.072 C 130.451 234.185,130.754 233.678,131.505 231.245 C 131.891 229.992,132.334 228.600,132.487 228.153 C 132.641 227.705,133.073 226.115,133.446 224.618 C 133.820 223.121,134.316 221.290,134.550 220.549 C 134.995 219.139,135.295 218.060,136.270 214.364 C 137.081 211.287,137.289 213.305,136.539 216.981 M88.992 213.671 C 88.647 213.936,87.621 214.377,86.713 214.650 C 85.419 215.040,84.947 215.375,84.531 216.198 C 83.954 217.341,80.902 223.045,79.393 225.799 C 78.876 226.742,77.699 228.689,76.778 230.126 C 74.959 232.961,74.925 233.352,76.556 232.687 C 79.595 231.449,83.764 225.946,87.703 217.973 C 89.939 213.449,90.136 212.791,88.992 213.671 M74.868 215.031 C 74.862 215.243,73.832 217.559,72.579 220.179 C 71.326 222.799,70.301 225.002,70.301 225.075 C 70.301 225.148,69.882 226.127,69.370 227.250 C 65.890 234.881,65.587 236.503,67.662 236.404 C 71.151 236.239,75.920 230.333,81.608 219.133 C 82.975 216.441,82.948 216.299,81.192 216.925 C 80.483 217.177,79.280 217.390,78.519 217.398 C 77.119 217.413,76.882 217.261,75.503 215.460 C 75.160 215.012,74.874 214.819,74.868 215.031 M179.723 222.733 C 179.538 223.119,179.299 223.800,179.191 224.247 C 179.083 224.695,178.618 226.452,178.157 228.153 C 177.697 229.854,177.050 232.270,176.719 233.523 C 176.388 234.776,176.019 236.125,175.900 236.520 C 175.737 237.062,176.067 237.785,177.235 239.450 C 179.072 242.066,182.519 247.843,184.270 251.240 C 185.688 253.991,185.758 254.742,184.981 258.798 L 184.441 261.616 188.396 269.577 C 192.525 277.886,192.552 277.950,192.026 277.950 C 191.847 277.950,191.701 277.805,191.701 277.627 C 191.701 277.450,191.067 276.315,190.292 275.105 C 188.762 272.717,185.719 267.557,184.004 264.443 C 182.875 262.395,182.679 261.025,183.234 259.088 C 184.386 255.070,181.786 248.949,175.671 241.292 C 173.212 238.212,173.104 237.765,174.139 234.983 C 175.756 230.640,176.146 229.562,176.411 228.706 C 176.845 227.304,178.804 223.122,179.084 223.000 C 179.221 222.940,179.333 222.635,179.333 222.322 C 179.333 222.008,179.440 221.645,179.570 221.515 C 179.970 221.115,180.080 221.990,179.723 222.733 M107.726 228.586 C 107.170 230.068,106.887 230.767,106.305 232.093 C 106.022 232.739,105.071 235.229,104.191 237.626 C 100.382 248.005,99.880 249.042,98.013 250.380 C 96.483 251.477,89.162 255.910,87.414 256.799 C 84.972 258.041,82.236 261.382,79.079 266.979 C 73.703 276.510,71.613 278.685,59.587 287.256 C 58.230 288.224,56.021 289.815,54.679 290.793 C 51.094 293.406,50.840 293.114,54.311 290.371 C 70.049 277.934,72.110 275.934,75.334 269.976 C 76.011 268.723,76.682 267.551,76.823 267.372 C 76.964 267.193,77.700 265.876,78.457 264.446 C 79.780 261.948,81.696 259.115,82.828 257.983 C 83.478 257.334,83.642 257.338,80.147 257.917 C 77.075 258.426,66.080 259.191,65.804 258.915 C 65.712 258.823,66.164 258.747,66.810 258.747 C 67.456 258.747,68.066 258.616,68.165 258.455 C 68.417 258.046,72.119 257.421,76.159 257.105 C 85.316 256.389,83.942 256.819,90.647 252.569 C 93.335 250.865,95.941 249.260,96.439 249.001 C 97.798 248.296,100.438 243.642,103.002 237.429 C 104.248 234.408,104.877 232.976,106.429 229.618 C 106.925 228.544,107.443 227.372,107.581 227.014 C 107.813 226.408,107.840 226.404,107.972 226.958 C 108.049 227.286,107.939 228.018,107.726 228.586 M192.997 279.007 C 192.993 279.599,192.932 279.646,192.677 279.251 C 192.269 278.620,192.269 278.275,192.677 278.275 C 192.856 278.275,193.000 278.605,192.997 279.007"/>
</svg>