<svg version="1.1" viewBox="55.0 14.5 300.4 368.3" xmlns="http://www.w3.org/2000/svg">
<path fill="#C9A84C" fill-rule="evenodd" d="M275.552 32.810 C 286.347 36.744,294.066 44.032,289.727 46.195 C 288.554 46.779,286.718 48.757,285.647 50.590 C 284.575 52.423,280.913 56.600,277.510 59.873 C 269.807 67.278,269.671 69.472,276.894 69.821 C 279.566 69.950,284.119 70.318,287.012 70.640 L 292.273 71.224 288.501 73.340 C 279.817 78.211,278.327 85.822,282.854 102.190 C 297.760 156.088,281.473 204.499,237.200 237.888 C 232.449 241.472,232.334 241.229,234.560 232.319 C 236.458 224.726,236.327 221.898,234.078 221.898 C 232.013 221.898,231.053 223.887,227.736 235.036 C 224.148 247.098,216.550 268.652,214.412 272.835 C 213.055 275.490,213.202 275.938,218.254 284.513 C 221.144 289.418,224.696 295.509,226.147 298.048 C 229.182 303.358,231.678 304.888,240.734 306.988 C 255.722 310.464,260.936 317.470,255.812 327.251 C 254.701 329.371,251.618 329.583,252.424 327.483 C 254.357 322.446,249.119 316.263,240.511 313.422 C 234.956 311.589,234.696 312.481,239.056 318.421 C 244.123 325.323,244.596 334.409,240.092 338.284 C 236.521 341.355,234.071 341.432,235.014 338.443 C 240.453 321.211,221.064 306.575,206.326 316.788 C 201.789 319.933,200.987 319.616,201.849 315.021 C 202.701 310.480,205.400 308.349,211.958 307.039 C 219.291 305.575,219.339 304.670,212.697 292.939 C 205.958 281.037,206.962 281.510,199.478 286.718 C 193.994 290.534,193.078 290.884,192.097 289.542 C 190.092 286.800,186.707 274.844,185.024 264.559 C 182.862 251.345,179.759 249.677,179.278 261.471 L 178.994 268.440 172.465 272.426 C 168.875 274.619,160.514 280.147,153.885 284.711 C 139.855 294.372,140.667 294.382,142.679 284.580 C 144.802 274.240,144.012 275.239,160.809 261.688 C 226.443 208.743,245.439 187.324,254.538 156.005 C 267.224 112.341,234.995 89.408,196.350 114.602 C 190.111 118.669,188.204 121.538,190.712 123.088 C 191.224 123.404,195.499 121.726,200.213 119.359 C 234.135 102.322,255.244 116.056,247.574 150.173 C 239.106 187.834,200.532 223.604,152.421 238.408 C 139.855 242.275,117.762 246.385,117.762 244.855 C 117.762 244.535,119.477 239.567,121.574 233.815 C 123.670 228.064,129.537 211.728,134.610 197.514 C 154.942 140.553,161.366 129.037,182.482 111.693 C 199.034 98.098,205.406 89.253,211.765 71.046 C 223.849 36.445,247.167 22.468,275.552 32.810 M247.215 44.072 C 239.055 47.378,239.542 51.351,247.787 48.742 C 255.445 46.319,255.890 46.397,255.298 50.047 C 254.136 57.206,263.789 61.360,269.144 56.005 C 270.458 54.691,271.533 52.721,271.533 51.626 C 271.533 50.072,272.160 49.635,274.395 49.635 C 280.569 49.635,278.143 46.103,270.143 43.443 C 263.286 41.164,253.747 41.426,247.215 44.072 M297.528 52.520 C 301.974 55.232,304.626 60.971,304.608 67.844 C 304.590 74.640,303.266 77.584,301.871 73.933 C 300.012 69.071,292.328 65.207,284.517 65.207 C 280.834 65.207,280.303 63.866,283.267 62.052 C 284.368 61.378,286.192 59.294,287.320 57.421 C 291.796 49.991,292.682 49.565,297.528 52.520 M299.997 119.595 C 311.690 130.170,307.595 159.832,291.059 184.337 C 285.033 193.268,284.589 193.464,287.692 185.827 C 296.463 164.242,299.363 133.358,294.221 116.309 C 293.564 114.130,294.615 114.728,299.997 119.595 M258.329 239.095 C 256.328 245.427,252.560 255.177,249.957 260.762 L 245.223 270.915 249.321 276.820 C 260.540 292.989,260.962 293.358,270.496 295.364 C 282.706 297.932,287.538 301.516,288.735 308.891 C 289.710 314.901,285.715 317.829,284.606 311.917 C 284.010 308.738,279.512 303.650,277.298 303.650 C 276.127 303.650,276.143 303.772,277.859 307.879 C 279.752 312.409,279.725 319.182,277.804 321.925 C 275.796 324.791,274.267 324.680,275.009 321.722 C 277.752 310.793,266.808 300.772,253.487 302.016 C 240.537 303.226,235.956 298.162,247.445 295.338 C 251.267 294.398,250.851 293.016,244.241 284.698 L 238.361 277.298 235.424 279.389 C 232.036 281.801,231.887 281.691,227.318 273.384 L 224.857 268.908 227.768 260.245 C 230.295 252.725,231.160 251.265,234.318 249.187 C 240.182 245.327,254.219 234.038,257.841 230.269 C 262.440 225.483,262.468 226.002,258.329 239.095 M175.100 239.690 C 173.717 240.878,159.045 252.858,142.497 266.312 C 125.948 279.767,106.496 295.660,99.270 301.629 C 70.340 325.527,68.690 326.625,66.209 323.635 C 64.837 321.983,62.996 324.811,85.555 293.917 C 94.350 281.873,104.427 267.988,107.950 263.060 C 114.103 254.454,114.528 254.077,118.735 253.502 C 138.973 250.737,154.240 246.901,168.555 240.985 C 178.267 236.971,178.268 236.971,175.100 239.690 M343.373 254.527 C 344.962 255.895,331.958 276.103,324.043 284.564 C 320.856 287.971,318.248 290.964,318.248 291.215 C 318.248 291.465,324.818 291.459,332.847 291.202 L 347.445 290.733 347.445 296.218 L 347.445 301.703 340.850 301.703 C 328.615 301.703,315.905 303.849,297.204 309.074 C 295.446 309.565,295.041 309.134,294.489 306.192 C 294.127 304.265,292.390 301.196,290.568 299.264 L 287.296 295.795 293.283 292.785 C 308.257 285.257,320.816 274.138,331.288 259.136 L 336.884 251.120 339.975 252.691 C 341.675 253.555,343.204 254.381,343.373 254.527 M134.310 289.718 C 131.604 305.075,133.491 306.242,146.859 297.484 C 152.154 294.014,157.409 290.682,158.535 290.079 L 160.582 288.984 158.737 293.640 C 145.843 326.182,142.781 332.803,135.553 343.774 C 123.095 362.684,104.091 373.825,86.467 372.550 C 79.493 372.046,78.889 371.480,81.157 367.577 C 82.147 365.872,91.891 348.491,102.810 328.954 C 121.060 296.296,123.149 292.984,128.708 287.897 C 135.886 281.328,135.794 281.298,134.310 289.718 M266.423 310.986 C 270.086 315.175,268.397 320.195,263.324 320.195 C 263.162 320.195,262.779 318.658,262.474 316.779 C 262.169 314.901,261.017 312.096,259.914 310.546 C 258.810 308.997,257.908 307.498,257.908 307.217 C 257.908 305.864,264.494 308.779,266.423 310.986 M223.893 321.655 C 226.038 323.038,229.420 328.112,229.826 330.556 C 230.120 332.327,228.476 333.491,218.491 338.576 C 202.225 346.861,183.974 361.837,177.098 372.542 C 175.697 374.723,175.375 374.761,160.654 374.488 L 145.638 374.209 152.939 365.450 C 177.387 336.118,212.611 314.376,223.893 321.655"/>
</svg>