<svg version="1.1" viewBox="63.1 9.0 323.3 351.8" xmlns="http://www.w3.org/2000/svg">
<path fill="#C9A84C" fill-rule="evenodd" d="M213.465 21.306 C 234.805 26.865,246.987 45.358,246.993 72.206 C 246.995 81.972,249.524 88.764,254.319 91.884 C 272.740 103.870,269.312 160.227,248.888 181.148 C 243.804 186.355,241.191 187.398,244.780 182.787 C 264.681 157.214,270.577 110.939,255.746 96.729 C 251.922 93.065,251.038 93.407,252.367 98.038 C 261.473 129.792,243.749 191.338,217.623 218.678 C 210.671 225.954,210.352 225.365,215.862 215.422 C 221.507 205.235,221.824 204.768,221.842 206.612 C 221.851 207.544,221.323 208.841,220.670 209.494 C 219.867 210.297,219.846 210.907,220.604 211.376 C 221.702 212.055,225.262 206.541,233.973 190.670 C 249.428 162.510,255.867 119.727,248.607 93.440 C 246.947 87.431,245.201 78.240,244.727 73.016 C 243.611 60.724,238.920 43.171,235.387 38.066 C 224.078 21.726,192.757 17.972,175.779 30.921 C 166.909 37.687,165.375 41.576,158.475 74.799 C 157.534 79.331,156.174 82.245,153.973 84.446 C 150.297 88.123,149.977 89.052,152.934 87.470 C 155.420 86.139,162.795 85.996,164.754 87.240 C 165.544 87.741,163.888 88.141,160.832 88.187 C 140.809 88.489,122.288 115.181,119.647 147.541 L 119.067 154.645 121.721 147.253 C 125.922 135.556,135.324 119.611,142.391 112.200 C 147.615 106.722,148.113 106.383,145.057 110.383 C 126.844 134.223,116.872 160.141,112.154 195.902 C 111.139 203.593,113.679 201.207,118.249 190.176 C 119.870 186.262,121.223 183.598,121.254 184.255 C 121.345 186.143,117.082 197.965,115.719 199.608 C 114.745 200.782,114.983 201.093,116.858 201.093 C 120.474 201.093,124.105 196.352,127.391 187.340 C 129.028 182.853,130.541 179.357,130.755 179.571 C 131.359 180.175,125.873 195.722,124.452 197.434 C 122.254 200.082,124.327 200.336,127.822 197.847 C 131.813 195.006,133.786 191.480,137.929 179.781 C 139.632 174.973,140.711 172.760,140.326 174.863 C 139.941 176.967,138.479 181.867,137.077 185.752 C 135.675 189.637,134.747 193.035,135.014 193.302 C 136.926 195.213,146.448 178.762,146.448 173.547 C 146.448 172.869,146.750 172.615,147.119 172.984 C 148.831 174.696,141.806 192.987,139.891 191.803 C 139.426 191.516,138.419 192.036,137.653 192.959 C 134.161 197.166,123.279 202.261,117.460 202.415 C 111.751 202.565,111.664 202.618,111.246 206.201 C 110.781 210.181,112.009 211.133,113.115 207.650 C 113.496 206.448,114.243 205.464,114.774 205.464 C 115.306 205.464,114.814 207.533,113.682 210.061 C 110.963 216.134,112.196 217.842,115.403 212.443 C 119.694 205.218,119.942 204.899,120.688 205.607 C 121.087 205.986,119.887 208.559,118.020 211.325 C 114.926 215.910,109.640 231.316,110.772 232.448 C 111.033 232.709,113.238 229.327,115.671 224.931 C 118.104 220.536,120.883 215.956,121.845 214.754 C 124.337 211.642,119.757 220.826,114.215 230.055 C 111.688 234.262,108.822 240.950,107.846 244.915 C 106.869 248.881,105.767 253.061,105.397 254.205 C 105.027 255.349,108.758 248.661,113.690 239.344 C 118.622 230.027,123.121 221.913,123.688 221.311 C 125.107 219.808,123.671 223.530,120.736 228.962 C 109.623 249.525,106.813 255.390,103.892 264.107 C 99.952 275.867,99.502 280.725,103.149 272.131 C 106.268 264.782,125.478 228.625,128.183 225.013 C 130.212 222.304,128.871 224.942,113.398 254.098 C 108.294 263.716,103.521 273.433,102.791 275.693 C 102.061 277.953,101.134 279.598,100.732 279.350 C 100.329 279.101,99.911 281.679,99.801 285.077 C 99.584 291.826,99.381 292.080,104.906 278.689 C 110.776 264.459,111.433 263.233,112.747 264.045 C 113.512 264.518,113.700 264.335,113.231 263.576 C 112.808 262.892,115.845 256.546,119.979 249.472 C 136.990 220.367,161.255 175.098,160.337 174.180 C 160.048 173.892,158.738 175.394,157.424 177.519 C 154.921 181.570,146.832 189.071,144.968 189.071 C 144.370 189.071,144.889 187.964,146.121 186.612 C 149.305 183.117,150.866 179.823,153.764 170.492 C 155.283 165.602,156.046 164.046,155.656 166.634 C 155.296 169.021,154.271 173.125,153.379 175.754 C 151.275 181.950,151.982 182.473,155.524 177.342 C 158.184 173.490,162.775 161.790,166.575 149.180 C 167.665 145.565,168.011 145.010,167.598 147.541 C 167.254 149.645,165.514 155.960,163.731 161.575 C 159.501 174.897,160.183 174.992,166.947 162.024 C 191.797 114.375,187.561 81.063,158.721 97.339 C 151.028 101.681,150.161 100.806,157.493 96.101 C 168.407 89.097,180.453 90.979,184.349 100.297 C 191.199 116.680,180.787 144.927,141.557 216.393 C 126.924 243.052,123.139 251.006,117.637 266.667 C 108.135 293.708,104.512 302.763,103.570 301.822 C 103.032 301.283,103.324 299.025,104.244 296.611 C 105.137 294.267,107.901 286.726,110.387 279.853 C 112.872 272.981,115.630 265.958,116.514 264.248 C 117.398 262.537,117.780 260.585,117.362 259.908 C 116.898 259.158,117.094 258.983,117.864 259.458 C 118.558 259.887,119.126 259.758,119.126 259.170 C 119.126 258.583,119.448 257.201,119.843 256.100 C 120.282 254.876,119.622 255.255,118.146 257.076 C 116.819 258.714,115.541 261.049,115.306 262.266 C 114.699 265.419,111.989 268.986,110.930 268.026 C 110.437 267.579,110.336 268.056,110.706 269.087 C 111.119 270.242,108.589 276.530,104.109 285.480 C 96.154 301.373,94.700 301.671,97.268 286.885 C 100.956 265.657,101.707 262.020,102.860 259.791 C 105.955 253.807,96.615 264.633,89.937 274.768 C 77.363 293.855,77.036 297.058,88.520 288.679 C 97.608 282.048,99.085 281.597,93.930 287.027 C 71.090 311.085,71.910 293.717,95.071 262.856 C 99.888 256.438,104.125 249.875,104.487 248.271 C 104.850 246.667,105.776 242.650,106.547 239.344 C 110.271 223.356,110.665 220.014,109.309 215.905 C 107.684 210.982,108.496 201.118,112.014 183.060 C 113.419 175.847,114.887 166.257,115.276 161.749 C 118.488 124.529,124.493 109.157,142.920 90.986 L 154.836 79.235 157.197 66.517 C 160.449 48.998,163.250 40.554,167.779 34.624 C 176.788 22.825,196.846 16.978,213.465 21.306 M188.068 41.133 C 189.027 42.313,188.264 42.050,186.066 40.441 C 184.112 39.010,182.514 37.670,182.514 37.461 C 182.514 36.631,186.613 39.341,188.068 41.133 M184.801 44.066 C 194.232 49.031,196.929 61.150,189.725 66.195 C 187.593 67.689,187.653 67.760,191.066 67.760 C 193.527 67.760,195.474 68.660,197.320 70.651 L 200.000 73.543 200.083 70.378 C 200.129 68.637,200.829 65.492,201.639 63.388 L 203.112 59.563 203.405 63.934 C 203.567 66.339,203.708 69.413,203.719 70.765 C 203.744 73.816,203.672 73.825,207.134 70.362 C 209.521 67.976,210.665 67.604,214.015 68.126 L 218.033 68.753 215.099 66.578 C 203.925 58.294,213.084 41.382,228.617 41.619 L 234.426 41.707 230.055 43.776 C 227.650 44.913,224.627 45.857,223.337 45.873 C 215.276 45.971,212.241 57.307,218.579 63.645 C 220.984 66.050,222.951 68.426,222.951 68.927 C 222.951 69.427,223.811 70.338,224.863 70.951 C 226.681 72.010,226.681 72.066,224.850 72.098 C 223.118 72.128,223.181 72.546,225.476 76.230 C 229.204 82.215,230.218 85.510,227.242 81.967 C 225.980 80.464,225.265 79.850,225.653 80.601 C 227.104 83.411,224.100 81.837,221.772 78.569 C 220.441 76.699,217.826 74.505,215.960 73.693 C 212.880 72.352,212.806 72.213,215.161 72.174 C 217.340 72.138,217.537 71.870,216.393 70.492 C 213.401 66.886,207.970 70.399,203.811 78.630 L 201.907 82.397 199.735 78.084 C 195.393 69.465,191.695 67.184,187.367 70.457 C 185.347 71.985,185.402 72.067,188.525 72.166 C 191.483 72.260,191.574 72.362,189.456 73.217 C 188.164 73.738,184.779 76.535,181.933 79.432 C 179.087 82.329,177.054 83.839,177.416 82.787 C 177.777 81.735,177.591 80.874,177.001 80.874 C 176.411 80.874,177.160 78.924,178.664 76.541 C 180.933 72.947,181.075 72.310,179.498 72.807 C 178.070 73.257,178.209 72.863,180.055 71.228 C 182.776 68.816,183.498 66.675,180.848 68.874 C 179.932 69.635,178.914 69.989,178.586 69.661 C 178.259 69.333,179.534 68.157,181.421 67.046 C 193.555 59.903,190.164 47.623,175.145 44.324 C 169.752 43.140,169.769 41.530,175.173 41.530 C 178.093 41.530,181.878 42.527,184.801 44.066 M181.967 48.087 C 182.339 48.689,182.174 49.180,181.602 49.180 C 179.892 49.180,179.162 52.466,180.370 54.724 C 181.530 56.892,185.792 57.688,185.792 55.738 C 185.792 55.137,186.284 54.645,186.885 54.645 C 188.802 54.645,188.058 57.804,185.864 58.978 C 180.129 62.047,175.257 58.311,176.325 51.664 C 176.779 48.838,176.658 48.057,175.942 49.180 C 172.504 54.574,176.494 61.853,182.413 60.984 C 184.208 60.720,185.428 60.908,185.124 61.400 C 182.112 66.274,172.010 59.158,173.308 53.077 C 174.481 47.579,179.770 44.532,181.967 48.087 M226.008 48.367 C 230.516 53.799,226.852 61.642,220.860 59.385 C 219.005 58.685,217.486 58.510,217.486 58.994 C 217.486 61.528,225.364 61.922,227.383 59.490 C 228.972 57.575,229.288 51.964,227.994 48.634 C 227.156 46.480,227.169 46.479,228.873 48.570 C 231.129 51.339,231.085 57.763,228.792 60.296 C 225.740 63.669,218.401 62.768,216.254 58.756 C 215.350 57.067,215.393 56.759,216.444 57.408 C 217.459 58.036,217.619 57.508,217.073 55.331 C 215.823 50.354,223.009 44.753,226.008 48.367 M219.233 51.544 C 217.317 54.280,217.846 55.738,220.756 55.738 C 222.894 55.738,224.681 52.189,223.503 50.283 C 222.438 48.559,221.034 48.974,219.233 51.544 M205.729 55.711 C 208.512 57.901,210.456 62.295,208.641 62.295 C 208.096 62.295,207.650 61.719,207.650 61.015 C 207.650 55.611,199.723 54.126,196.944 59.009 C 194.496 63.311,192.884 63.268,195.111 58.960 C 196.568 56.142,199.590 53.902,202.312 53.621 C 202.681 53.583,204.219 54.524,205.729 55.711 M165.574 74.317 C 164.486 75.519,163.104 76.503,162.503 76.503 C 161.902 76.503,162.300 75.519,163.388 74.317 C 164.476 73.115,165.858 72.131,166.459 72.131 C 167.060 72.131,166.662 73.115,165.574 74.317 M242.437 78.146 C 242.101 78.482,240.963 77.389,239.907 75.717 L 237.988 72.678 240.518 75.106 C 241.909 76.442,242.773 77.810,242.437 78.146 M244.080 94.896 C 246.790 99.537,245.772 99.283,242.038 94.389 C 240.372 92.204,239.695 90.645,240.533 90.924 C 241.371 91.204,242.967 92.991,244.080 94.896 M234.310 101.717 C 235.449 103.655,235.867 104.924,235.240 104.537 C 234.613 104.149,233.030 102.018,231.722 99.801 C 230.413 97.584,229.995 96.315,230.792 96.981 C 231.589 97.648,233.172 99.779,234.310 101.717 M145.597 99.930 C 146.422 99.367,146.162 99.765,145.020 100.814 C 142.666 102.973,140.751 102.426,141.730 99.873 C 142.232 98.564,142.576 98.494,143.238 99.565 C 143.807 100.485,144.602 100.608,145.597 99.930 M221.739 107.650 L 221.719 109.836 220.858 107.650 C 220.385 106.448,219.698 103.989,219.333 102.186 L 218.669 98.907 220.214 102.186 C 221.064 103.989,221.750 106.448,221.739 107.650 M203.798 105.191 C 203.377 107.746,202.562 110.574,201.988 111.475 C 201.221 112.678,201.104 112.387,201.549 110.383 C 201.883 108.880,202.163 106.052,202.171 104.098 C 202.179 102.145,202.721 100.546,203.375 100.546 C 204.165 100.546,204.307 102.104,203.798 105.191 M245.867 110.699 C 246.571 113.046,246.866 115.247,246.524 115.589 C 246.182 115.931,245.897 115.515,245.891 114.663 C 245.885 113.811,244.648 110.410,243.143 107.104 C 241.004 102.406,240.862 101.676,242.497 103.762 C 243.647 105.230,245.164 108.352,245.867 110.699 M134.812 109.016 C 134.137 111.726,134.243 111.874,135.884 110.522 C 137.122 109.502,137.705 109.426,137.705 110.283 C 137.705 111.710,134.665 113.171,133.701 112.208 C 132.996 111.502,134.159 106.011,135.014 106.011 C 135.315 106.011,135.224 107.363,134.812 109.016 M230.034 110.712 C 230.963 112.935,231.477 114.754,231.177 114.754 C 230.643 114.754,227.322 107.421,227.322 106.242 C 227.322 105.021,228.396 106.792,230.034 110.712 M212.806 114.466 C 212.555 116.127,212.343 115.027,212.334 112.022 C 212.326 109.016,212.532 107.657,212.791 109.001 C 213.051 110.346,213.057 112.805,212.806 114.466 M162.543 115.054 C 163.706 114.608,164.028 114.812,163.503 115.661 C 162.123 117.894,159.555 117.099,159.690 114.481 C 159.780 112.728,159.957 112.553,160.305 113.874 C 160.615 115.051,161.431 115.481,162.543 115.054 M193.443 118.579 C 192.103 120.746,190.783 122.294,190.508 122.019 C 190.233 121.744,191.143 119.786,192.532 117.668 C 195.821 112.652,196.615 113.446,193.443 118.579 M177.071 117.460 C 176.311 118.376,174.888 119.095,173.910 119.056 C 172.706 119.010,172.926 118.668,174.590 117.999 C 175.943 117.455,177.049 116.421,177.049 115.700 C 177.049 114.979,177.365 114.706,177.751 115.092 C 178.138 115.478,177.831 116.544,177.071 117.460 M241.344 121.858 C 241.318 123.615,241.141 123.508,240.437 121.311 C 239.240 117.575,239.240 114.701,240.437 117.486 C 240.954 118.689,241.362 120.656,241.344 121.858 M204.413 123.416 C 201.258 129.601,200.809 128.986,203.621 122.330 C 204.908 119.283,206.124 117.279,206.323 117.877 C 206.522 118.474,205.663 120.966,204.413 123.416 M129.978 122.678 C 130.020 123.128,129.563 123.497,128.962 123.497 C 128.361 123.497,127.903 122.145,127.946 120.492 C 128.017 117.687,129.678 119.473,129.978 122.678 M168.457 119.602 C 169.699 118.855,169.697 119.013,168.445 120.555 C 166.373 123.110,165.024 122.868,165.044 119.945 C 165.056 118.120,165.307 117.875,166.015 118.992 C 166.602 119.919,167.541 120.154,168.457 119.602 M262.173 126.230 C 262.160 127.432,261.452 126.202,260.599 123.497 C 258.687 117.429,258.722 116.455,260.695 120.765 C 261.521 122.568,262.186 125.027,262.173 126.230 M153.372 120.618 C 154.072 120.229,153.796 120.811,152.758 121.912 C 150.561 124.244,149.336 123.603,150.448 120.703 C 150.914 119.490,151.395 119.213,151.660 120.007 C 151.902 120.732,152.672 121.007,153.372 120.618 M230.291 127.596 C 230.041 129.249,229.836 127.896,229.836 124.590 C 229.836 121.284,230.041 119.932,230.291 121.585 C 230.541 123.238,230.541 125.943,230.291 127.596 M143.040 123.224 C 142.680 125.501,143.338 126.776,144.873 126.776 C 145.810 126.776,146.273 127.268,145.902 127.869 C 144.724 129.775,142.355 129.050,141.710 126.586 C 141.369 125.280,141.340 123.804,141.647 123.308 C 142.344 122.180,143.213 122.128,143.040 123.224 M214.796 131.286 C 213.854 133.313,213.307 134.147,213.581 133.138 C 213.855 132.128,214.461 129.424,214.927 127.127 C 215.517 124.222,215.887 123.658,216.142 125.275 C 216.345 126.553,215.739 129.258,214.796 131.286 M160.174 127.725 C 159.352 128.547,158.141 128.887,157.482 128.480 C 155.392 127.189,156.187 125.909,158.976 126.072 C 161.253 126.205,161.438 126.460,160.174 127.725 M170.364 127.869 C 171.396 127.869,172.954 127.260,173.825 126.515 C 174.697 125.770,174.344 126.330,173.042 127.760 C 170.419 130.638,167.159 130.255,167.299 127.083 C 167.350 125.939,167.613 125.699,167.937 126.503 C 168.240 127.254,169.332 127.869,170.364 127.869 M222.936 137.408 C 221.763 139.235,221.728 139.231,222.322 137.342 C 222.668 136.241,223.030 133.782,223.126 131.878 L 223.301 128.415 223.740 131.944 C 223.981 133.884,223.619 136.343,222.936 137.408 M191.446 132.967 C 190.851 134.070,189.011 136.202,187.356 137.705 C 184.086 140.674,184.588 139.222,188.796 133.535 C 191.561 129.798,193.361 129.412,191.446 132.967 M150.523 133.935 C 151.929 133.396,151.985 133.568,150.850 134.936 C 149.096 137.049,147.505 136.079,147.668 132.996 C 147.772 131.028,147.886 130.956,148.310 132.594 C 148.638 133.864,149.441 134.350,150.523 133.935 M137.856 134.903 C 139.110 134.148,139.109 134.296,137.854 135.844 C 136.144 137.953,134.418 137.342,134.443 134.635 C 134.456 133.159,134.652 133.090,135.414 134.293 C 136.001 135.220,136.940 135.454,137.856 134.903 M244.700 138.589 C 244.602 142.212,244.502 142.345,243.716 139.891 C 242.452 135.943,242.452 133.098,243.716 133.880 C 244.317 134.251,244.760 136.370,244.700 138.589 M162.563 138.798 C 163.651 138.798,165.634 138.032,166.970 137.096 C 168.306 136.161,169.399 135.676,169.399 136.020 C 169.399 136.363,167.839 137.593,165.933 138.752 C 161.833 141.245,158.430 140.117,158.539 136.300 L 158.608 133.880 159.597 136.339 C 160.141 137.691,161.475 138.798,162.563 138.798 M201.482 139.965 C 200.444 142.560,199.414 144.143,199.193 143.482 C 198.693 141.982,202.002 133.879,202.792 134.668 C 203.110 134.986,202.521 137.370,201.482 139.965 M234.651 144.536 C 234.391 145.888,234.177 144.781,234.177 142.077 C 234.177 139.372,234.391 138.265,234.651 139.617 C 234.912 140.970,234.912 143.183,234.651 144.536 M362.207 149.727 C 362.214 154.771,361.565 156.778,358.172 162.206 C 352.918 170.610,352.208 174.730,354.482 183.604 C 356.532 191.605,356.798 198.505,355.218 202.661 C 353.921 206.073,354.303 206.055,361.188 202.370 C 367.187 199.159,370.894 193.832,372.017 186.804 C 372.385 184.506,373.958 181.249,375.514 179.565 L 378.342 176.503 376.129 179.848 C 374.912 181.688,373.637 184.516,373.297 186.132 C 372.956 187.749,372.412 190.342,372.087 191.895 C 371.712 193.692,371.909 194.464,372.630 194.018 C 373.412 193.535,373.415 194.236,372.639 196.277 C 370.230 202.612,367.487 205.797,360.434 210.448 C 342.493 222.279,335.599 231.001,331.686 246.814 C 327.858 262.287,327.475 261.908,339.396 254.445 C 343.030 252.169,347.703 250.055,349.778 249.748 L 353.552 249.188 350.038 250.298 C 348.106 250.909,342.492 253.858,337.563 256.852 C 332.634 259.846,328.067 262.256,327.415 262.209 C 326.691 262.156,326.738 261.916,327.534 261.592 C 328.252 261.300,328.591 260.414,328.287 259.623 C 324.048 248.576,340.071 221.031,356.635 210.888 C 358.331 209.850,359.561 208.772,359.368 208.493 C 359.174 208.214,359.691 207.173,360.516 206.179 C 362.624 203.639,360.481 203.903,355.595 206.786 C 351.698 209.086,351.542 209.099,352.328 207.059 C 355.350 199.218,355.609 195.704,353.750 187.758 C 350.620 174.373,351.371 170.042,358.924 157.923 L 360.968 154.645 358.021 157.923 C 356.400 159.727,353.625 163.389,351.854 166.061 C 350.083 168.733,348.634 170.428,348.634 169.827 C 348.634 167.676,360.091 151.712,360.990 152.611 C 361.326 152.947,361.417 152.312,361.193 151.201 C 359.871 144.639,359.741 139.405,360.953 141.530 C 361.639 142.732,362.203 146.421,362.207 149.727 M142.438 141.889 C 144.580 140.748,144.664 140.802,143.309 142.444 C 141.343 144.827,138.775 144.773,138.884 142.350 C 138.935 141.222,139.195 140.994,139.519 141.795 C 139.942 142.842,140.608 142.864,142.438 141.889 M214.208 146.448 C 214.208 148.852,213.716 150.820,213.115 150.820 C 211.908 150.820,211.645 146.516,212.685 143.805 C 213.758 141.009,214.208 141.789,214.208 146.448 M225.640 146.721 C 225.221 148.675,224.167 151.503,223.298 153.005 C 222.430 154.508,221.969 154.908,222.274 153.893 C 222.580 152.879,223.368 150.051,224.025 147.609 C 225.446 142.332,226.735 141.623,225.640 146.721 M133.696 148.246 C 135.998 147.667,136.005 147.695,133.944 149.235 C 130.789 151.592,130.039 151.198,130.203 147.268 C 130.318 144.523,130.463 144.298,130.840 146.279 C 131.220 148.281,131.846 148.711,133.696 148.246 M158.543 147.626 C 161.095 146.380,161.114 146.398,159.024 148.068 C 155.923 150.547,152.542 149.767,152.076 146.465 L 151.693 143.749 153.789 146.337 C 155.622 148.601,156.217 148.762,158.543 147.626 M189.071 147.966 C 189.071 148.801,188.061 150.646,186.827 152.065 L 184.584 154.645 185.322 151.913 C 186.485 147.605,189.071 144.884,189.071 147.966 M147.055 154.148 C 148.289 155.173,149.264 155.037,151.634 153.512 L 154.645 151.574 152.563 153.929 C 148.881 158.094,143.983 155.776,144.411 150.072 C 144.524 148.570,144.673 148.666,145.023 150.467 C 145.278 151.776,146.192 153.432,147.055 154.148 M241.191 153.825 C 240.916 154.877,240.691 154.016,240.691 151.913 C 240.691 149.809,240.916 148.948,241.191 150.000 C 241.465 151.052,241.465 152.773,241.191 153.825 M341.517 155.166 C 342.403 156.880,343.441 161.152,343.824 164.660 C 344.207 168.168,345.203 172.132,346.037 173.469 C 350.347 180.375,352.051 196.030,349.228 202.787 C 348.352 204.883,347.615 206.834,347.588 207.124 C 347.562 207.413,347.371 207.527,347.163 207.377 C 346.954 207.227,345.971 207.779,344.977 208.604 C 342.550 210.617,342.651 212.696,345.082 210.790 C 346.813 209.432,346.853 209.470,345.505 211.190 C 344.685 212.235,343.643 212.861,343.189 212.580 C 342.311 212.038,331.822 222.733,328.731 227.322 L 326.891 230.055 326.833 225.921 C 326.755 220.257,324.494 215.455,319.802 210.988 C 316.240 207.595,315.847 206.653,315.847 201.496 C 315.847 198.347,315.352 194.386,314.748 192.694 C 313.722 189.824,313.759 189.760,315.294 191.739 C 316.333 193.077,316.940 196.231,316.940 200.284 C 316.940 206.427,317.156 206.930,321.903 211.814 C 324.633 214.622,327.073 217.908,327.325 219.116 C 327.577 220.323,327.926 222.076,328.100 223.011 C 328.700 226.241,346.980 205.362,348.591 199.606 C 350.278 193.581,348.951 184.888,344.716 174.231 C 343.264 170.577,342.077 165.652,342.077 163.286 C 342.077 160.920,341.068 157.103,339.836 154.803 C 338.603 152.504,338.115 150.944,338.751 151.337 C 339.386 151.730,340.631 153.453,341.517 155.166 M201.877 159.275 C 201.626 160.936,201.414 159.836,201.405 156.831 C 201.397 153.825,201.603 152.466,201.862 153.810 C 202.122 155.154,202.128 157.613,201.877 159.275 M253.769 164.280 C 251.402 169.332,248.914 173.806,248.241 174.222 C 247.568 174.638,249.348 170.141,252.197 164.228 C 255.046 158.315,257.534 153.842,257.725 154.286 C 257.917 154.731,256.137 159.229,253.769 164.280 M138.154 157.923 C 138.908 160.929,139.935 161.232,143.514 159.503 C 145.820 158.389,145.829 158.407,143.780 160.049 C 139.948 163.120,135.519 160.770,135.519 155.667 C 135.519 153.919,137.595 155.698,138.154 157.923 M227.869 160.656 C 226.879 162.571,225.822 163.892,225.522 163.591 C 225.221 163.291,225.786 161.478,226.776 159.563 C 227.766 157.648,228.822 156.327,229.123 156.627 C 229.423 156.928,228.859 158.741,227.869 160.656 M133.267 163.105 C 134.514 162.344,135.519 162.205,135.519 162.794 C 135.519 163.379,134.646 164.325,133.578 164.896 C 131.161 166.190,127.869 164.538,127.869 162.032 C 127.869 160.520,128.116 160.572,129.442 162.359 C 130.784 164.170,131.344 164.279,133.267 163.105 M180.328 161.688 C 180.328 162.255,179.069 164.100,177.530 165.786 C 174.821 168.754,174.773 168.765,176.035 166.120 C 178.200 161.585,180.328 159.387,180.328 161.688 M220.260 163.661 C 219.851 165.314,219.083 167.111,218.553 167.654 C 218.022 168.197,218.139 166.845,218.813 164.649 C 220.240 160.000,221.351 159.242,220.260 163.661 M125.320 166.120 C 126.847 166.120,126.944 166.385,125.824 167.486 C 124.182 169.101,119.705 164.557,120.951 162.541 C 121.373 161.858,122.035 162.358,122.549 163.748 C 123.032 165.053,124.279 166.120,125.320 166.120 M190.807 168.461 L 189.162 172.131 189.754 168.852 C 190.631 163.997,191.433 162.087,191.982 163.543 C 192.241 164.229,191.712 166.442,190.807 168.461 M231.573 167.092 C 230.899 169.023,230.157 170.412,229.923 170.178 C 229.690 169.945,230.049 168.173,230.723 166.242 C 231.396 164.310,232.138 162.921,232.372 163.155 C 232.605 163.389,232.246 165.160,231.573 167.092 M209.527 174.575 C 209.276 176.236,209.064 175.137,209.056 172.131 C 209.048 169.126,209.253 167.766,209.512 169.111 C 209.772 170.455,209.779 172.914,209.527 174.575 M200.771 175.137 C 200.511 176.489,200.298 175.383,200.298 172.678 C 200.298 169.973,200.511 168.866,200.771 170.219 C 201.032 171.571,201.032 173.784,200.771 175.137 M220.254 175.887 C 219.342 177.652,218.099 179.403,217.492 179.778 C 216.886 180.153,217.423 178.708,218.685 176.568 C 221.453 171.877,222.581 171.387,220.254 175.887 M182.575 182.667 C 179.885 187.079,179.616 185.140,182.132 179.473 C 183.354 176.719,184.077 175.987,184.375 177.202 C 184.616 178.188,183.806 180.647,182.575 182.667 M169.399 181.421 C 168.172 183.825,166.879 185.792,166.526 185.792 C 165.611 185.792,167.167 180.061,168.528 178.421 C 170.985 175.461,171.513 177.277,169.399 181.421 M230.173 187.083 C 228.619 190.280,227.646 191.710,228.011 190.259 C 229.121 185.854,231.785 180.055,232.411 180.681 C 232.735 181.005,231.728 183.886,230.173 187.083 M191.850 196.721 C 190.942 199.426,190.443 200.299,190.741 198.662 C 191.040 197.024,191.647 192.598,192.090 188.826 C 192.868 182.203,192.907 182.136,193.199 186.885 C 193.366 189.590,192.759 194.016,191.850 196.721 M205.038 188.406 C 204.132 190.575,203.113 192.350,202.773 192.350 C 202.434 192.350,202.901 190.568,203.810 188.391 C 204.720 186.214,205.464 184.165,205.464 183.837 C 205.464 183.510,205.739 183.517,206.075 183.853 C 206.411 184.188,205.944 186.238,205.038 188.406 M215.324 189.038 C 214.053 190.823,212.455 192.629,211.773 193.050 C 211.091 193.472,211.909 192.011,213.593 189.805 C 217.246 185.015,218.623 184.405,215.324 189.038 M173.729 194.098 C 171.569 199.781,169.089 202.236,169.977 197.814 C 170.780 193.810,172.299 191.257,173.877 191.257 C 174.390 191.257,174.323 192.535,173.729 194.098 M214.653 201.844 C 207.715 212.384,201.752 219.177,192.095 227.544 C 182.878 235.528,184.319 233.353,197.554 219.304 C 204.022 212.438,211.764 203.355,214.758 199.121 C 222.371 188.355,222.299 190.230,214.653 201.844 M160.191 199.549 C 159.329 201.901,158.589 202.988,158.547 201.964 C 158.465 199.981,160.757 194.273,161.384 194.900 C 161.589 195.105,161.052 197.197,160.191 199.549 M369.653 197.146 C 368.937 198.719,366.742 201.040,364.776 202.305 C 362.811 203.569,362.186 204.299,363.388 203.927 C 365.182 203.371,365.083 203.640,362.842 205.426 C 359.564 208.036,360.731 208.368,364.500 205.898 C 367.605 203.863,371.952 197.277,371.361 195.502 C 371.138 194.834,370.369 195.574,369.653 197.146 M187.512 207.030 C 186.940 210.052,180.344 221.397,180.333 219.378 C 180.330 218.916,181.803 215.773,183.607 212.394 C 185.714 208.444,186.948 204.450,187.060 201.212 C 187.211 196.879,187.299 196.699,187.691 199.927 C 187.941 201.990,187.861 205.187,187.512 207.030 M131.180 202.125 C 130.555 203.294,129.554 204.552,128.956 204.922 C 128.358 205.291,127.869 206.830,127.869 208.341 C 127.869 212.630,131.154 211.167,135.246 205.057 C 137.199 202.140,138.798 200.191,138.798 200.726 C 138.798 202.118,135.719 206.537,131.931 210.584 C 129.848 212.808,128.921 214.710,129.360 215.856 C 130.627 219.156,133.800 216.977,137.835 210.036 C 142.967 201.211,143.826 200.401,140.886 207.161 C 136.275 217.762,131.174 222.185,128.976 217.486 C 128.554 216.585,127.640 214.747,126.946 213.403 C 125.052 209.737,125.383 207.910,128.689 203.767 C 132.081 199.516,132.847 199.011,131.180 202.125 M316.910 212.429 C 316.961 214.072,314.295 211.256,312.207 207.461 L 310.206 203.825 313.544 207.650 C 315.379 209.754,316.894 211.904,316.910 212.429 M180.392 215.175 C 175.401 224.958,182.185 238.607,193.547 241.644 C 202.842 244.128,205.369 240.762,200.038 232.998 L 196.517 227.869 199.875 231.412 C 205.486 237.333,204.946 245.922,199.078 244.099 C 197.671 243.663,197.741 243.923,199.389 245.266 C 202.001 247.394,200.215 247.570,197.229 245.478 C 196.038 244.644,192.903 243.315,190.263 242.523 C 184.999 240.947,181.297 236.316,177.638 226.734 L 175.705 221.673 178.836 215.439 C 180.558 212.010,182.119 209.556,182.304 209.985 C 182.490 210.415,181.629 212.750,180.392 215.175 M216.588 216.120 L 214.162 221.311 216.912 218.033 C 219.164 215.347,220.676 210.929,219.343 210.929 C 219.163 210.929,217.923 213.265,216.588 216.120 M323.601 223.616 C 324.650 228.234,324.571 230.122,323.148 234.545 C 322.201 237.485,321.124 242.350,320.753 245.355 C 319.575 254.915,313.712 265.574,309.632 265.574 C 308.842 265.574,308.197 266.066,308.197 266.667 C 308.197 267.268,307.439 267.760,306.514 267.760 C 302.317 267.760,296.426 272.097,294.673 276.477 C 292.583 281.702,292.503 282.339,294.063 281.375 C 294.705 280.978,293.868 283.285,292.202 286.502 C 290.537 289.718,289.151 292.793,289.123 293.334 C 289.094 293.875,287.842 294.503,286.339 294.729 L 283.607 295.140 286.045 293.424 C 287.666 292.284,289.423 288.628,291.285 282.522 C 294.336 272.521,297.194 269.083,305.084 265.926 C 312.939 262.783,317.220 255.718,320.196 240.984 C 322.674 228.718,322.780 223.752,320.665 219.093 C 317.718 212.604,317.678 212.331,320.102 215.301 C 321.330 216.803,322.904 220.545,323.601 223.616 M211.209 220.274 C 209.572 223.610,208.059 225.817,207.846 225.178 C 207.470 224.049,212.717 214.208,213.695 214.208 C 213.964 214.208,212.845 216.937,211.209 220.274 M152.841 232.240 L 152.818 235.519 151.843 232.253 C 151.308 230.456,150.614 226.030,150.303 222.417 L 149.737 215.847 151.301 222.404 C 152.161 226.011,152.854 230.437,152.841 232.240 M174.160 220.492 C 173.233 222.746,172.064 225.022,171.561 225.551 C 171.058 226.079,171.884 228.380,173.395 230.664 C 178.241 237.986,178.069 242.530,172.785 246.777 C 169.365 249.525,168.306 251.140,168.306 253.603 C 168.306 258.078,170.081 257.650,175.658 251.830 C 179.685 247.628,180.715 247.048,182.108 248.205 C 184.765 250.409,187.810 257.209,188.425 262.312 C 189.039 267.413,190.376 269.526,192.255 268.365 C 193.905 267.345,193.731 259.044,191.990 255.738 C 191.199 254.235,190.049 252.022,189.436 250.820 C 188.822 249.617,187.713 247.474,186.972 246.056 C 186.231 244.638,186.032 243.657,186.528 243.876 C 189.034 244.982,198.682 250.506,200.956 252.137 L 203.551 253.999 202.758 250.224 C 202.006 246.640,202.064 246.542,203.889 248.300 C 207.427 251.708,205.787 263.426,201.779 263.371 C 201.101 263.362,201.253 262.907,202.117 262.360 C 202.982 261.814,203.793 259.855,203.921 258.008 C 204.049 256.162,203.828 254.852,203.431 255.097 C 203.034 255.343,200.035 253.635,196.768 251.301 C 189.812 246.333,188.980 246.493,192.414 252.139 C 194.244 255.150,194.949 258.004,194.990 262.568 L 195.046 268.852 199.847 268.852 C 202.953 268.852,206.817 269.949,210.794 271.960 C 214.174 273.670,219.075 275.404,221.685 275.814 C 228.321 276.858,233.883 279.950,238.684 285.264 C 243.683 290.797,244.699 290.490,240.751 284.637 C 238.970 281.997,238.592 280.937,239.776 281.902 C 242.559 284.169,247.691 294.847,248.592 300.248 C 249.654 306.607,253.192 311.399,259.016 314.370 C 264.895 317.368,266.363 317.574,264.341 315.116 C 263.517 314.113,265.301 315.065,268.306 317.231 C 271.311 319.398,274.401 322.205,275.172 323.469 C 275.943 324.733,277.018 325.494,277.560 325.159 C 278.837 324.370,283.510 330.674,285.038 335.246 C 286.525 339.694,285.834 339.826,283.607 335.519 C 282.674 333.716,282.205 332.240,282.563 332.240 C 283.454 332.240,275.627 324.880,271.585 321.917 C 269.781 320.595,264.945 318.124,260.837 316.426 C 252.494 312.976,249.683 309.705,246.472 299.714 C 243.032 289.007,229.857 277.596,220.935 277.596 C 219.004 277.596,214.610 276.186,211.171 274.463 C 202.415 270.076,194.066 269.377,191.797 272.840 C 190.871 274.253,189.278 275.410,188.257 275.410 C 186.651 275.410,186.712 275.097,188.707 273.103 C 190.894 270.915,190.916 270.697,189.122 268.904 C 188.082 267.863,186.933 264.502,186.570 261.434 C 185.820 255.100,183.147 249.180,181.037 249.180 C 178.814 249.180,174.521 254.299,175.464 255.826 C 175.953 256.616,175.841 256.889,175.193 256.488 C 172.885 255.062,170.111 258.449,171.485 261.015 C 172.240 262.426,172.321 263.388,171.685 263.388 C 169.763 263.388,167.213 258.608,167.213 255.004 L 167.213 251.478 163.661 252.957 C 161.708 253.771,157.650 254.792,154.645 255.227 C 151.639 255.662,148.197 256.527,146.995 257.149 C 145.087 258.137,144.988 258.064,146.218 256.572 C 146.994 255.632,151.142 254.069,155.436 253.099 C 173.351 249.053,178.778 241.665,171.795 230.829 L 170.181 228.324 167.243 231.843 C 163.453 236.383,161.959 234.362,164.935 228.722 C 166.135 226.450,167.138 224.983,167.165 225.464 C 167.191 225.945,166.439 227.835,165.493 229.664 C 164.547 231.493,164.021 233.238,164.324 233.541 C 164.627 233.844,165.960 231.965,167.286 229.365 C 169.788 224.460,174.896 216.393,175.499 216.393 C 175.689 216.393,175.087 218.238,174.160 220.492 M340.984 216.735 C 340.984 216.924,339.385 218.522,337.432 220.287 L 333.880 223.497 337.090 219.945 C 340.082 216.634,340.984 215.891,340.984 216.735 M339.220 223.224 C 336.272 226.380,332.990 230.191,331.926 231.694 L 329.992 234.426 331.285 231.723 C 332.543 229.095,342.937 217.486,344.033 217.486 C 344.333 217.486,342.168 220.068,339.220 223.224 M148.980 225.137 C 149.414 228.421,149.309 229.328,148.662 227.869 C 147.738 225.782,147.113 218.814,147.935 219.763 C 148.152 220.014,148.622 222.432,148.980 225.137 M189.015 225.956 C 186.945 228.210,184.882 230.522,184.429 231.093 C 183.977 231.664,183.607 231.788,183.607 231.369 C 183.607 230.412,191.286 221.858,192.145 221.858 C 192.493 221.858,191.085 223.702,189.015 225.956 M210.605 234.146 C 216.089 241.300,217.366 242.152,225.085 243.807 C 235.568 246.055,239.983 252.659,234.699 258.189 C 233.347 259.605,232.786 260.001,233.452 259.070 C 237.608 253.266,234.662 247.961,225.828 245.337 C 216.806 242.658,218.109 245.257,228.415 250.503 C 231.120 251.879,233.538 253.128,233.789 253.279 C 236.067 254.646,232.151 254.372,229.450 252.976 C 226.059 251.222,225.944 251.230,226.710 253.168 C 229.937 261.342,227.055 272.131,221.646 272.131 C 220.963 272.131,221.222 271.252,222.235 270.133 C 224.361 267.783,224.560 265.928,222.751 265.325 C 222.039 265.088,220.885 262.219,220.184 258.950 C 219.484 255.680,218.582 252.022,218.181 250.820 C 217.779 249.617,218.429 250.601,219.625 253.005 C 220.822 255.410,221.814 258.975,221.829 260.929 C 221.859 264.563,223.197 265.329,226.199 263.430 C 227.578 262.558,227.540 262.310,225.932 261.693 C 224.900 261.297,224.361 260.480,224.733 259.878 C 225.149 259.205,225.772 259.354,226.349 260.266 C 227.136 261.507,227.292 261.502,227.306 260.238 C 227.315 259.408,226.304 257.081,225.060 255.067 C 223.815 253.053,222.999 251.028,223.246 250.566 C 223.493 250.105,221.132 247.514,217.998 244.809 C 211.946 239.584,202.156 226.111,202.230 223.107 C 202.256 222.014,202.962 222.595,204.033 224.590 C 205.001 226.393,207.958 230.693,210.605 234.146 M156.220 237.157 C 155.533 238.328,155.245 237.704,155.212 234.973 C 155.188 232.869,154.935 229.180,154.652 226.776 C 154.330 224.048,154.709 224.869,155.659 228.960 C 156.586 232.951,156.805 236.158,156.220 237.157 M161.202 233.880 C 160.218 238.362,159.335 237.479,160.246 232.923 C 160.630 231.003,161.172 229.660,161.450 229.939 C 161.729 230.217,161.617 231.991,161.202 233.880 M133.372 239.071 C 132.953 241.325,129.871 249.809,126.524 257.923 C 116.216 282.910,109.290 300.754,109.290 302.325 C 109.290 303.150,108.895 303.825,108.413 303.825 C 107.930 303.825,106.643 306.308,105.551 309.343 C 104.460 312.378,103.343 314.637,103.070 314.363 C 102.796 314.089,108.698 298.451,116.186 279.610 C 123.673 260.770,130.413 243.388,131.163 240.984 C 133.443 233.679,134.551 232.719,133.372 239.071 M215.301 245.355 C 217.058 247.226,217.376 248.077,216.311 248.053 C 214.658 248.017,210.158 242.623,211.780 242.623 C 212.305 242.623,213.889 243.852,215.301 245.355 M133.326 255.207 C 132.804 261.209,131.851 267.350,131.210 268.852 C 130.075 271.511,130.058 271.496,130.552 268.306 C 130.831 266.503,131.350 262.077,131.706 258.470 C 132.613 249.266,133.487 243.506,133.913 243.931 C 134.113 244.131,133.848 249.205,133.326 255.207 M207.970 247.012 C 210.851 249.278,213.667 255.799,212.805 258.206 C 212.537 258.952,211.766 257.564,211.090 255.120 C 209.896 250.804,206.618 246.801,203.279 245.581 C 201.901 245.077,201.921 244.968,203.405 244.895 C 204.375 244.848,206.430 245.800,207.970 247.012 M368.852 252.956 C 363.556 257.273,360.186 258.279,354.387 257.274 C 347.813 256.135,345.428 256.426,342.948 258.671 C 341.860 259.655,340.685 260.175,340.336 259.826 C 338.916 258.406,345.756 255.324,349.587 255.656 C 359.245 256.494,361.563 256.155,365.732 253.295 C 371.055 249.643,373.203 249.410,368.852 252.956 M215.103 259.675 C 213.204 262.318,211.199 264.481,210.647 264.481 C 210.094 264.481,210.915 262.968,212.471 261.118 C 214.027 259.269,215.301 256.825,215.301 255.688 C 215.301 254.306,215.840 253.828,216.927 254.245 C 218.234 254.746,217.875 255.814,215.103 259.675 M144.654 260.664 C 144.380 261.378,142.582 263.095,140.657 264.480 L 137.158 266.997 140.179 263.751 C 141.841 261.965,142.898 260.202,142.529 259.833 C 142.160 259.464,142.214 258.585,142.650 257.880 C 143.651 256.260,145.408 258.700,144.654 260.664 M247.276 260.347 C 254.297 264.090,256.395 266.697,260.248 276.471 C 263.198 283.953,267.480 288.631,274.970 292.553 C 281.576 296.011,282.051 297.150,275.801 294.545 L 271.585 292.788 276.503 297.978 C 281.547 303.302,279.805 302.655,273.540 296.878 C 271.610 295.099,270.333 293.153,270.703 292.554 C 271.073 291.955,270.883 291.770,270.281 292.142 C 268.311 293.360,262.935 286.411,257.923 276.170 C 252.939 265.984,252.244 265.253,241.915 259.338 C 235.313 255.558,239.914 256.424,247.276 260.347 M318.539 261.657 C 317.587 263.109,315.978 264.616,314.964 265.005 C 313.881 265.421,314.444 264.330,316.327 262.365 C 320.191 258.331,320.858 258.118,318.539 261.657 M338.746 262.905 C 337.968 263.841,335.080 265.872,332.328 267.419 C 320.312 274.169,313.714 279.274,312.113 283.060 C 311.223 285.164,310.431 286.148,310.353 285.246 C 310.274 284.344,309.026 286.066,307.578 289.071 C 306.131 292.077,304.940 293.901,304.932 293.126 C 304.912 291.072,308.846 283.696,310.849 282.034 C 312.893 280.337,313.154 278.269,311.202 279.237 C 308.642 280.507,314.190 276.394,321.576 271.548 C 325.629 268.888,330.142 266.412,331.605 266.045 C 333.068 265.678,335.115 264.438,336.155 263.290 C 338.405 260.803,340.783 260.449,338.746 262.905 M143.844 266.536 C 141.566 268.868,136.054 272.759,131.595 275.182 C 121.656 280.584,121.871 279.492,131.947 273.388 C 136.016 270.924,141.066 267.433,143.169 265.631 C 148.474 261.087,148.773 261.488,143.844 266.536 M252.661 272.404 C 254.954 274.658,256.831 276.993,256.831 277.592 C 256.831 278.191,254.495 276.321,251.639 273.437 C 248.784 270.553,245.219 267.336,243.716 266.289 C 241.272 264.587,241.380 264.593,244.737 266.346 C 246.802 267.424,250.367 270.150,252.661 272.404 M180.498 270.637 C 177.285 271.509,170.715 274.512,165.897 277.312 C 156.269 282.906,157.000 281.856,148.572 302.186 C 140.571 321.486,135.825 330.463,131.304 334.848 C 125.853 340.135,125.952 337.359,131.431 331.295 C 136.892 325.251,155.909 284.110,153.214 284.170 C 151.078 284.217,149.559 286.645,146.538 294.838 C 142.240 306.495,140.065 310.619,138.669 309.757 C 137.973 309.327,138.385 308.160,139.741 306.715 C 140.951 305.426,143.355 300.375,145.083 295.490 L 148.225 286.607 142.095 285.967 C 138.221 285.562,133.772 285.910,130.005 286.912 C 121.798 289.096,120.669 288.787,127.716 286.285 C 131.521 284.933,136.168 284.252,140.977 284.341 C 148.962 284.488,155.191 282.074,168.156 273.805 C 173.959 270.104,176.703 269.240,183.060 269.116 C 185.409 269.069,184.682 269.501,180.498 270.637 M234.255 273.648 C 237.501 275.084,240.561 276.928,241.053 277.747 C 241.763 278.924,241.621 278.970,240.374 277.965 C 239.507 277.267,236.093 275.463,232.787 273.956 C 229.481 272.450,227.131 271.177,227.564 271.128 C 227.998 271.079,231.009 272.213,234.255 273.648 M251.472 280.011 C 252.616 282.241,253.530 284.454,253.504 284.929 C 253.477 285.404,252.438 283.825,251.195 281.421 C 249.952 279.016,247.637 275.576,246.052 273.774 L 243.169 270.500 246.281 273.228 C 247.993 274.729,250.329 277.781,251.472 280.011 M159.513 273.830 C 158.738 274.765,157.079 276.038,155.828 276.659 C 154.464 277.337,154.865 276.672,156.831 275.000 C 160.593 271.798,161.544 271.384,159.513 273.830 M142.077 274.835 C 142.077 275.120,140.601 276.117,138.798 277.049 C 134.688 279.175,134.439 278.251,138.525 276.035 C 141.959 274.172,142.077 274.132,142.077 274.835 M264.344 292.331 C 266.022 294.378,266.010 294.412,264.136 292.957 C 262.147 291.413,258.978 286.121,259.060 284.481 C 259.084 284.000,259.883 285.082,260.836 286.885 C 261.789 288.689,263.368 291.139,264.344 292.331 M308.318 294.775 C 306.669 298.958,306.385 301.183,307.095 304.334 C 308.523 310.666,312.722 321.612,314.656 324.044 C 316.375 326.206,316.368 326.208,313.956 324.167 C 307.502 318.706,303.460 301.073,307.104 294.275 C 308.306 292.032,309.328 289.451,309.376 288.541 C 309.423 287.630,309.688 287.434,309.964 288.104 C 310.241 288.775,309.500 291.776,308.318 294.775 M129.006 301.515 C 126.600 308.232,124.101 314.719,123.452 315.931 C 122.804 317.143,121.831 320.202,121.290 322.728 L 120.307 327.322 120.590 323.224 C 120.745 320.970,120.519 319.126,120.087 319.126 C 119.655 319.126,122.282 312.228,125.924 303.796 C 133.801 285.565,135.052 284.639,129.006 301.515 M262.529 307.657 C 266.451 311.064,266.679 311.457,263.932 310.073 C 259.266 307.723,252.287 298.088,252.510 294.306 C 252.538 293.831,253.750 295.725,255.203 298.515 C 256.656 301.305,259.952 305.418,262.529 307.657 M133.607 311.106 C 132.855 311.410,132.240 312.033,132.240 312.492 C 132.240 314.071,136.288 317.992,137.093 317.193 C 138.105 316.190,135.595 322.031,133.445 325.683 C 129.869 331.759,124.590 335.668,124.590 332.240 C 124.590 331.639,124.959 331.267,125.410 331.412 C 127.123 331.966,130.924 328.236,133.198 323.770 C 135.469 319.311,135.481 319.126,133.489 319.126 C 130.335 319.126,128.405 316.315,130.846 315.278 C 132.535 314.560,132.433 314.350,130.055 313.659 L 127.322 312.864 130.055 311.693 C 131.557 311.048,133.279 310.529,133.880 310.538 C 134.481 310.547,134.358 310.803,133.607 311.106 M99.045 317.521 C 92.243 335.248,95.470 345.652,105.815 339.350 L 108.743 337.566 105.677 340.368 C 100.089 345.473,94.051 343.434,93.954 336.411 C 93.920 333.911,93.899 333.906,92.202 336.066 L 90.484 338.251 91.079 336.066 C 91.406 334.863,92.244 331.675,92.942 328.981 C 94.814 321.750,97.355 315.847,98.596 315.847 C 99.196 315.847,99.398 316.601,99.045 317.521 M101.670 319.592 C 99.292 325.847,101.039 330.196,106.045 330.478 C 110.214 330.713,108.714 332.789,104.135 333.121 C 99.926 333.426,99.462 333.200,98.789 330.519 C 98.091 327.738,101.196 315.039,102.302 316.146 C 102.572 316.416,102.288 317.966,101.670 319.592 M333.333 334.831 C 333.333 335.396,332.434 335.044,331.335 334.049 C 330.235 333.054,328.760 332.240,328.056 332.240 C 327.352 332.240,326.776 331.721,326.776 331.086 C 326.776 330.449,328.245 330.799,330.055 331.868 C 331.858 332.933,333.333 334.267,333.333 334.831 M110.646 339.380 C 104.939 349.579,90.525 352.770,90.819 343.770 C 90.919 340.718,90.990 340.657,91.660 343.050 C 93.538 349.754,99.747 349.121,107.164 341.468 C 111.141 337.365,112.094 336.793,110.646 339.380 M112.091 346.372 C 109.797 348.907,103.005 349.300,105.099 346.777 C 105.838 345.886,106.635 345.689,107.015 346.304 C 107.410 346.943,108.733 346.765,110.390 345.848 C 114.065 343.814,114.332 343.896,112.091 346.372"/>
</svg>