<svg version="1.1" viewBox="14.6 5.9 382.8 311.3" xmlns="http://www.w3.org/2000/svg">
<path fill="#C9A84C" fill-rule="evenodd" d="M238.231 18.767 C 247.574 22.263,253.893 32.211,251.441 39.562 C 250.884 41.231,250.516 44.091,250.623 45.919 C 250.774 48.507,250.341 49.806,248.663 51.801 C 246.463 54.415,244.753 55.218,245.493 53.289 C 245.933 52.141,242.707 50.304,240.250 50.304 C 236.834 50.304,235.758 53.088,236.878 59.030 C 238.997 70.267,234.629 83.514,225.994 92.040 C 221.945 96.037,220.070 98.872,215.972 107.186 C 213.200 112.812,210.206 118.072,209.320 118.874 C 206.996 120.977,207.326 119.711,210.457 114.508 C 211.969 111.995,214.389 107.566,215.835 104.665 L 218.463 99.391 210.854 106.733 C 206.669 110.771,202.059 114.774,200.609 115.630 C 198.045 117.142,197.374 118.776,198.593 120.537 C 199.577 121.959,203.145 121.477,204.717 119.708 C 205.527 118.798,206.350 118.418,206.547 118.864 C 212.166 131.632,218.465 134.123,230.481 128.328 C 243.447 122.076,253.319 114.443,257.708 107.275 C 262.684 99.148,264.036 97.676,269.232 94.724 C 273.752 92.157,276.651 88.517,278.271 83.378 C 280.366 76.731,282.795 78.908,281.290 86.085 C 279.889 92.773,278.536 94.768,272.564 98.957 C 268.763 101.623,267.167 103.430,265.240 107.247 L 262.777 112.127 270.739 111.593 C 285.623 110.594,290.535 109.659,296.492 106.687 C 299.588 105.142,302.282 104.040,302.479 104.237 C 304.161 105.919,293.628 112.595,288.283 113.236 L 285.193 113.606 288.438 112.400 C 291.112 111.406,291.255 111.258,289.249 111.557 C 287.911 111.758,282.262 112.313,276.696 112.792 C 271.130 113.271,265.166 113.980,263.441 114.368 C 260.367 115.058,260.316 115.032,260.822 113.014 C 262.258 107.292,266.432 100.583,269.773 98.625 C 273.774 96.280,278.296 92.212,278.296 90.958 C 278.296 90.470,276.562 91.396,274.442 93.015 C 272.323 94.633,269.368 96.540,267.876 97.252 C 265.888 98.201,263.882 100.632,260.368 106.352 C 255.210 114.744,254.820 115.180,248.682 119.427 C 236.638 127.759,233.908 129.401,228.761 131.403 L 223.135 133.592 225.236 135.418 C 227.260 137.178,227.361 137.997,225.971 141.373 C 225.429 142.690,225.587 142.704,228.287 141.576 C 234.935 138.798,244.731 140.358,256.561 146.080 C 263.937 149.647,265.722 149.860,272.817 148.021 C 275.752 147.261,279.050 146.949,281.048 147.244 C 283.775 147.646,284.106 147.565,282.870 146.799 C 281.812 146.143,278.643 146.031,272.316 146.426 L 263.274 146.991 260.035 144.379 C 256.836 141.800,246.869 136.801,242.977 135.824 C 240.063 135.092,240.262 134.847,248.997 128.404 C 259.769 120.460,262.484 119.374,274.026 118.390 C 287.969 117.203,290.623 116.483,299.246 111.557 C 309.053 105.955,311.916 105.670,302.698 111.213 C 290.755 118.396,290.589 118.452,277.446 119.653 C 263.275 120.948,259.966 122.163,250.928 129.389 C 244.124 134.830,244.112 134.675,251.533 137.586 C 254.658 138.812,258.685 141.074,260.482 142.612 C 264.014 145.636,264.419 145.705,273.253 144.792 C 280.482 144.046,288.061 145.946,290.068 149.009 C 291.546 151.264,291.535 151.266,283.736 149.653 C 278.229 148.514,277.178 148.514,272.782 149.653 C 265.529 151.532,263.412 151.252,255.178 147.326 C 240.882 140.510,224.874 140.147,221.441 146.562 C 220.877 147.616,219.959 148.479,219.402 148.479 C 218.844 148.479,217.811 148.700,217.105 148.971 C 216.399 149.242,215.822 149.084,215.822 148.620 C 215.822 148.156,216.642 147.516,217.644 147.198 C 220.978 146.140,223.205 139.080,220.694 137.528 C 220.250 137.254,219.507 136.319,219.043 135.452 C 217.651 132.851,219.628 133.606,221.206 136.278 C 222.290 138.112,222.877 138.472,223.686 137.801 C 224.424 137.188,224.746 137.183,224.746 137.784 C 224.746 138.258,224.381 138.872,223.935 139.148 C 223.489 139.424,223.124 140.428,223.124 141.379 C 223.124 143.075,223.148 143.078,224.315 141.534 C 226.992 137.995,224.713 135.202,216.483 131.935 C 212.817 130.480,211.671 129.464,208.845 125.164 C 205.808 120.544,204.462 119.605,204.462 122.106 C 204.462 122.624,205.626 124.805,207.048 126.952 L 209.634 130.855 207.859 132.292 C 205.506 134.198,205.535 135.651,207.911 134.812 C 211.784 133.445,214.994 136.575,215.023 141.745 C 215.032 143.509,215.210 143.745,215.822 142.799 C 216.983 141.002,216.799 137.650,215.442 135.855 C 213.941 133.872,213.883 132.993,215.288 133.532 C 218.573 134.792,220.987 143.303,218.616 145.270 C 217.494 146.202,217.463 146.079,218.343 144.149 C 218.886 142.957,219.089 141.739,218.793 141.443 C 217.992 140.643,217.597 141.323,217.303 144.006 C 217.040 146.405,209.702 150.101,205.202 150.101 C 204.423 150.101,203.090 151.057,202.239 152.226 C 200.911 154.048,200.468 154.211,199.123 153.371 C 197.837 152.568,195.671 152.880,187.098 155.100 L 176.640 157.809 172.466 169.574 C 166.405 186.655,160.055 194.016,155.398 189.359 C 154.191 188.152,153.972 188.152,152.639 189.359 C 149.423 192.269,145.232 190.507,145.235 186.247 C 145.238 183.471,148.805 169.562,150.168 167.015 C 151.259 164.977,150.277 165.212,140.821 169.260 C 128.714 174.442,119.755 181.996,103.597 200.646 C 101.002 203.641,95.343 208.959,91.021 212.462 C 75.131 225.345,73.696 227.740,72.972 242.596 C 72.615 249.910,71.881 255.437,70.762 259.229 C 69.070 264.966,67.961 271.805,68.722 271.805 C 68.949 271.805,75.760 268.549,83.858 264.570 C 91.955 260.591,101.726 256.237,105.572 254.895 C 109.417 253.553,116.716 250.372,121.792 247.826 C 135.076 241.164,135.738 240.997,150.860 240.484 C 164.049 240.038,175.699 240.998,178.499 242.763 C 179.526 243.411,179.508 243.466,178.381 243.121 C 177.646 242.896,172.170 242.525,166.210 242.296 C 160.251 242.067,156.288 242.052,157.404 242.262 C 164.528 243.606,171.277 245.221,170.984 245.513 C 170.796 245.702,167.572 245.269,163.820 244.550 C 160.068 243.832,152.252 243.190,146.450 243.123 L 135.903 243.002 122.921 249.205 C 115.781 252.616,106.836 256.507,103.043 257.852 C 77.237 266.996,57.106 279.458,51.031 290.049 C 48.008 295.319,48.025 294.099,51.064 287.743 C 53.678 282.274,56.936 278.730,62.980 274.781 C 66.911 272.212,66.940 272.159,67.428 266.929 C 67.698 264.033,68.690 259.429,69.632 256.698 C 70.999 252.736,71.327 249.949,71.255 242.905 C 71.112 229.006,73.976 223.691,87.434 212.883 C 96.740 205.409,101.830 200.401,111.037 189.658 C 126.894 171.158,140.973 164.492,188.641 152.915 C 200.434 150.051,200.385 150.102,197.819 143.408 C 196.523 140.028,195.777 140.706,195.368 145.638 C 194.764 152.928,191.481 152.502,191.481 145.134 C 191.481 140.507,191.695 140.565,182.888 142.820 C 179.359 143.724,169.535 145.587,161.058 146.961 C 138.336 150.643,128.561 153.784,122.615 159.317 L 119.874 161.866 121.513 158.621 C 122.414 156.836,123.780 152.819,124.548 149.696 C 127.002 139.715,126.990 140.365,124.728 140.365 C 121.677 140.365,119.708 142.602,117.297 148.805 C 115.037 154.622,112.552 158.665,107.583 164.612 C 105.978 166.534,104.861 168.422,105.100 168.809 C 105.650 169.700,101.973 177.030,100.265 178.448 C 99.560 179.032,100.262 177.388,101.824 174.793 C 105.351 168.937,105.422 167.445,101.995 171.237 C 100.563 172.822,94.462 177.781,88.438 182.257 C 75.277 192.037,72.826 194.470,69.748 200.811 C 67.177 206.106,66.928 206.303,68.138 202.084 C 68.728 200.026,68.624 198.398,67.733 195.773 C 67.072 193.827,66.525 190.696,66.517 188.815 C 66.488 181.689,64.200 174.124,58.853 163.470 C 53.036 151.879,53.010 151.748,54.773 142.394 C 56.715 132.094,59.957 127.866,72.426 119.374 C 76.843 116.366,78.170 114.590,80.416 108.678 C 82.736 102.571,81.704 102.836,78.707 109.117 C 76.525 113.690,75.437 114.950,71.536 117.429 C 69.007 119.036,65.477 121.517,63.692 122.943 C 60.009 125.883,55.984 128.547,55.984 128.044 C 55.984 127.429,66.877 118.755,70.551 116.445 C 75.322 113.444,76.611 111.799,79.292 105.284 C 82.617 97.203,84.941 97.404,82.677 105.575 C 80.126 114.780,78.929 116.424,70.183 122.724 C 61.653 128.868,57.791 133.710,56.759 139.554 C 54.933 149.903,54.929 153.506,56.740 156.592 C 64.487 169.795,66.226 174.578,67.746 186.853 C 69.140 198.114,69.136 198.104,71.118 194.693 C 72.582 192.173,81.989 184.340,92.690 176.730 C 102.075 170.056,113.405 155.529,116.861 145.739 C 118.867 140.059,120.463 138.742,125.345 138.742 C 128.975 138.742,129.223 139.369,127.465 144.093 C 126.650 146.282,125.767 149.480,125.504 151.201 C 124.956 154.768,124.123 154.779,134.198 151.081 L 140.608 148.729 142.987 142.722 C 144.295 139.417,147.730 131.311,150.618 124.707 C 154.031 116.905,156.260 110.511,156.982 106.451 C 164.273 65.434,174.000 47.703,196.241 34.888 C 201.276 31.988,207.467 27.949,210.000 25.913 C 221.670 16.532,227.985 14.934,238.231 18.767 M220.441 20.204 C 218.776 21.053,214.957 23.746,211.953 26.189 C 208.949 28.632,204.848 31.456,202.840 32.463 C 180.160 43.840,171.816 54.944,163.484 84.840 C 157.594 105.976,157.588 110.654,163.469 96.550 C 164.678 93.650,166.022 90.913,166.456 90.467 C 166.889 90.020,165.976 92.667,164.427 96.349 C 162.878 100.030,161.861 103.043,162.166 103.043 C 164.035 103.043,166.472 99.877,168.413 94.930 C 169.641 91.800,170.795 89.389,170.978 89.572 C 171.161 89.755,170.372 92.250,169.225 95.117 C 165.557 104.286,168.963 102.641,173.813 92.901 C 175.590 89.331,176.801 87.480,176.502 88.789 C 176.204 90.098,175.256 92.626,174.395 94.407 C 173.535 96.188,173.000 97.814,173.207 98.021 C 174.045 98.860,178.405 93.072,180.123 88.841 C 182.443 83.124,183.185 83.520,180.987 89.304 C 180.086 91.675,179.453 93.720,179.581 93.848 C 180.543 94.809,183.600 90.724,185.452 86.005 C 186.680 82.875,187.824 80.454,187.995 80.625 C 188.165 80.795,187.559 82.897,186.648 85.295 C 184.027 92.192,185.126 91.962,190.057 84.584 C 207.457 58.549,207.984 37.102,191.049 44.178 C 187.613 45.613,187.342 45.129,190.629 43.429 C 194.469 41.443,200.567 41.800,202.765 44.139 C 209.173 50.961,202.355 69.987,184.853 94.118 C 183.396 96.126,180.823 99.670,179.135 101.994 C 175.879 106.474,175.514 108.535,176.589 116.376 C 176.933 118.889,177.346 119.832,177.794 119.126 C 178.258 118.393,178.478 118.745,178.487 120.236 C 178.493 121.437,178.176 122.619,177.781 122.863 C 176.779 123.482,175.254 116.936,175.254 112.014 C 175.254 100.631,170.089 112.110,169.703 124.350 C 169.215 139.835,170.445 141.084,178.559 133.345 C 183.739 128.404,184.280 127.383,181.719 127.383 C 179.825 127.383,179.040 125.892,179.507 123.183 C 179.827 121.328,179.847 121.334,180.768 123.529 C 182.102 126.708,184.395 126.340,187.473 122.454 C 189.401 120.019,190.267 119.429,190.754 120.218 C 191.752 121.833,193.195 119.441,195.895 111.699 C 197.167 108.053,198.545 104.706,198.958 104.260 C 199.998 103.136,198.922 107.248,196.678 112.975 C 194.460 118.635,194.583 118.653,201.228 113.662 C 218.719 100.522,229.191 83.355,233.303 61.075 C 234.743 53.276,235.987 50.693,238.960 49.339 L 240.917 48.447 239.268 46.131 L 237.619 43.815 239.905 42.891 C 241.162 42.383,244.016 41.536,246.247 41.008 C 249.855 40.155,250.335 39.787,250.579 37.686 C 252.054 25.007,232.860 13.873,220.441 20.204 M234.647 27.649 C 235.672 28.129,237.709 30.137,239.174 32.111 C 240.638 34.085,242.373 35.700,243.028 35.700 C 243.683 35.700,244.219 36.090,244.219 36.566 C 244.219 37.042,243.550 37.220,242.732 36.960 C 241.812 36.668,240.683 37.110,239.767 38.122 C 237.168 40.994,231.237 39.060,231.237 35.340 C 231.237 34.134,234.214 31.643,235.655 31.643 C 236.101 31.643,235.655 32.211,234.663 32.906 C 232.442 34.462,232.329 36.981,234.429 38.105 C 236.996 39.479,238.050 39.060,236.066 37.454 C 234.030 35.805,234.490 34.077,236.965 34.077 C 239.320 34.077,238.893 32.963,235.292 29.709 C 231.817 26.569,231.726 26.279,234.647 27.649 M244.316 42.671 L 241.574 43.824 243.679 45.929 C 244.837 47.087,246.005 48.727,246.273 49.575 C 247.329 52.899,249.087 50.587,249.087 45.875 C 249.087 42.159,247.718 41.240,244.316 42.671 M210.751 42.750 C 209.970 42.954,208.692 42.954,207.911 42.750 C 207.130 42.546,207.769 42.379,209.331 42.379 C 210.892 42.379,211.531 42.546,210.751 42.750 M235.267 42.799 C 235.237 43.492,225.473 48.055,225.010 47.593 C 224.183 46.765,226.089 44.319,228.316 43.349 C 231.051 42.159,235.310 41.822,235.267 42.799 M240.166 45.259 C 240.169 45.579,241.049 46.937,242.122 48.276 C 244.404 51.122,245.780 50.580,243.830 47.603 C 242.529 45.618,240.158 44.101,240.166 45.259 M211.878 51.954 C 210.824 52.832,209.394 53.550,208.700 53.550 C 207.139 53.550,207.491 53.178,210.569 51.572 C 213.784 49.896,214.202 50.018,211.878 51.954 M219.878 53.955 C 219.323 54.625,218.503 55.172,218.057 55.172 C 217.604 55.172,217.692 54.634,218.256 53.955 C 218.811 53.286,219.631 52.738,220.077 52.738 C 220.530 52.738,220.442 53.276,219.878 53.955 M224.746 58.328 C 224.746 58.725,223.998 59.911,223.084 60.965 L 221.421 62.880 222.699 60.243 C 223.956 57.649,224.746 56.910,224.746 58.328 M209.774 61.485 L 207.464 63.692 209.297 61.008 C 210.306 59.532,211.345 58.539,211.607 58.801 C 211.870 59.064,211.045 60.271,209.774 61.485 M234.483 60.699 C 234.483 65.876,227.059 87.534,224.070 91.075 C 223.411 91.856,223.233 92.495,223.674 92.495 C 229.451 92.495,240.056 61.766,235.294 58.824 C 234.824 58.533,234.483 59.321,234.483 60.699 M186.950 64.965 C 187.679 64.361,188.457 64.049,188.680 64.272 C 188.903 64.495,188.547 65.125,187.888 65.671 C 186.363 66.937,183.367 66.024,183.367 64.293 C 183.367 63.186,183.548 63.223,184.496 64.520 C 185.463 65.843,185.816 65.907,186.950 64.965 M195.057 65.456 C 195.871 65.143,196.231 65.255,195.937 65.729 C 195.464 66.496,192.292 66.898,192.292 66.192 C 192.292 66.005,192.060 65.184,191.777 64.367 C 191.303 62.997,191.357 63.002,192.471 64.432 C 193.233 65.409,194.190 65.788,195.057 65.456 M214.910 66.832 C 214.376 68.006,213.611 68.966,213.211 68.966 C 212.811 68.966,213.125 67.881,213.907 66.556 C 215.617 63.663,216.272 63.843,214.910 66.832 M227.941 70.073 C 227.170 70.784,227.061 70.655,227.467 69.508 C 227.756 68.690,228.042 67.412,228.102 66.668 C 228.163 65.923,228.377 66.178,228.577 67.234 C 228.777 68.289,228.491 69.567,227.941 70.073 M222.560 70.172 C 221.817 71.729,221.044 72.836,220.841 72.632 C 220.284 72.076,222.404 67.343,223.209 67.343 C 223.594 67.343,223.302 68.616,222.560 70.172 M189.047 70.529 C 189.047 70.942,189.686 71.448,190.467 71.652 C 191.587 71.944,191.519 72.043,190.148 72.117 C 189.191 72.169,188.199 71.663,187.942 70.994 C 187.685 70.325,187.829 69.777,188.261 69.777 C 188.693 69.777,189.047 70.115,189.047 70.529 M206.897 71.310 C 206.897 71.707,206.148 72.893,205.234 73.947 L 203.571 75.862 204.849 73.225 C 206.106 70.630,206.897 69.891,206.897 71.310 M186.608 75.222 C 188.708 74.673,188.687 75.158,186.561 76.296 C 184.819 77.228,182.556 76.183,182.556 74.446 C 182.556 73.992,183.090 74.078,183.768 74.641 C 184.435 75.195,185.713 75.456,186.608 75.222 M212.756 77.027 C 212.005 78.337,211.281 79.300,211.149 79.168 C 210.640 78.659,212.576 74.645,213.330 74.645 C 213.766 74.645,213.508 75.717,212.756 77.027 M223.939 79.908 C 222.720 83.115,222.105 81.973,223.263 78.652 C 223.789 77.142,224.350 76.297,224.510 76.775 C 224.669 77.253,224.412 78.663,223.939 79.908 M180.553 79.710 C 179.546 80.273,178.802 80.164,177.969 79.331 C 176.949 78.311,177.131 78.209,179.382 78.539 C 181.560 78.859,181.744 79.043,180.553 79.710 M173.795 81.517 C 175.226 81.085,175.445 81.179,174.739 81.925 C 173.528 83.202,170.215 82.683,169.708 81.136 C 169.371 80.106,169.511 80.085,170.620 81.000 C 171.417 81.658,172.660 81.861,173.795 81.517 M199.925 82.353 C 199.194 83.469,198.464 84.381,198.301 84.381 C 198.139 84.381,198.422 83.469,198.931 82.353 C 199.439 81.237,200.170 80.325,200.555 80.325 C 200.940 80.325,200.656 81.237,199.925 82.353 M216.266 85.929 C 214.678 89.000,213.941 89.221,215.055 86.293 C 216.132 83.458,216.713 82.568,217.180 83.035 C 217.391 83.246,216.980 84.548,216.266 85.929 M193.470 91.759 C 192.756 93.139,191.967 94.063,191.717 93.813 C 191.250 93.346,193.623 89.249,194.360 89.249 C 194.584 89.249,194.184 90.379,193.470 91.759 M200.907 92.220 C 200.221 93.487,199.645 94.043,199.627 93.456 C 199.584 92.055,201.233 88.995,201.752 89.514 C 201.974 89.736,201.594 90.954,200.907 92.220 M209.578 93.702 C 208.836 95.258,208.062 96.365,207.859 96.162 C 207.303 95.606,209.422 90.872,210.227 90.872 C 210.612 90.872,210.320 92.146,209.578 93.702 M218.238 91.481 C 218.228 91.815,217.475 93.002,216.566 94.118 L 214.912 96.146 216.199 93.509 C 217.422 91.003,218.277 90.153,218.238 91.481 M181.360 94.346 C 180.033 95.336,176.123 97.618,172.671 99.418 C 165.318 103.251,150.056 123.399,151.038 127.980 C 151.111 128.321,149.094 132.941,146.557 138.247 C 144.019 143.552,142.094 148.044,142.279 148.228 C 142.624 148.574,148.179 141.442,159.144 126.572 C 162.600 121.886,167.182 115.685,169.326 112.790 C 173.980 106.509,174.092 106.288,172.607 106.288 C 171.970 106.288,169.657 108.739,167.468 111.735 C 153.685 130.600,149.645 135.901,150.598 133.874 C 154.010 126.618,171.012 105.239,172.965 105.750 C 174.395 106.124,178.483 101.599,182.923 94.726 C 184.652 92.050,184.490 92.011,181.360 94.346 M194.281 100.684 C 193.568 102.064,192.814 103.024,192.608 102.817 C 192.055 102.265,194.055 98.174,194.877 98.174 C 195.263 98.174,194.995 99.304,194.281 100.684 M208.196 101.548 C 206.723 103.652,206.448 102.962,207.774 100.486 C 208.256 99.584,208.841 99.037,209.073 99.270 C 209.306 99.502,208.911 100.527,208.196 101.548 M186.093 103.018 C 185.310 104.343,184.545 105.303,184.394 105.151 C 183.902 104.660,186.039 100.609,186.789 100.609 C 187.189 100.609,186.875 101.693,186.093 103.018 M160.814 105.495 C 159.239 106.453,158.215 107.736,158.215 108.750 C 158.215 109.672,157.640 111.537,156.938 112.895 C 154.634 117.351,156.169 116.051,160.108 110.210 C 164.445 103.779,164.526 103.237,160.814 105.495 M160.535 116.316 C 155.971 122.833,152.062 127.992,151.850 127.779 C 151.637 127.567,152.026 126.752,152.714 125.968 C 153.402 125.185,156.071 121.440,158.646 117.647 C 167.283 104.921,168.127 103.760,168.482 104.114 C 168.676 104.308,165.100 109.799,160.535 116.316 M167.564 117.241 C 166.885 118.357,165.836 120.091,165.234 121.095 C 164.632 122.099,163.888 124.277,163.580 125.935 C 163.272 127.593,161.815 132.746,160.343 137.387 C 158.097 144.463,157.880 145.768,158.998 145.476 C 160.344 145.124,164.997 132.309,167.998 120.690 C 169.534 114.743,169.457 114.134,167.564 117.241 M194.003 120.173 C 191.928 122.106,192.068 123.576,194.901 129.602 C 197.129 134.342,205.795 138.882,204.712 134.742 C 204.446 133.725,204.900 132.803,206.005 132.113 C 208.176 130.758,208.145 130.282,205.680 127.050 C 204.564 125.587,203.651 123.969,203.651 123.453 C 203.651 122.937,203.286 122.515,202.840 122.515 C 202.394 122.515,202.017 123.154,202.004 123.935 C 201.980 125.277,201.933 125.276,201.142 123.918 C 200.682 123.128,199.944 122.705,199.502 122.978 C 199.060 123.251,198.272 122.346,197.751 120.967 C 196.628 117.992,196.397 117.943,194.003 120.173 M188.634 122.526 C 188.355 122.978,189.064 125.396,190.209 127.898 C 192.712 133.364,192.773 134.475,190.696 136.686 C 189.106 138.378,189.107 138.390,190.899 139.505 C 192.543 140.529,192.602 140.510,191.584 139.278 C 190.632 138.126,190.648 137.931,191.700 137.931 C 193.280 137.931,193.865 139.517,193.048 141.582 C 192.162 143.822,192.139 148.288,193.011 148.827 C 193.917 149.387,194.701 146.544,194.715 142.644 C 194.736 136.887,198.818 139.932,200.088 146.653 C 200.633 149.538,201.561 150.055,202.378 147.926 C 202.674 147.155,202.023 144.789,200.880 142.479 C 198.393 137.453,198.465 137.376,203.272 139.932 C 205.409 141.068,207.273 141.882,207.414 141.741 C 208.315 140.840,204.629 137.847,201.227 136.717 C 196.491 135.144,194.939 133.403,192.262 126.665 C 190.306 121.740,189.611 120.946,188.634 122.526 M54.361 126.547 C 54.361 126.979,53.813 127.122,53.144 126.865 C 51.747 126.329,51.690 126.651,51.901 133.879 C 51.985 136.782,51.478 141.643,50.774 144.680 C 48.751 153.402,49.035 155.397,53.636 164.778 C 59.543 176.822,59.841 177.703,56.970 174.629 C 55.663 173.231,53.111 171.739,51.066 171.180 C 49.085 170.638,46.552 169.935,45.436 169.618 C 44.320 169.300,42.197 167.427,40.717 165.454 C 33.365 155.653,29.148 151.730,25.963 151.730 C 25.294 151.730,25.842 152.410,27.181 153.242 C 30.560 155.341,32.869 157.999,37.656 165.303 C 41.601 171.322,42.036 171.703,47.426 173.857 C 58.311 178.207,59.624 180.880,58.839 197.103 C 57.936 215.798,50.515 226.464,43.378 219.327 C 42.392 218.341,41.666 218.189,40.739 218.774 C 37.794 220.632,37.745 221.989,40.415 227.782 C 43.394 234.246,43.690 238.451,41.423 242.119 C 40.555 243.524,39.439 247.218,38.942 250.329 C 37.697 258.127,30.708 273.348,26.129 278.230 L 22.643 281.947 25.388 277.890 C 30.492 270.347,36.384 257.168,37.324 251.193 C 37.809 248.112,39.102 243.695,40.198 241.378 C 42.738 236.009,42.736 235.981,39.304 228.819 C 35.183 220.219,37.912 213.764,43.823 218.134 C 49.167 222.085,56.760 214.264,56.820 204.746 C 56.834 202.582,57.197 198.103,57.626 194.793 C 58.986 184.317,55.872 178.467,47.213 175.232 C 41.477 173.089,40.619 172.314,36.574 165.628 C 32.986 159.697,30.228 156.478,25.950 153.229 C 22.659 150.730,23.120 149.517,26.864 150.822 C 31.002 152.265,34.548 155.407,39.319 161.858 C 43.585 167.627,43.966 167.920,49.223 169.498 C 55.916 171.505,55.647 172.030,51.883 164.312 C 47.898 156.144,47.395 152.808,49.062 145.631 C 49.787 142.512,50.424 137.039,50.478 133.469 C 50.532 129.899,50.719 126.704,50.894 126.369 C 51.361 125.474,54.361 125.627,54.361 126.547 M160.032 127.373 C 159.478 128.260,155.898 133.043,152.075 138.002 C 148.252 142.961,145.286 147.180,145.484 147.377 C 145.834 147.727,155.794 146.326,156.202 145.870 C 156.599 145.424,162.272 127.404,162.272 126.587 C 162.272 125.237,161.112 125.644,160.032 127.373 M185.541 128.803 C 183.527 133.454,180.944 140.647,181.198 140.900 C 181.762 141.465,187.424 140.066,187.424 139.362 C 187.424 138.927,188.332 137.492,189.442 136.172 C 191.399 133.847,191.421 133.682,190.180 130.781 C 189.476 129.136,188.711 127.333,188.480 126.775 C 187.767 125.048,186.912 125.639,185.541 128.803 M164.908 134.716 C 161.927 144.385,161.758 145.604,163.491 144.939 C 164.162 144.682,168.083 143.886,172.204 143.171 C 176.326 142.456,179.707 141.806,179.718 141.726 C 179.742 141.546,182.610 133.085,183.204 131.440 C 183.446 130.771,181.646 132.092,179.203 134.377 C 171.501 141.583,169.627 141.175,168.356 132.018 L 167.544 126.166 164.908 134.716 M243.410 128.311 C 241.329 130.042,232.049 134.984,232.049 134.361 C 232.049 134.170,234.406 132.696,237.287 131.085 C 240.168 129.473,242.745 127.799,243.014 127.364 C 243.283 126.928,243.938 126.584,244.470 126.599 C 245.001 126.614,244.524 127.384,243.410 128.311 M207.640 136.537 C 206.471 137.435,206.482 137.736,207.761 139.842 C 208.828 141.598,208.995 142.764,208.452 144.656 C 207.545 147.818,207.889 148.125,210.927 146.867 C 213.176 145.936,213.387 145.518,213.387 142.015 C 213.387 136.748,210.698 134.185,207.640 136.537 M202.150 142.191 C 202.695 143.195,203.352 145.289,203.610 146.844 L 204.080 149.672 205.894 147.858 C 206.892 146.861,207.703 145.588,207.698 145.030 C 207.689 144.135,202.766 140.365,201.606 140.365 C 201.360 140.365,201.606 141.187,202.150 142.191 M188.235 149.405 C 185.416 150.548,174.298 153.334,172.819 153.267 C 172.150 153.236,175.254 152.194,179.716 150.951 C 188.035 148.633,191.839 147.942,188.235 149.405 M357.809 151.359 C 357.809 154.446,355.769 157.833,350.488 163.509 C 345.499 168.872,344.609 170.961,343.606 179.663 C 343.300 182.312,342.710 185.374,342.294 186.469 C 341.208 189.325,341.026 189.329,353.699 186.192 C 367.992 182.654,368.334 182.475,375.011 175.036 C 381.197 168.144,389.478 163.263,389.441 166.531 C 389.434 167.089,387.637 168.534,385.448 169.741 C 382.674 171.270,379.977 173.892,376.561 178.381 C 370.781 185.973,368.738 187.360,359.026 190.282 C 341.159 195.659,324.935 205.005,312.198 217.260 C 306.600 222.645,302.121 226.227,299.622 227.317 C 297.487 228.248,294.124 230.318,292.148 231.918 L 288.556 234.827 293.771 235.822 C 301.032 237.207,303.928 237.126,309.533 235.378 C 317.602 232.863,323.630 232.531,332.599 234.107 L 340.623 235.516 345.768 232.974 C 348.598 231.577,352.522 229.518,354.489 228.401 C 359.889 225.333,377.111 225.707,372.414 228.791 C 371.744 229.230,369.624 229.595,367.702 229.602 C 361.942 229.623,357.427 231.194,353.281 234.620 C 346.232 240.445,345.950 240.520,329.412 241.035 C 315.929 241.455,313.753 241.725,308.027 243.692 C 302.150 245.711,301.011 245.841,293.423 245.353 C 283.352 244.707,277.389 245.989,268.560 250.699 C 252.009 259.528,246.178 262.069,240.568 262.897 C 229.585 264.520,195.460 264.797,182.248 263.371 C 169.416 261.987,154.518 261.642,153.855 262.715 C 153.635 263.070,156.078 264.579,159.284 266.069 C 162.489 267.559,166.572 269.771,168.357 270.987 C 171.291 272.984,172.557 273.250,181.563 273.768 C 194.430 274.507,197.900 275.614,204.868 281.207 C 215.533 289.766,221.762 291.859,232.632 290.538 C 236.648 290.049,241.171 289.892,242.685 290.188 C 246.871 291.007,252.496 293.602,251.961 294.468 C 251.477 295.251,247.668 294.376,244.795 292.821 C 243.995 292.388,243.060 292.208,242.716 292.421 C 242.372 292.634,238.368 293.566,233.819 294.493 C 221.901 296.922,215.293 295.252,202.986 286.702 C 194.427 280.756,192.261 279.919,185.428 279.919 L 179.310 279.919 179.310 284.029 C 179.310 288.586,180.104 290.583,183.263 293.967 L 185.394 296.251 183.235 295.860 C 178.428 294.988,175.990 291.456,174.081 282.601 C 173.631 280.518,172.934 279.825,170.534 279.073 C 168.890 278.559,163.164 276.081,157.809 273.567 L 148.073 268.996 139.554 268.981 C 127.929 268.960,119.197 272.671,91.278 289.499 C 79.568 296.556,75.363 299.937,71.673 305.262 C 70.498 306.958,69.369 308.179,69.164 307.974 C 66.922 305.732,77.228 296.264,91.010 287.904 C 129.150 264.769,139.905 262.556,161.402 273.422 C 169.822 277.678,172.581 278.286,183.493 278.292 L 192.949 278.296 201.495 283.929 C 216.709 293.956,221.694 295.492,232.262 293.408 C 235.938 292.683,239.858 291.934,240.974 291.744 C 242.089 291.553,239.533 291.622,235.294 291.898 C 221.277 292.810,215.327 291.257,206.210 284.311 C 196.573 276.969,190.851 275.145,177.238 275.076 C 173.322 275.056,171.594 274.598,168.719 272.819 C 166.735 271.592,161.554 268.776,157.206 266.561 C 148.330 262.040,148.345 261.761,157.547 260.331 C 162.606 259.544,165.866 259.669,178.918 261.146 C 218.377 265.611,242.367 263.141,261.172 252.676 C 276.448 244.175,277.532 243.860,291.684 243.807 C 302.213 243.767,304.620 243.505,309.533 241.860 C 314.348 240.249,317.376 239.898,329.412 239.557 C 344.805 239.121,346.725 238.637,352.310 233.785 C 356.274 230.342,358.556 229.313,363.489 228.745 L 367.951 228.230 363.071 228.111 C 359.483 228.023,357.441 228.426,355.363 229.633 C 353.808 230.535,349.917 232.570,346.717 234.155 L 340.898 237.037 332.239 235.679 C 322.847 234.206,319.599 234.407,309.965 237.057 C 303.672 238.788,302.656 238.766,290.958 236.650 L 285.365 235.638 289.336 232.135 C 291.519 230.209,295.497 227.528,298.174 226.178 C 301.253 224.626,306.041 220.855,311.202 215.919 C 322.961 204.670,339.245 195.257,356.998 189.445 C 369.478 185.360,369.949 185.077,374.846 178.731 C 377.183 175.703,380.239 172.198,381.637 170.942 C 383.150 169.582,383.510 168.982,382.527 169.458 C 381.618 169.897,378.237 173.178,375.013 176.749 C 368.456 184.010,366.434 184.994,351.318 188.277 C 347.079 189.197,342.757 190.507,341.715 191.186 C 339.177 192.840,338.916 192.342,340.286 188.460 C 340.921 186.660,341.672 183.043,341.955 180.423 C 342.927 171.414,343.939 169.051,349.466 162.887 C 355.051 156.658,358.229 151.803,353.586 156.592 C 352.072 158.154,349.115 160.964,347.016 162.836 C 342.783 166.610,342.020 168.158,340.302 176.452 C 337.693 189.046,335.457 192.141,323.241 200.072 C 318.190 203.352,311.402 208.471,308.159 211.448 C 303.936 215.323,300.183 217.837,294.944 220.298 C 289.815 222.707,285.443 225.611,280.325 230.009 C 272.656 236.598,266.623 240.001,261.489 240.634 C 258.706 240.977,258.608 240.928,260.446 240.121 C 267.450 237.042,271.577 234.479,279.449 228.315 C 284.323 224.500,291.616 219.718,295.656 217.689 C 300.565 215.223,304.757 212.334,308.296 208.976 C 313.286 204.241,316.524 201.963,325.478 196.890 C 333.281 192.469,337.131 186.168,339.176 174.477 C 340.407 167.438,341.567 165.460,347.055 161.047 C 349.623 158.982,352.467 155.948,353.376 154.305 C 355.912 149.719,356.225 149.290,357.046 149.290 C 357.466 149.290,357.809 150.221,357.809 151.359 M156.957 157.287 C 156.533 157.669,153.202 158.387,149.553 158.882 C 142.424 159.848,135.392 162.028,130.956 164.645 C 126.781 167.108,127.648 165.829,132.049 163.033 C 137.934 159.293,160.508 154.086,156.957 157.287 M169.039 159.909 C 165.069 161.436,164.805 161.723,163.904 165.479 C 162.469 171.458,164.158 173.984,168.207 171.913 C 169.876 171.060,169.901 171.090,168.629 172.424 C 166.959 174.175,163.083 173.477,163.083 171.425 C 163.083 168.553,161.543 171.733,161.025 175.674 C 160.416 180.305,162.313 183.923,164.841 182.953 C 166.362 182.369,169.726 175.095,169.896 172.020 C 169.959 170.898,170.294 169.530,170.642 168.981 C 171.212 168.079,174.442 159.166,174.442 158.494 C 174.442 157.978,173.246 158.291,169.039 159.909 M157.809 163.007 C 152.561 164.532,151.009 167.639,153.328 171.974 C 155.028 175.149,160.719 171.870,162.160 166.885 C 162.571 165.463,163.168 163.661,163.488 162.880 C 164.178 161.191,164.049 161.194,157.809 163.007 M150.320 170.249 C 148.311 175.724,148.173 180.376,149.955 182.570 L 151.590 184.584 153.883 182.878 C 156.340 181.049,160.428 173.951,159.537 173.059 C 159.241 172.764,158.567 172.954,158.039 173.482 C 155.521 176.000,152.063 174.122,151.590 169.980 L 151.312 167.546 150.320 170.249 M117.647 175.729 C 112.798 178.491,110.909 180.335,106.503 186.613 C 102.189 192.758,98.435 196.940,96.146 198.153 C 95.254 198.625,96.258 197.226,98.379 195.043 C 100.499 192.861,104.167 188.337,106.529 184.990 C 110.511 179.348,117.553 173.607,120.451 173.641 C 120.917 173.646,119.655 174.586,117.647 175.729 M102.938 180.269 C 100.401 183.831,88.089 196.139,83.164 200.036 C 80.933 201.801,84.767 197.534,91.684 190.553 C 98.600 183.572,104.376 177.822,104.518 177.774 C 104.660 177.727,103.949 178.849,102.938 180.269 M158.276 180.496 C 156.821 184.128,157.751 186.613,160.565 186.613 C 163.833 186.613,165.452 184.542,162.720 183.856 C 161.317 183.504,160.466 182.535,159.964 180.720 L 159.238 178.093 158.276 180.496 M146.888 184.812 C 146.841 191.135,150.747 191.246,154.869 185.039 C 156.108 183.172,156.094 183.143,154.394 184.052 C 151.517 185.592,149.435 185.162,148.131 182.759 C 146.928 180.540,146.921 180.552,146.888 184.812 M155.781 186.980 C 155.781 188.643,156.177 189.047,157.809 189.047 C 160.356 189.047,160.348 188.238,157.784 186.372 C 155.797 184.926,155.781 184.931,155.781 186.980 M194.269 194.799 C 192.959 196.177,190.791 197.881,189.452 198.585 L 187.018 199.864 195.716 201.695 C 200.500 202.702,204.733 203.723,205.124 203.964 C 205.772 204.365,219.001 201.553,219.685 200.869 C 219.848 200.707,216.398 199.367,212.019 197.891 C 207.640 196.416,204.623 195.088,205.316 194.939 C 206.009 194.791,210.377 195.992,215.022 197.609 C 226.246 201.516,234.249 200.709,243.696 194.718 C 245.769 193.403,247.465 192.628,247.465 192.996 C 247.465 194.137,244.637 196.293,240.560 198.261 L 236.652 200.147 241.463 200.650 C 247.819 201.314,256.245 203.967,259.921 206.462 C 263.479 208.877,263.718 207.901,260.875 202.555 C 259.772 200.480,259.166 198.783,259.529 198.783 C 262.690 198.783,265.498 211.095,262.923 213.669 C 261.651 214.942,261.020 213.726,262.001 211.891 C 264.367 207.470,245.696 200.865,232.308 201.388 L 226.283 201.623 236.468 206.848 C 242.070 209.721,246.653 212.354,246.653 212.698 C 246.653 213.042,241.589 210.782,235.399 207.676 C 222.278 201.091,223.718 201.251,209.492 204.807 C 203.379 206.336,196.552 207.796,194.320 208.052 C 191.212 208.409,191.842 208.121,197.016 206.819 C 200.729 205.884,203.632 204.985,203.467 204.819 C 203.302 204.654,199.351 203.759,194.687 202.831 C 190.023 201.902,185.112 200.812,183.773 200.408 C 182.434 200.005,178.874 199.228,175.862 198.683 C 172.850 198.137,170.385 197.365,170.385 196.965 C 170.385 196.566,171.024 196.423,171.805 196.648 C 182.058 199.595,189.159 198.726,193.432 194.001 C 194.282 193.061,195.355 192.292,195.815 192.292 C 196.276 192.292,195.580 193.420,194.269 194.799 M204.462 199.628 C 198.086 200.510,192.236 200.490,194.320 199.594 C 195.213 199.211,198.864 198.923,202.434 198.954 C 208.861 199.011,208.881 199.018,204.462 199.628 M267.748 202.028 C 266.633 202.901,265.355 203.615,264.909 203.615 C 264.462 203.615,265.010 202.901,266.126 202.028 C 267.241 201.156,268.519 200.442,268.966 200.442 C 269.412 200.442,268.864 201.156,267.748 202.028 M156.206 204.139 C 153.648 209.045,154.602 210.510,158.086 207.025 C 161.696 203.416,165.664 202.168,175.813 201.452 C 184.251 200.856,184.460 201.775,176.673 205.240 C 173.438 206.680,169.580 208.774,168.101 209.893 C 166.621 211.013,165.228 211.746,165.005 211.523 C 164.314 210.832,169.825 207.058,174.890 204.755 C 181.096 201.933,179.056 201.317,169.881 203.243 C 157.415 205.859,152.041 211.862,159.155 215.225 C 167.070 218.966,170.494 219.974,169.598 218.300 C 169.134 217.433,168.391 216.499,167.947 216.224 C 167.503 215.950,167.146 215.108,167.153 214.354 C 167.160 213.552,168.083 214.397,169.373 216.387 C 172.005 220.448,172.936 220.923,181.804 222.727 C 189.793 224.352,196.603 226.749,197.995 228.426 C 198.715 229.293,198.029 229.190,195.430 228.040 C 193.478 227.177,188.421 225.715,184.191 224.792 C 179.960 223.869,175.762 222.917,174.862 222.677 C 172.812 222.130,179.497 228.346,182.922 230.172 C 185.492 231.541,202.101 232.089,206.085 230.936 C 207.980 230.387,208.007 230.418,206.491 231.398 C 205.391 232.110,201.691 232.449,195.009 232.451 C 189.586 232.453,185.270 232.637,185.418 232.860 C 185.565 233.083,188.037 234.519,190.911 236.051 L 196.136 238.837 206.182 236.252 C 217.145 233.430,219.655 233.238,223.935 234.893 C 226.698 235.961,226.640 235.978,221.796 235.536 C 217.578 235.152,200.612 238.297,198.931 239.775 C 198.210 240.409,212.509 245.160,218.391 246.240 C 222.110 246.923,226.756 247.804,228.716 248.197 C 232.702 248.996,242.881 246.991,247.844 244.428 C 250.574 243.018,250.423 243.000,234.633 242.844 C 222.828 242.726,217.709 242.363,215.010 241.451 L 211.359 240.217 215.576 240.666 C 219.209 241.052,220.445 240.771,224.501 238.638 C 229.587 235.962,233.671 234.297,233.671 234.898 C 233.671 235.105,231.024 236.647,227.789 238.327 L 221.907 241.379 229.499 241.614 L 237.091 241.848 241.669 238.402 C 246.102 235.065,255.790 225.499,255.266 224.976 C 255.045 224.755,252.131 225.289,240.974 227.595 C 239.527 227.894,239.294 227.803,240.162 227.277 C 240.832 226.871,244.441 225.920,248.182 225.162 C 255.420 223.696,261.563 221.398,263.899 219.284 C 264.683 218.575,265.544 218.215,265.813 218.484 C 266.082 218.753,264.528 220.067,262.360 221.404 C 260.192 222.741,256.187 226.322,253.459 229.362 C 250.732 232.401,246.450 236.349,243.943 238.134 C 238.049 242.332,238.172 242.711,245.233 242.093 C 252.182 241.486,257.758 239.335,260.908 236.047 C 263.662 233.172,263.782 233.180,255.979 235.727 C 252.516 236.857,249.517 237.617,249.315 237.415 C 248.575 236.675,251.765 235.390,267.951 229.906 C 270.698 228.976,269.337 230.924,266.531 231.938 C 264.970 232.503,263.692 233.451,263.692 234.046 C 263.692 235.406,258.345 240.162,256.815 240.162 C 256.187 240.162,255.430 240.557,255.132 241.040 C 254.804 241.569,255.188 241.832,256.098 241.703 C 258.409 241.376,264.431 242.635,265.006 243.565 C 265.331 244.091,264.667 244.223,263.185 243.928 C 255.133 242.324,254.989 242.339,247.414 245.546 L 240.034 248.671 243.546 249.611 C 247.639 250.706,245.266 251.009,240.773 249.965 C 238.935 249.538,236.367 249.578,234.282 250.066 C 232.384 250.511,229.006 251.129,226.775 251.442 L 222.718 252.009 228.213 253.009 C 234.174 254.094,238.188 255.389,237.554 256.023 C 237.335 256.242,234.089 255.668,230.342 254.746 C 219.584 252.101,197.662 251.269,190.264 253.226 C 187.140 254.052,184.037 254.726,183.367 254.723 C 181.221 254.713,184.116 253.466,189.047 252.276 L 193.509 251.198 188.235 250.210 C 182.898 249.209,173.247 245.956,173.844 245.359 C 174.022 245.180,177.242 245.975,180.999 247.126 C 190.993 250.187,208.579 249.424,208.509 245.934 C 208.478 244.399,196.612 240.747,192.097 240.883 C 188.969 240.977,187.476 240.735,187.813 240.189 C 188.098 239.728,189.496 239.347,190.920 239.343 C 193.398 239.336,193.283 239.193,188.235 236.008 C 185.335 234.177,180.137 230.139,176.684 227.034 C 170.768 221.714,160.649 216.228,160.649 218.342 C 160.649 220.397,163.466 225.464,166.127 228.195 C 169.642 231.802,169.164 232.000,164.039 229.060 C 156.806 224.910,146.536 215.060,147.959 213.637 C 148.232 213.363,149.258 214.199,150.237 215.495 C 152.730 218.791,159.365 225.248,161.352 226.311 L 163.012 227.200 161.443 223.742 C 160.580 221.840,159.865 219.553,159.856 218.660 C 159.844 217.581,158.657 216.409,156.321 215.170 C 152.258 213.015,143.815 204.799,144.726 203.888 C 145.065 203.549,146.585 204.770,148.105 206.599 C 149.624 208.429,151.784 210.526,152.905 211.260 L 154.941 212.595 154.442 208.956 C 154.071 206.245,154.298 204.776,155.333 203.196 C 157.148 200.427,157.784 201.113,156.206 204.139 M185.055 206.142 C 182.636 207.000,180.514 207.559,180.339 207.384 C 179.926 206.972,186.642 204.592,188.235 204.586 C 188.905 204.583,187.473 205.283,185.055 206.142 M249.447 206.949 C 251.910 207.870,254.158 209.002,254.444 209.464 C 254.729 209.926,254.097 209.839,253.039 209.271 C 251.981 208.703,249.108 207.605,246.653 206.830 C 244.199 206.056,242.816 205.389,243.580 205.348 C 244.344 205.307,246.984 206.028,249.447 206.949 M275.896 206.833 C 272.029 214.059,241.998 226.564,229.040 226.344 C 226.253 226.297,229.773 224.936,235.252 223.943 C 242.011 222.717,245.920 220.671,250.362 216.036 C 252.338 213.973,253.955 212.773,253.955 213.368 C 253.955 213.963,252.418 215.913,250.538 217.701 C 247.321 220.761,247.252 220.919,249.354 220.391 C 257.416 218.368,271.624 210.789,273.918 207.288 C 275.470 204.919,277.124 204.538,275.896 206.833 M226.369 207.712 C 227.586 208.104,226.288 208.189,223.124 207.923 C 220.223 207.680,217.698 207.349,217.512 207.189 C 216.857 206.623,224.366 207.066,226.369 207.712 M308.733 214.023 L 305.579 217.039 308.367 213.731 C 309.901 211.911,311.320 210.554,311.521 210.715 C 311.722 210.876,310.467 212.364,308.733 214.023 M200.811 211.765 C 199.473 212.105,197.465 212.384,196.349 212.384 C 194.540 212.384,194.583 212.317,196.755 211.765 C 198.093 211.424,200.101 211.145,201.217 211.145 C 203.026 211.145,202.983 211.212,200.811 211.765 M77.086 214.039 C 69.180 219.427,63.987 228.039,62.029 239.010 L 60.883 245.436 61.209 239.756 C 61.798 229.501,67.055 219.649,74.437 214.968 C 78.432 212.434,80.511 211.705,77.086 214.039 M271.805 217.545 C 271.805 218.441,271.431 219.872,270.974 220.727 C 270.221 222.134,270.372 222.234,272.587 221.791 C 275.104 221.288,279.108 223.142,279.108 224.811 C 279.108 225.272,278.296 225.081,277.304 224.387 C 274.570 222.472,271.341 222.862,267.620 225.558 C 263.483 228.554,261.828 228.773,265.281 225.867 C 268.298 223.328,270.183 219.931,270.183 217.031 C 270.183 215.827,270.532 215.130,270.994 215.416 C 271.440 215.692,271.805 216.650,271.805 217.545 M191.130 219.943 C 195.391 221.764,201.465 223.970,204.626 224.846 L 210.375 226.439 216.952 224.340 C 220.570 223.186,225.712 221.184,228.379 219.892 C 231.047 218.600,233.350 217.664,233.497 217.811 C 234.293 218.607,227.558 222.140,220.842 224.448 C 214.859 226.505,213.584 227.191,215.096 227.544 C 220.837 228.882,234.600 230.433,241.171 230.483 C 246.122 230.521,248.129 230.778,247.059 231.237 C 238.844 234.767,203.001 227.757,186.830 219.459 C 179.388 215.640,181.655 215.895,191.130 219.943 M153.908 227.489 C 155.012 229.667,157.694 233.227,159.866 235.400 C 162.039 237.573,163.421 239.351,162.938 239.351 C 161.697 239.351,155.877 233.192,152.683 228.498 C 149.854 224.341,147.984 223.920,141.545 225.991 C 139.977 226.496,139.977 226.488,141.534 225.218 C 142.452 224.471,144.637 223.935,146.768 223.935 C 149.613 223.935,150.210 223.719,149.452 222.961 C 148.917 222.426,148.479 221.639,148.479 221.213 C 148.479 219.630,151.967 223.662,153.908 227.489 M264.440 223.241 C 262.928 226.066,257.090 232.049,255.844 232.049 C 255.212 232.049,256.719 230.072,259.193 227.656 C 261.667 225.241,263.692 222.868,263.692 222.383 C 263.692 221.898,264.070 221.501,264.532 221.501 C 265.082 221.501,265.051 222.100,264.440 223.241 M176.673 232.437 C 178.124 232.741,179.310 233.338,179.310 233.764 C 179.310 234.235,178.694 234.210,177.741 233.700 C 173.286 231.316,174.640 233.700,180.331 238.260 C 186.152 242.925,187.927 243.964,192.588 245.434 C 195.209 246.261,195.499 246.510,193.915 246.572 C 188.118 246.800,174.889 237.013,168.798 227.992 L 166.881 225.152 170.459 228.519 C 172.427 230.371,175.223 232.134,176.673 232.437 M165.773 233.175 C 172.268 235.999,174.791 237.565,171.197 236.541 C 168.269 235.707,159.026 231.403,159.026 230.874 C 159.026 230.228,158.872 230.175,165.773 233.175 M46.647 250.349 C 45.042 254.898,44.656 257.580,44.642 264.270 C 44.618 275.871,38.377 288.974,28.687 297.769 L 25.558 300.609 28.053 297.769 C 39.372 284.888,42.904 276.975,43.809 262.475 C 44.266 255.143,44.871 251.682,46.259 248.460 C 48.819 242.519,49.036 243.578,46.647 250.349 M230.020 245.842 C 229.128 246.225,227.485 246.528,226.369 246.515 L 224.341 246.491 226.369 245.842 C 227.485 245.485,229.128 245.181,230.020 245.168 L 231.643 245.144 230.020 245.842 M63.690 259.354 C 62.965 262.615,62.062 265.474,61.684 265.707 C 61.306 265.941,61.504 264.214,62.124 261.869 C 62.744 259.525,63.533 254.868,63.877 251.521 C 64.463 245.827,64.519 245.693,64.756 249.431 C 64.895 251.627,64.416 256.093,63.690 259.354 M160.538 247.034 C 160.329 247.244,154.517 247.774,147.624 248.212 C 140.731 248.650,134.178 249.263,133.063 249.573 C 131.947 249.884,131.237 249.913,131.484 249.637 C 132.858 248.103,141.765 246.755,150.845 246.707 C 156.386 246.677,160.748 246.825,160.538 247.034 M204.528 248.713 L 199.320 250.546 205.542 251.129 C 211.458 251.683,220.507 251.275,227.586 250.135 C 230.565 249.655,230.165 249.495,222.718 248.183 C 212.586 246.398,210.974 246.445,204.528 248.713 M49.951 260.547 C 49.262 262.053,48.858 262.556,49.052 261.663 C 49.247 260.771,49.693 258.580,50.042 256.795 C 50.576 254.071,50.721 253.892,50.941 255.679 C 51.085 256.850,50.640 259.040,49.951 260.547 M119.270 259.320 C 110.235 263.039,89.961 270.166,88.438 270.160 C 86.951 270.153,91.531 268.244,97.276 266.476 C 101.021 265.323,106.132 263.452,108.635 262.316 C 114.787 259.525,127.502 254.852,129.006 254.830 C 129.675 254.820,125.294 256.840,119.270 259.320 M129.848 261.740 C 127.411 262.847,124.761 264.345,123.961 265.069 C 123.160 265.794,122.290 266.171,122.028 265.909 C 121.447 265.328,126.861 261.846,130.223 260.638 C 134.590 259.068,134.381 259.683,129.848 261.740 M174.442 280.180 C 174.442 280.577,176.901 288.147,177.837 290.630 C 178.291 291.835,179.630 293.440,180.812 294.195 L 182.961 295.569 181.237 293.626 C 178.465 290.503,177.688 288.401,177.688 284.029 C 177.688 280.460,177.474 279.919,176.065 279.919 C 175.172 279.919,174.442 280.036,174.442 280.180 M88.032 282.757 C 86.247 283.868,82.231 285.552,79.108 286.501 C 69.953 289.280,67.283 291.256,60.036 300.614 C 56.410 305.297,53.240 309.128,52.991 309.128 C 52.743 309.128,52.898 308.671,53.336 308.114 C 53.774 307.556,56.167 304.322,58.655 300.928 C 65.570 291.491,69.128 288.759,78.454 285.722 C 82.830 284.297,87.118 282.591,87.985 281.931 C 88.851 281.271,89.946 280.732,90.419 280.734 C 90.891 280.737,89.817 281.647,88.032 282.757"/>
</svg>