<svg version="1.1" viewBox="5.6 7.5 355.8 442.5" xmlns="http://www.w3.org/2000/svg">
<path fill="#C9A84C" fill-rule="evenodd" d="M164.547 26.226 C 177.791 51.041,195.872 72.521,223.655 96.446 C 244.497 114.393,248.654 121.690,250.566 143.686 C 251.003 148.715,252.185 156.383,253.193 160.726 C 255.257 169.619,255.178 170.640,252.790 165.958 C 249.723 159.947,248.225 154.391,246.807 143.774 C 244.199 124.251,239.868 116.172,225.116 103.321 C 197.433 79.203,179.122 57.892,164.549 32.830 L 160.599 26.038 161.059 30.977 C 162.784 49.482,173.467 68.724,197.583 96.769 C 201.198 100.973,203.666 104.469,203.364 104.958 C 203.064 105.444,204.581 107.668,206.890 110.128 C 209.119 112.503,208.226 111.678,204.906 108.294 C 201.585 104.911,193.785 97.925,187.573 92.769 C 175.972 83.143,164.365 71.746,156.283 62.044 C 151.186 55.927,151.004 56.000,153.314 63.238 C 158.350 79.015,170.413 94.994,192.391 114.999 C 203.694 125.287,207.387 129.587,201.357 125.438 C 199.533 124.183,194.557 121.254,190.301 118.929 C 181.132 113.922,164.558 102.817,160.580 99.016 C 159.031 97.536,157.597 96.491,157.393 96.695 C 156.631 97.457,161.457 106.258,165.948 112.293 C 169.895 117.598,170.284 118.382,168.509 117.455 C 163.164 114.663,153.912 100.035,152.100 91.509 C 151.473 88.564,152.917 88.159,155.166 90.648 C 158.427 94.257,174.896 106.552,180.267 109.388 C 181.244 109.904,178.245 106.134,173.602 101.012 C 157.374 83.107,149.521 68.512,147.527 52.549 C 146.779 46.567,148.216 46.927,153.594 54.072 C 159.120 61.414,174.310 77.580,181.502 83.774 C 183.506 85.499,183.455 85.339,180.898 81.887 C 166.564 62.535,158.745 45.017,157.947 30.465 C 157.185 16.558,158.825 15.505,164.547 26.226 M166.837 39.434 C 167.660 40.991,168.185 42.264,168.004 42.264 C 167.609 42.264,163.769 35.480,163.785 34.811 C 163.801 34.162,165.054 36.059,166.837 39.434 M24.859 40.642 C 62.250 72.171,105.903 97.757,159.503 119.561 C 188.191 131.231,197.083 137.461,205.982 152.121 C 216.753 169.864,222.762 177.689,229.554 182.814 C 233.858 186.062,234.744 186.497,250.791 193.237 C 261.471 197.724,265.734 200.311,267.269 203.238 C 268.111 204.843,268.090 204.857,266.686 203.614 C 264.520 201.694,259.247 199.551,252.434 197.820 C 232.317 192.709,221.342 184.119,207.547 162.688 C 191.912 138.398,187.690 135.219,151.698 120.632 C 111.296 104.259,58.358 73.478,31.132 50.530 C 24.778 45.174,24.659 45.288,28.757 52.830 C 42.395 77.933,58.709 92.453,102.418 118.389 C 111.634 123.858,119.384 128.670,119.639 129.083 C 120.267 130.099,110.356 126.400,98.868 121.331 C 93.679 119.041,86.038 115.744,81.887 114.005 C 70.868 109.387,48.105 97.808,35.094 90.203 C 28.868 86.563,23.485 83.417,23.132 83.211 C 20.449 81.645,29.751 93.764,37.407 101.809 C 51.200 116.303,73.838 130.717,96.949 139.721 C 102.231 141.779,120.303 148.242,125.085 149.784 C 130.935 151.670,130.459 152.212,123.533 151.554 C 104.997 149.792,79.731 144.184,56.004 136.565 C 50.901 134.926,46.551 133.585,46.339 133.585 C 43.626 133.585,64.412 149.341,73.061 153.840 C 87.519 161.362,116.197 168.858,138.705 170.998 C 141.729 171.286,144.091 171.633,143.954 171.769 C 142.615 173.108,98.468 176.288,89.309 175.705 C 82.938 175.299,83.242 175.828,91.759 179.972 C 108.310 188.023,128.130 189.738,152.332 185.211 C 155.793 184.564,158.772 184.181,158.951 184.359 C 160.206 185.615,132.826 196.758,122.453 199.213 C 116.341 200.659,117.117 201.518,126.276 203.446 C 136.718 205.644,147.350 204.418,156.423 199.969 L 161.132 197.660 155.472 203.180 C 150.561 207.968,142.447 214.130,139.450 215.348 C 137.760 216.034,141.996 218.758,146.258 219.725 C 151.529 220.921,158.277 219.695,163.173 216.652 C 165.164 215.415,166.792 214.571,166.792 214.778 C 166.792 216.707,158.883 228.425,155.924 230.881 C 154.008 232.471,154.441 232.932,159.057 234.215 C 165.000 235.866,168.891 234.924,175.012 230.352 L 177.571 228.440 177.029 231.390 C 176.460 234.488,173.092 240.355,170.575 242.633 C 164.168 248.431,183.435 246.114,190.472 240.240 C 194.590 236.803,193.039 243.177,188.221 249.488 C 184.981 253.733,184.931 253.587,189.623 253.576 C 196.297 253.560,209.799 246.515,220.163 237.641 C 230.400 228.876,231.169 229.861,221.592 239.471 C 211.925 249.172,209.585 252.231,198.537 269.615 C 196.740 272.443,194.954 274.486,194.516 274.216 C 194.037 273.920,193.957 274.098,194.311 274.671 C 195.378 276.397,186.474 288.335,176.966 297.925 C 171.924 303.009,167.956 307.170,168.148 307.170 C 168.814 307.170,190.603 295.934,196.602 292.497 C 199.921 290.595,203.080 289.208,203.622 289.416 C 204.164 289.624,204.444 289.530,204.245 289.208 C 204.046 288.886,205.641 287.638,207.790 286.435 C 209.940 285.232,214.676 282.465,218.316 280.286 C 221.956 278.108,224.737 276.643,224.498 277.031 C 223.086 279.315,208.228 289.375,196.788 295.792 C 194.399 297.132,192.089 298.892,191.656 299.702 C 189.092 304.493,174.838 324.404,174.097 324.230 C 173.608 324.115,173.443 324.157,173.731 324.323 C 174.019 324.490,174.058 325.138,173.818 325.763 C 173.538 326.494,175.506 325.804,179.333 323.831 C 187.692 319.518,196.802 315.632,205.994 312.457 L 213.874 309.735 214.794 304.274 C 215.338 301.046,216.828 296.587,218.438 293.369 C 219.935 290.374,220.956 288.604,220.705 289.434 C 218.301 297.387,216.464 315.584,217.971 316.516 C 218.485 316.833,218.953 315.957,219.223 314.172 C 219.712 310.942,223.402 298.617,223.767 298.997 C 223.898 299.134,223.190 302.472,222.194 306.415 C 220.575 312.824,218.601 328.943,219.336 329.748 C 219.809 330.267,220.094 329.729,223.303 322.264 L 226.385 315.094 226.400 326.981 C 226.418 340.876,226.094 340.612,233.341 332.642 C 249.583 314.779,257.110 298.045,258.838 275.954 C 259.680 265.183,260.063 264.438,260.787 272.165 C 262.368 289.035,258.135 304.951,248.066 319.990 C 243.143 327.343,243.048 326.503,250.098 337.900 C 259.212 352.634,262.019 355.008,271.321 355.846 C 281.049 356.722,285.617 360.126,286.934 367.480 C 288.456 375.983,288.451 376.112,286.477 379.245 L 284.575 382.264 284.542 379.623 C 284.488 375.470,283.770 373.748,281.893 373.277 C 280.937 373.037,279.443 371.633,278.572 370.157 C 277.615 368.535,275.872 367.007,274.167 366.294 C 270.285 364.672,267.231 362.264,269.056 362.264 C 272.458 362.264,276.707 364.300,279.500 367.268 C 282.918 370.900,284.944 370.946,284.230 367.375 C 283.088 361.668,279.041 359.310,268.303 358.093 C 260.349 357.192,255.058 352.306,246.703 338.146 C 244.120 333.769,241.885 330.037,241.735 329.851 C 240.998 328.936,237.421 333.662,238.122 334.623 C 251.029 352.317,252.432 355.003,250.577 358.470 C 250.047 359.461,249.252 359.947,248.582 359.690 C 247.970 359.455,247.670 359.588,247.916 359.987 C 248.162 360.385,247.416 360.918,246.257 361.171 C 240.584 362.413,238.491 364.096,238.491 367.417 C 238.491 368.942,240.365 370.141,241.578 369.392 C 241.955 369.158,242.264 368.485,242.264 367.894 C 242.264 367.304,243.198 366.617,244.340 366.367 C 245.481 366.117,247.919 365.431,249.757 364.843 C 255.173 363.110,258.474 364.019,264.164 368.806 C 267.100 371.277,270.441 378.309,269.788 380.646 C 269.536 381.547,269.608 381.905,269.951 381.454 C 270.289 381.009,271.160 380.425,271.887 380.157 C 273.551 379.543,273.636 376.042,272.042 373.766 C 269.917 370.733,265.617 362.811,265.927 362.501 C 266.563 361.864,270.679 366.755,273.396 371.377 C 277.756 378.795,276.948 387.096,271.596 389.864 C 269.079 391.166,269.091 391.193,270.566 387.664 C 272.021 384.181,271.992 383.649,270.320 383.212 C 269.462 382.987,268.300 381.135,267.240 378.301 C 264.947 372.168,258.929 366.801,254.340 366.796 C 248.259 366.789,240.211 372.132,239.857 376.411 L 239.623 379.245 238.139 376.792 C 236.246 373.662,236.110 373.683,231.784 377.728 C 229.792 379.592,227.884 380.866,227.545 380.559 C 227.205 380.251,227.149 380.387,227.419 380.861 C 228.339 382.470,212.061 401.747,210.825 400.511 C 210.544 400.230,210.731 400.000,211.240 400.000 C 211.748 400.000,211.954 399.659,211.697 399.243 C 211.391 398.748,210.658 398.791,209.577 399.366 C 208.668 399.850,209.501 398.643,211.428 396.685 C 213.355 394.726,217.091 390.368,219.730 387.000 C 226.102 378.868,232.313 372.222,234.057 371.668 C 235.159 371.318,235.472 370.481,235.472 367.886 C 235.472 363.524,238.182 360.479,243.357 359.026 C 249.894 357.191,249.282 353.998,240.107 342.075 C 235.047 335.500,235.731 335.564,230.005 341.132 C 223.665 347.298,223.425 347.112,223.407 336.038 C 223.401 332.397,223.083 329.811,222.642 329.811 C 222.226 329.811,221.887 330.204,221.887 330.683 C 221.887 333.114,217.881 336.906,217.215 335.105 C 216.328 332.708,214.340 319.155,214.340 315.508 L 214.340 312.515 208.491 314.938 C 201.978 317.636,201.210 318.581,188.679 339.335 C 169.175 371.638,156.502 385.892,144.132 389.439 L 142.183 389.998 145.053 384.521 C 146.741 381.301,148.522 378.888,149.377 378.664 C 150.828 378.285,155.324 370.566,154.095 370.566 C 153.739 370.566,152.523 372.264,151.394 374.340 C 148.972 378.788,147.966 379.451,150.159 375.152 C 151.256 373.003,151.417 372.108,150.747 371.884 C 150.095 371.667,150.210 371.191,151.139 370.263 C 153.199 368.203,152.676 367.074,150.575 369.048 C 149.151 370.386,148.898 371.052,149.527 371.810 C 153.841 377.008,119.734 401.509,108.184 401.509 C 104.734 401.509,104.847 401.246,111.598 393.556 C 119.159 384.944,122.911 381.379,121.497 384.151 C 120.543 386.021,120.549 386.026,122.103 384.646 C 123.026 383.828,123.484 382.766,123.217 382.069 C 122.917 381.287,123.062 381.070,123.645 381.430 C 124.167 381.753,124.528 381.520,124.528 380.862 C 124.528 380.250,124.107 379.608,123.592 379.436 C 122.918 379.212,123.024 378.755,123.969 377.810 C 126.131 375.648,125.453 374.876,123.215 376.951 C 122.078 378.005,120.869 378.868,120.529 378.868 C 120.189 378.868,120.155 379.292,120.454 379.811 C 120.752 380.330,120.719 380.503,120.379 380.195 C 119.556 379.449,117.736 381.018,117.736 382.474 C 117.736 383.478,117.918 383.490,119.118 382.570 C 119.878 381.987,118.886 383.038,116.914 384.906 C 111.242 390.277,105.223 393.641,103.585 392.356 C 102.413 391.438,102.371 391.458,103.211 392.535 C 105.039 394.877,89.125 401.030,78.823 401.963 C 72.010 402.581,71.858 402.140,77.170 397.164 C 86.665 388.268,90.265 385.359,88.757 387.799 C 88.543 388.145,88.857 388.428,89.455 388.428 C 90.203 388.428,90.312 388.151,89.805 387.539 C 89.280 386.907,91.248 384.737,96.631 380.014 C 105.556 372.182,105.557 372.178,97.336 375.472 C 84.492 380.618,65.867 380.480,69.155 375.262 C 69.886 374.103,83.326 364.292,103.506 350.189 C 165.911 306.573,177.763 296.040,193.945 269.811 C 197.786 263.585,202.078 256.877,203.482 254.906 C 206.262 251.002,206.196 250.584,203.135 252.717 C 198.285 256.098,187.294 257.761,182.313 255.868 C 179.790 254.908,179.858 254.463,183.109 250.666 C 186.134 247.131,186.126 246.366,183.074 247.526 C 178.528 249.254,164.528 247.830,164.528 245.639 C 164.528 245.378,166.280 243.150,168.421 240.688 C 172.902 235.537,172.885 235.104,168.272 236.712 C 162.586 238.693,151.693 236.467,151.123 233.208 C 151.014 232.585,152.965 229.725,155.458 226.851 C 160.768 220.734,160.767 220.952,155.471 222.356 C 142.691 225.743,128.587 216.908,138.641 211.813 C 147.092 207.531,146.897 207.174,136.076 207.133 C 118.441 207.066,104.568 200.591,116.061 197.790 C 123.848 195.893,133.208 192.951,136.882 191.246 L 140.755 189.448 137.736 189.953 C 118.013 193.254,88.317 185.806,78.935 175.205 C 76.614 172.582,77.020 172.542,110.566 172.117 C 123.275 171.956,123.169 171.531,109.811 169.084 C 81.514 163.900,56.899 151.292,43.008 134.867 C 36.869 127.607,36.259 127.642,58.537 133.988 C 78.812 139.763,100.383 145.152,100.950 144.584 C 101.169 144.366,100.705 143.956,99.919 143.674 C 62.809 130.363,38.053 112.531,21.051 86.865 C 13.626 75.656,13.952 73.624,22.323 78.951 C 35.906 87.594,86.038 113.675,86.038 112.097 C 86.038 111.949,83.066 110.054,79.434 107.886 C 50.528 90.629,29.483 67.883,21.508 45.279 C 18.927 37.963,19.970 36.519,24.859 40.642 M177.884 61.509 C 186.480 74.251,199.243 88.223,221.587 109.355 C 227.964 115.386,228.229 115.720,223.396 111.641 C 215.251 104.765,190.464 79.764,185.098 73.012 C 178.369 64.544,166.038 45.332,166.038 43.316 C 166.038 42.958,167.328 44.868,168.906 47.559 C 170.484 50.251,174.524 56.528,177.884 61.509 M172.477 48.491 C 182.859 64.258,198.885 81.978,220.523 101.616 C 226.207 106.775,231.975 112.427,233.341 114.177 C 238.344 120.587,196.345 79.938,187.714 70.017 C 185.646 67.639,183.682 65.861,183.350 66.067 C 183.018 66.272,182.500 66.042,182.200 65.556 C 181.859 65.004,181.981 64.875,182.525 65.211 C 183.004 65.507,183.396 65.431,183.396 65.043 C 183.396 64.140,181.490 62.535,181.000 63.025 C 180.796 63.229,180.629 62.968,180.629 62.445 C 180.629 61.923,178.418 58.272,175.716 54.332 C 170.272 46.396,169.574 45.283,170.044 45.283 C 170.221 45.283,171.316 46.726,172.477 48.491 M164.209 76.981 C 169.499 83.997,176.985 92.456,188.254 104.151 C 194.388 110.517,195.572 111.933,191.408 107.925 C 179.121 96.098,162.839 77.527,159.644 71.698 C 158.628 69.844,160.197 71.659,164.209 76.981 M167.217 76.733 C 168.379 78.257,168.945 79.265,168.474 78.974 C 167.508 78.377,164.240 73.962,164.765 73.962 C 164.951 73.962,166.055 75.209,167.217 76.733 M183.362 95.472 C 192.787 105.527,195.941 109.086,194.044 107.524 C 191.562 105.480,176.212 88.788,172.176 83.742 C 169.354 80.215,169.514 80.328,173.291 84.528 C 175.717 87.226,180.249 92.151,183.362 95.472 M215.737 107.170 C 220.620 111.943,223.068 114.496,221.176 112.842 C 215.131 107.558,194.725 87.305,191.507 83.396 C 189.798 81.321,192.553 83.868,197.629 89.057 C 202.706 94.245,210.854 102.396,215.737 107.170 M227.528 111.300 C 232.498 115.751,237.052 120.124,237.647 121.017 C 238.279 121.967,237.646 121.623,236.121 120.189 C 234.687 118.840,233.208 117.736,232.835 117.736 C 232.462 117.736,233.188 118.840,234.449 120.189 C 237.361 123.304,240.084 127.266,239.861 128.064 C 239.767 128.402,240.267 129.762,240.972 131.084 C 241.677 132.407,242.048 134.025,241.797 134.679 C 241.546 135.333,241.767 136.382,242.287 137.009 C 242.808 137.636,243.058 138.326,242.843 138.541 C 242.627 138.756,241.774 137.785,240.947 136.382 C 240.119 134.980,238.854 132.842,238.135 131.633 C 236.942 129.626,237.032 129.662,239.169 132.047 C 242.926 136.241,241.863 133.518,237.736 128.376 C 233.465 123.054,232.620 121.058,236.587 125.660 C 240.569 130.281,239.734 127.998,235.491 122.666 C 233.427 120.071,231.915 117.771,232.132 117.553 C 232.349 117.336,230.051 114.826,227.024 111.975 C 223.998 109.125,216.418 101.698,210.181 95.472 C 201.014 86.321,200.724 85.977,208.666 93.679 C 214.069 98.920,222.557 106.849,227.528 111.300 M196.226 105.283 C 203.897 112.962,210.004 119.245,209.796 119.245 C 209.588 119.245,203.143 112.962,195.472 105.283 C 187.801 97.604,181.695 91.321,181.902 91.321 C 182.110 91.321,188.556 97.604,196.226 105.283 M205.591 111.548 C 210.119 116.197,213.681 120.000,213.506 120.000 C 213.332 120.000,208.099 114.840,201.877 108.534 C 195.656 102.228,192.094 98.425,193.962 100.083 C 195.830 101.740,201.063 106.900,205.591 111.548 M224.906 119.896 C 225.943 120.935,224.415 119.710,221.509 117.174 C 218.604 114.638,213.340 109.577,209.811 105.927 C 205.147 101.101,206.073 101.844,213.208 108.649 C 218.604 113.796,223.868 118.857,224.906 119.896 M46.463 108.113 L 48.679 110.566 46.226 108.349 C 43.940 106.283,43.427 105.660,44.010 105.660 C 44.140 105.660,45.243 106.764,46.463 108.113 M218.113 117.516 C 218.113 118.082,217.436 117.483,214.308 114.151 L 210.943 110.566 214.528 113.931 C 216.500 115.781,218.113 117.395,218.113 117.516 M126.950 119.467 C 132.459 127.571,141.472 136.755,148.358 141.282 C 151.025 143.036,153.208 144.704,153.208 144.989 C 153.208 145.851,142.349 141.520,136.976 138.516 C 125.130 131.891,142.739 150.088,156.103 158.281 L 160.377 160.902 155.151 160.377 C 152.277 160.088,149.390 159.661,148.736 159.428 C 146.321 158.566,151.410 163.242,156.604 166.656 C 161.007 169.550,169.991 173.903,176.146 176.124 C 179.444 177.314,176.485 177.183,170.542 175.875 C 159.562 173.459,149.760 168.110,143.772 161.265 C 139.690 156.599,139.658 156.381,143.012 156.083 L 145.647 155.849 141.451 152.453 C 133.891 146.334,122.935 131.153,124.761 129.327 C 125.319 128.769,125.990 129.079,130.566 132.002 C 132.158 133.019,132.003 132.617,129.578 129.434 C 125.438 124.001,119.168 110.628,121.410 112.014 C 121.859 112.291,124.352 115.645,126.950 119.467 M187.925 125.750 C 188.962 126.922,185.991 124.372,181.321 120.083 C 176.651 115.794,172.830 112.116,172.830 111.910 C 172.830 111.405,185.547 123.065,187.925 125.750 M58.864 118.449 C 58.858 119.161,55.150 114.385,55.121 113.627 C 55.107 113.235,55.943 114.065,56.981 115.472 C 58.019 116.878,58.866 118.218,58.864 118.449 M61.557 118.679 L 63.774 121.132 61.321 118.915 C 59.034 116.849,58.521 116.226,59.104 116.226 C 59.234 116.226,60.338 117.330,61.557 118.679 M193.392 125.248 C 193.260 125.436,191.042 123.411,188.463 120.748 L 183.774 115.907 188.702 120.406 C 191.413 122.881,193.523 125.060,193.392 125.248 M66.038 120.755 C 67.659 122.415,68.816 123.774,68.608 123.774 C 68.401 123.774,66.904 122.415,65.283 120.755 C 63.662 119.094,62.505 117.736,62.713 117.736 C 62.920 117.736,64.416 119.094,66.038 120.755 M195.849 130.566 C 202.897 137.623,208.493 143.396,208.285 143.396 C 208.078 143.396,202.142 137.623,195.094 130.566 C 188.047 123.509,182.451 117.736,182.658 117.736 C 182.866 117.736,188.802 123.509,195.849 130.566 M157.736 130.528 C 180.073 139.849,187.543 146.001,201.309 166.415 C 211.398 181.377,220.546 192.204,226.251 195.936 C 233.544 200.707,233.777 200.906,229.483 198.706 C 222.510 195.132,210.309 182.469,202.096 170.284 C 189.253 151.227,179.966 143.263,158.817 133.171 C 147.268 127.660,132.075 119.506,132.075 118.819 C 132.075 118.631,135.726 120.303,140.189 122.534 C 144.651 124.765,152.547 128.362,157.736 130.528 M71.698 124.151 C 73.106 125.604,74.089 126.792,73.881 126.792 C 73.673 126.792,72.352 125.604,70.943 124.151 C 69.535 122.698,68.553 121.509,68.761 121.509 C 68.968 121.509,70.290 122.698,71.698 124.151 M216.226 131.402 C 217.638 132.953,216.785 132.443,213.962 130.048 C 211.472 127.935,208.755 125.416,207.925 124.449 C 205.760 121.929,213.514 128.423,216.226 131.402 M77.332 127.358 C 80.183 130.774,79.380 130.421,75.814 126.691 C 74.173 124.975,73.382 123.871,74.057 124.238 C 74.732 124.605,76.206 126.009,77.332 127.358 M82.424 130.122 L 84.024 132.453 81.257 129.852 C 79.736 128.421,78.491 126.936,78.491 126.552 C 78.491 125.535,80.576 127.427,82.424 130.122 M198.868 129.811 C 200.912 131.887,202.415 133.585,202.207 133.585 C 202.000 133.585,200.157 131.887,198.113 129.811 C 196.069 127.736,194.566 126.038,194.774 126.038 C 194.981 126.038,196.824 127.736,198.868 129.811 M214.340 133.365 C 214.340 133.931,213.662 133.332,210.534 130.000 L 207.170 126.415 210.755 129.780 C 212.726 131.630,214.340 133.244,214.340 133.365 M86.207 131.631 L 87.815 133.962 85.725 132.075 C 83.267 129.857,81.100 126.413,83.308 128.235 C 84.018 128.821,85.322 130.349,86.207 131.631 M92.167 135.283 C 93.351 137.466,92.555 136.799,89.464 133.019 C 86.769 129.723,86.731 129.617,88.992 131.698 C 90.344 132.943,91.773 134.557,92.167 135.283 M96.825 137.321 C 96.676 137.508,95.291 136.340,93.748 134.727 L 90.943 131.793 94.020 134.387 C 95.713 135.814,96.975 137.134,96.825 137.321 M314.258 132.857 C 321.395 133.889,325.536 135.873,328.080 139.480 C 329.473 141.457,331.662 143.175,334.534 144.547 C 339.819 147.071,343.774 151.270,344.938 155.590 C 346.436 161.157,344.468 167.706,342.556 163.511 C 341.441 161.062,340.979 161.074,336.226 163.674 C 328.725 167.777,326.257 176.657,325.291 203.019 C 323.982 238.733,315.264 258.474,290.511 281.776 C 283.534 288.343,283.450 288.466,281.693 294.581 C 278.844 304.496,273.871 313.721,267.110 321.633 L 264.748 324.397 268.098 329.557 C 278.289 345.252,282.467 348.677,291.435 348.683 C 302.050 348.692,307.925 352.201,307.925 358.535 C 307.925 361.502,308.297 362.105,312.764 366.379 C 316.911 370.346,317.779 371.652,318.835 375.504 C 322.965 390.568,324.571 392.903,337.985 403.346 C 342.954 407.215,344.789 410.785,349.016 424.812 C 352.279 435.637,353.453 441.985,350.543 433.068 C 349.823 430.862,348.969 428.717,348.644 428.302 C 348.319 427.887,347.217 425.340,346.195 422.642 C 341.874 411.237,340.780 409.642,333.477 404.111 C 325.943 398.403,321.556 393.769,321.422 391.374 C 321.360 390.276,321.238 390.171,321.011 391.019 C 320.833 391.683,321.740 395.079,323.027 398.566 C 325.445 405.122,329.204 418.217,328.787 418.635 C 328.089 419.332,321.388 400.767,320.642 396.073 C 319.779 390.637,315.496 376.610,313.507 372.709 C 312.944 371.604,310.793 369.397,308.727 367.803 C 306.661 366.210,304.955 364.500,304.938 364.005 C 304.902 362.996,301.998 360.755,300.727 360.755 C 300.190 360.755,300.014 362.286,300.222 365.162 C 300.463 368.484,300.196 370.203,299.139 372.143 L 297.736 374.717 297.501 371.885 C 297.253 368.877,291.741 362.264,289.483 362.264 C 288.882 362.264,288.183 361.928,287.930 361.518 C 287.665 361.090,287.968 360.964,288.640 361.221 C 291.072 362.155,289.669 360.653,286.000 358.396 C 281.151 355.412,281.696 354.756,287.004 357.186 C 289.561 358.356,292.176 360.359,294.005 362.546 C 295.610 364.466,297.191 366.038,297.518 366.038 C 299.307 366.038,296.705 358.699,293.933 355.928 C 291.435 353.430,294.911 354.673,300.041 358.113 C 305.910 362.049,305.660 361.967,305.660 359.963 C 305.660 354.695,301.406 352.026,291.346 350.986 C 282.089 350.028,270.666 342.370,272.959 338.659 C 273.224 338.231,273.088 338.098,272.658 338.364 C 271.817 338.884,264.172 327.808,264.120 325.994 C 264.102 325.380,262.974 326.167,261.532 327.799 L 258.976 330.693 262.756 335.346 C 264.835 337.906,267.372 341.698,268.394 343.774 C 269.417 345.849,269.737 346.868,269.107 346.038 C 268.477 345.208,265.665 341.743,262.858 338.339 L 257.755 332.149 255.945 333.810 C 253.507 336.049,256.385 331.378,263.059 322.264 C 268.721 314.532,272.553 307.678,276.320 298.546 C 279.248 291.446,279.411 290.254,277.174 292.279 C 275.599 293.704,259.730 302.642,258.775 302.642 C 256.877 302.642,258.834 300.752,265.472 296.176 C 306.027 268.218,320.004 244.619,321.537 201.509 C 322.227 182.120,323.212 175.845,326.665 168.852 L 328.815 164.496 326.860 164.059 C 325.785 163.819,323.586 163.291,321.974 162.887 C 320.362 162.482,318.239 162.353,317.257 162.600 C 314.808 163.214,314.989 162.465,318.582 157.114 C 320.666 154.010,321.817 151.372,322.071 149.114 C 322.280 147.261,323.112 145.035,323.920 144.168 C 327.335 140.502,318.390 136.260,307.499 136.379 C 290.900 136.560,277.014 145.440,266.430 162.642 C 256.746 178.381,251.946 183.687,245.256 186.047 C 240.100 187.867,238.285 187.403,242.325 185.299 C 248.621 182.018,254.456 174.658,264.174 157.736 C 274.389 139.949,294.434 129.992,314.258 132.857 M103.396 140.122 C 103.396 140.771,99.283 137.548,97.358 135.392 C 96.189 134.081,96.978 134.510,99.434 136.520 C 101.613 138.304,103.396 139.925,103.396 140.122 M241.025 138.479 C 244.185 143.238,244.710 144.942,241.830 141.090 C 239.778 138.346,237.497 134.340,237.987 134.340 C 238.146 134.340,239.514 136.202,241.025 138.479 M106.085 139.811 L 108.302 142.264 105.849 140.047 C 103.563 137.981,103.049 137.358,103.632 137.358 C 103.762 137.358,104.866 138.462,106.085 139.811 M241.001 143.120 C 242.526 145.251,243.774 147.288,243.774 147.646 C 243.774 148.356,238.861 141.687,237.585 139.245 C 236.484 137.139,237.742 138.565,241.001 143.120 M305.424 139.356 C 305.156 139.624,303.317 140.102,301.336 140.419 C 299.356 140.736,296.717 141.243,295.472 141.547 C 294.226 141.851,293.468 141.819,293.787 141.476 C 294.384 140.834,301.899 139.043,304.465 138.931 C 305.261 138.896,305.693 139.087,305.424 139.356 M320.000 143.620 C 320.000 144.633,317.812 142.693,316.837 140.817 C 316.109 139.414,316.236 139.442,318.011 141.075 C 319.105 142.081,320.000 143.227,320.000 143.620 M316.608 141.891 C 318.626 144.121,317.545 144.472,315.469 142.261 C 314.496 141.225,314.045 140.377,314.468 140.377 C 314.892 140.377,315.854 141.059,316.608 141.891 M313.962 145.053 L 316.604 146.705 313.660 147.214 C 312.041 147.495,310.080 147.557,309.302 147.354 C 307.938 146.997,307.935 147.066,309.206 149.280 C 310.895 152.224,309.917 155.417,306.878 156.873 C 302.405 159.017,298.227 154.295,300.706 149.898 C 301.381 148.700,301.824 147.610,301.690 147.476 C 301.071 146.858,293.301 151.222,286.889 155.789 C 280.033 160.672,279.889 160.735,282.200 157.817 C 291.855 145.626,305.870 139.994,313.962 145.053 M166.008 145.359 C 168.702 146.437,172.860 151.166,171.930 152.095 C 170.281 153.744,161.509 148.210,161.509 145.519 C 161.509 143.841,162.155 143.818,166.008 145.359 M285.975 145.203 C 285.166 145.968,277.736 150.107,277.736 149.793 C 277.736 149.291,284.759 144.937,285.597 144.920 C 285.978 144.912,286.148 145.039,285.975 145.203 M324.889 149.758 C 324.234 152.011,322.997 154.746,322.140 155.835 C 320.018 158.534,320.453 158.661,325.949 156.951 C 332.434 154.932,338.054 154.992,340.744 157.107 L 342.823 158.743 342.268 156.919 C 339.355 147.359,327.059 142.293,324.889 149.758 M243.774 151.960 C 243.774 152.343,243.034 151.677,242.129 150.479 C 239.289 146.719,238.988 145.938,241.426 148.651 C 242.717 150.088,243.774 151.577,243.774 151.960 M329.650 149.581 C 328.189 151.782,326.792 152.171,326.792 150.377 C 326.792 148.543,327.418 147.925,329.274 147.925 C 330.625 147.925,330.657 148.065,329.650 149.581 M302.642 150.201 C 301.635 150.861,301.635 151.026,302.642 151.687 C 304.385 152.831,305.798 152.590,305.527 151.195 C 305.221 149.619,304.112 149.237,302.642 150.201 M313.208 152.157 C 313.208 154.637,311.365 158.110,309.270 159.577 C 303.771 163.429,294.760 157.381,297.062 151.382 C 297.824 149.397,298.628 150.043,298.287 152.366 C 297.160 160.047,308.358 162.301,311.406 155.007 C 312.046 153.476,312.405 151.595,312.204 150.828 C 312.003 150.060,312.147 149.622,312.523 149.855 C 312.900 150.087,313.208 151.124,313.208 152.157 M278.868 152.664 C 277.623 153.585,275.323 155.487,273.758 156.893 C 272.193 158.299,271.130 158.883,271.395 158.192 C 271.843 157.024,279.703 150.914,280.689 150.967 C 280.933 150.980,280.113 151.744,278.868 152.664 M329.407 158.554 C 322.009 159.502,321.341 160.161,326.763 161.163 C 331.006 161.947,332.132 161.892,335.442 160.738 C 340.587 158.944,336.867 157.598,329.407 158.554 M270.854 163.585 C 268.178 166.387,264.896 170.030,263.561 171.681 C 260.679 175.243,260.329 174.978,263.029 171.279 C 264.979 168.607,274.740 158.491,275.368 158.491 C 275.561 158.491,273.530 160.783,270.854 163.585 M173.585 161.354 C 175.462 162.522,177.289 164.481,177.334 165.374 C 177.399 166.625,170.056 164.322,168.146 162.493 C 164.714 159.204,168.767 158.355,173.585 161.354 M284.691 164.540 C 279.013 168.331,277.585 170.868,282.755 167.979 C 286.601 165.829,288.106 165.784,284.741 167.920 C 278.770 171.709,276.502 175.517,282.075 172.395 L 285.660 170.387 283.236 172.396 C 280.406 174.740,277.302 178.868,278.368 178.868 C 278.772 178.868,280.525 177.679,282.264 176.226 C 286.554 172.642,287.011 172.900,283.264 176.792 C 279.952 180.233,277.982 183.396,279.152 183.396 C 279.544 183.396,280.669 182.462,281.650 181.321 C 282.631 180.179,284.105 178.736,284.924 178.113 C 285.744 177.491,285.311 178.267,283.962 179.838 C 280.690 183.649,280.824 185.111,284.151 181.887 C 285.604 180.479,286.792 179.666,286.792 180.081 C 286.792 180.496,285.609 181.983,284.162 183.385 C 280.107 187.316,282.922 187.088,287.513 183.113 L 289.365 181.509 288.082 183.396 C 287.377 184.434,286.243 186.289,285.562 187.518 C 284.172 190.029,283.914 190.138,289.913 185.671 L 292.432 183.794 290.745 186.164 C 287.828 190.261,289.385 190.746,293.790 187.115 C 295.338 185.839,296.604 185.137,296.604 185.555 C 296.604 186.406,291.116 191.017,288.466 192.393 C 286.830 193.242,286.770 193.181,287.271 191.172 C 287.716 189.383,287.629 189.195,286.704 189.956 C 284.228 191.994,281.387 192.583,282.305 190.868 C 283.408 188.807,282.708 188.235,280.381 189.295 C 278.297 190.244,277.957 189.577,279.272 187.120 C 280.224 185.341,279.766 185.284,277.332 186.879 C 275.134 188.320,274.918 187.411,276.659 184.043 C 278.054 181.347,277.715 180.686,275.536 181.852 C 273.463 182.962,273.431 181.477,275.472 178.868 C 277.316 176.511,277.565 174.425,275.831 175.864 C 273.893 177.472,273.593 175.965,275.371 173.559 C 276.295 172.310,276.879 171.011,276.670 170.673 C 276.116 169.776,281.390 164.949,284.906 163.134 C 289.702 160.659,289.611 161.254,284.691 164.540 M311.237 164.717 C 310.551 166.632,310.261 169.050,310.519 170.718 C 311.078 174.346,308.851 180.304,305.082 185.265 C 301.046 190.576,291.069 197.969,294.618 193.019 C 295.888 191.248,300.696 183.201,303.976 177.358 L 305.882 173.962 303.884 175.792 C 301.366 178.098,301.313 177.255,303.774 174.029 C 306.040 171.058,306.243 169.805,304.151 171.698 C 301.943 173.696,302.302 171.903,304.528 169.811 C 306.834 167.646,306.991 166.431,304.815 167.596 C 302.137 169.029,303.882 167.006,307.808 164.124 C 312.328 160.808,312.619 160.858,311.237 164.717 M190.540 170.644 C 193.840 173.542,193.928 174.441,190.823 173.550 C 188.441 172.867,184.906 170.104,184.906 168.925 C 184.906 167.501,188.054 168.462,190.540 170.644 M261.046 178.444 C 255.616 183.728,248.302 188.972,248.302 187.582 C 248.302 187.377,249.353 186.665,250.637 186.001 C 251.921 185.337,256.031 181.932,259.769 178.435 C 268.560 170.211,269.499 170.218,261.046 178.444 M263.226 180.566 C 261.873 182.638,253.590 189.449,252.490 189.394 C 252.055 189.373,252.547 188.785,253.585 188.088 C 254.623 187.391,257.340 185.038,259.623 182.859 C 264.226 178.466,264.861 178.062,263.226 180.566 M196.885 182.969 C 201.718 185.469,201.286 187.797,196.298 186.134 C 192.989 185.031,190.661 181.887,193.153 181.887 C 194.054 181.887,195.734 182.374,196.885 182.969 M168.661 191.435 L 170.045 193.585 168.306 192.075 L 166.566 190.566 167.108 192.787 C 167.850 195.834,174.295 203.756,178.869 207.244 C 180.944 208.827,182.642 210.233,182.642 210.370 C 182.642 211.305,178.437 208.008,174.069 203.648 C 171.221 200.807,169.095 199.011,169.343 199.658 C 169.618 200.374,169.482 200.641,168.997 200.340 C 168.558 200.069,168.381 199.372,168.604 198.792 C 168.827 198.211,168.680 197.736,168.278 197.736 C 167.876 197.736,167.602 197.481,167.669 197.170 C 167.736 196.858,167.406 195.674,166.936 194.537 C 166.466 193.400,165.896 190.173,165.670 187.367 L 165.259 182.264 166.267 185.775 C 166.822 187.705,167.899 190.253,168.661 191.435 M319.597 187.491 C 319.316 189.743,318.808 195.602,318.468 200.510 L 317.851 209.434 318.145 198.491 C 318.420 188.286,318.944 183.396,319.765 183.396 C 319.954 183.396,319.878 185.239,319.597 187.491 M183.415 186.604 C 186.441 188.654,186.966 189.869,185.043 190.371 C 183.261 190.837,178.106 189.125,177.257 187.786 C 175.223 184.578,179.277 183.800,183.415 186.604 M306.792 194.717 C 305.121 199.749,304.557 199.185,306.092 194.016 C 306.741 191.829,307.454 190.221,307.675 190.443 C 307.897 190.664,307.500 192.588,306.792 194.717 M311.260 199.221 C 309.371 207.958,308.664 210.028,308.698 206.730 C 308.728 203.690,312.267 189.751,312.858 190.342 C 313.004 190.488,312.285 194.484,311.260 199.221 M302.642 195.094 C 301.466 198.656,300.937 198.128,301.962 194.415 C 302.396 192.843,302.930 191.735,303.149 191.954 C 303.368 192.173,303.139 193.586,302.642 195.094 M314.837 201.132 L 314.153 206.415 314.066 202.264 C 313.964 197.426,314.934 190.890,315.298 193.962 C 315.420 195.000,315.213 198.226,314.837 201.132 M208.104 197.407 C 210.297 198.843,209.358 199.968,205.951 199.988 C 203.659 200.002,199.760 197.225,200.466 196.083 C 201.108 195.044,205.717 195.843,208.104 197.407 M191.509 200.746 C 195.370 203.100,194.809 204.850,190.388 204.244 C 186.223 203.673,183.018 201.184,184.906 199.987 C 186.669 198.868,188.837 199.117,191.509 200.746 M238.491 203.435 C 238.491 203.643,237.472 203.285,236.226 202.642 C 234.981 201.998,233.962 201.301,233.962 201.093 C 233.962 200.886,234.981 201.243,236.226 201.887 C 237.472 202.531,238.491 203.227,238.491 203.435 M173.243 204.707 C 174.884 206.465,175.355 207.144,174.291 206.216 C 172.215 204.405,170.891 203.977,171.770 205.400 C 172.107 205.944,171.977 206.066,171.425 205.725 C 170.939 205.424,170.746 204.848,170.996 204.443 C 171.246 204.038,171.040 203.213,170.539 202.608 C 168.587 200.257,170.412 201.673,173.243 204.707 M284.528 204.804 C 284.528 207.156,277.730 213.076,276.472 211.818 C 275.821 211.167,277.603 208.575,280.375 206.141 C 283.291 203.581,284.528 203.183,284.528 204.804 M135.849 206.038 C 135.849 206.453,137.208 206.792,138.868 206.792 C 140.528 206.792,141.887 206.453,141.887 206.038 C 141.887 205.623,140.528 205.283,138.868 205.283 C 137.208 205.283,135.849 205.623,135.849 206.038 M219.446 207.205 C 222.942 208.666,221.677 209.783,216.508 209.800 C 212.707 209.812,210.706 208.464,212.244 206.925 C 213.460 205.710,216.113 205.813,219.446 207.205 M296.259 210.416 C 295.986 211.661,294.572 213.987,293.117 215.585 L 290.472 218.491 290.828 215.255 C 291.234 211.575,294.793 206.189,296.013 207.409 C 296.422 207.818,296.533 209.171,296.259 210.416 M175.088 211.551 C 176.498 213.159,176.625 213.546,175.615 213.158 C 174.883 212.877,173.748 211.585,173.093 210.286 C 172.439 208.987,172.202 208.264,172.567 208.679 C 172.932 209.094,174.066 210.387,175.088 211.551 M181.887 214.858 C 181.887 215.382,177.472 212.115,176.875 211.149 C 176.584 210.678,177.592 211.243,179.116 212.405 C 180.640 213.568,181.887 214.671,181.887 214.858 M202.613 212.338 C 204.614 213.802,203.397 215.094,200.017 215.094 C 194.934 215.094,192.988 213.476,196.415 212.099 C 198.897 211.101,201.034 211.184,202.613 212.338 M186.779 220.623 C 188.432 221.733,189.491 222.642,189.133 222.642 C 188.775 222.642,186.828 221.453,184.805 220.000 C 180.490 216.899,180.598 216.929,180.741 218.877 C 180.880 220.753,185.620 225.774,186.651 225.137 C 187.065 224.882,187.177 225.037,186.902 225.483 C 186.626 225.929,187.508 227.198,188.861 228.303 C 190.762 229.855,190.892 230.097,189.434 229.369 C 187.121 228.215,177.086 218.134,177.670 217.550 C 177.901 217.319,177.501 216.654,176.781 216.071 C 175.605 215.119,175.644 215.094,177.162 215.830 C 178.092 216.280,178.816 216.893,178.771 217.192 C 178.550 218.659,178.966 219.127,179.599 218.125 C 180.103 217.329,179.827 216.462,178.645 215.130 C 177.533 213.878,178.108 214.143,180.377 215.931 C 182.245 217.402,185.126 219.513,186.779 220.623 M234.591 215.473 C 235.597 216.484,231.505 218.868,228.784 218.856 C 223.972 218.836,222.797 216.710,226.681 215.051 C 228.384 214.323,233.729 214.608,234.591 215.473 M304.590 218.275 C 304.327 219.920,303.287 222.849,302.280 224.784 L 300.448 228.302 300.412 224.310 C 300.390 221.723,300.919 219.256,301.916 217.302 C 303.815 213.580,305.257 214.104,304.590 218.275 M315.285 220.566 C 314.877 225.466,313.506 229.434,312.222 229.434 C 311.264 229.434,312.060 219.503,313.187 217.397 C 314.821 214.344,315.694 215.662,315.285 220.566 M187.905 223.913 C 188.123 224.149,187.258 223.813,185.983 223.165 C 184.707 222.517,183.188 221.413,182.607 220.713 C 181.707 219.628,186.776 222.690,187.905 223.913 M216.191 221.390 C 218.999 223.443,213.261 225.708,208.491 224.430 C 206.108 223.792,206.377 222.749,209.245 221.503 C 212.368 220.145,214.443 220.112,216.191 221.390 M159.418 224.121 C 158.475 224.908,158.012 225.742,158.389 225.975 C 159.045 226.380,159.896 225.618,161.059 223.585 C 161.784 222.317,161.450 222.426,159.418 224.121 M265.660 223.672 C 265.660 226.223,259.044 231.371,257.609 229.936 C 257.012 229.339,259.378 225.635,261.415 223.979 C 263.343 222.412,265.660 222.244,265.660 223.672 M280.000 224.566 C 280.000 227.535,275.928 232.453,273.470 232.453 C 271.872 232.453,273.737 227.726,276.224 225.472 C 278.805 223.132,280.000 222.846,280.000 224.566 M289.771 236.323 C 288.913 238.396,284.665 242.652,284.059 242.046 C 283.308 241.295,286.277 233.931,288.108 232.003 L 290.189 229.811 290.435 231.968 C 290.571 233.154,290.272 235.114,289.771 236.323 M306.353 234.621 C 305.991 236.229,305.348 238.459,304.923 239.576 C 303.833 242.445,303.946 242.684,305.660 241.132 C 309.125 237.996,307.455 246.103,303.665 250.818 C 302.196 252.645,300.507 253.697,301.424 252.214 C 301.634 251.875,302.164 248.733,302.603 245.233 C 303.442 238.535,305.358 231.698,306.396 231.698 C 306.733 231.698,306.714 233.014,306.353 234.621 M211.132 235.992 C 210.406 236.182,209.217 236.182,208.491 235.992 C 207.764 235.802,208.358 235.647,209.811 235.647 C 211.264 235.647,211.858 235.802,211.132 235.992 M249.811 237.634 C 249.811 239.174,246.584 242.184,243.694 243.340 C 239.898 244.859,239.237 244.413,241.236 241.686 C 243.438 238.683,249.811 235.671,249.811 237.634 M263.157 244.717 C 261.729 248.227,255.094 252.397,255.094 249.785 C 255.094 247.402,260.629 242.275,263.210 242.267 C 263.957 242.265,263.945 242.780,263.157 244.717 M292.929 253.048 C 290.777 256.529,287.547 259.479,287.547 257.962 C 287.547 255.339,289.962 250.082,291.897 248.492 L 293.962 246.794 294.203 248.696 C 294.335 249.742,293.762 251.700,292.929 253.048 M234.717 251.189 C 234.717 252.954,228.834 256.604,225.989 256.604 C 223.516 256.604,226.227 252.271,229.434 251.099 C 231.225 250.444,234.717 250.504,234.717 251.189 M270.138 256.280 C 267.516 259.071,266.824 258.466,269.213 255.472 C 270.372 254.019,271.442 253.194,271.590 253.639 C 271.739 254.084,271.085 255.272,270.138 256.280 M245.601 259.520 C 243.710 262.720,238.491 265.510,238.491 263.321 C 238.491 261.842,243.574 257.358,245.250 257.358 C 246.836 257.358,246.845 257.415,245.601 259.520 M219.623 263.068 C 219.623 264.835,214.501 269.434,212.533 269.434 C 211.586 269.434,214.340 264.991,216.013 263.819 C 217.680 262.651,219.623 262.247,219.623 263.068 M277.013 265.601 C 276.561 266.445,275.505 267.503,274.665 267.952 C 273.238 268.716,273.202 268.656,274.116 267.026 C 276.485 262.804,279.233 261.452,277.013 265.601 M292.367 266.440 C 291.230 268.528,288.481 272.179,286.258 274.553 L 282.217 278.868 285.719 273.208 C 288.736 268.330,293.279 262.642,294.157 262.642 C 294.309 262.642,293.504 264.351,292.367 266.440 M276.226 275.682 C 276.226 275.798,273.934 278.090,271.132 280.777 L 266.038 285.660 270.922 280.566 C 275.458 275.834,276.226 275.127,276.226 275.682 M280.626 276.792 C 280.011 277.519,278.074 279.852,276.322 281.978 C 274.569 284.104,271.708 286.977,269.964 288.363 C 268.070 289.868,269.681 287.794,273.962 283.215 C 277.906 278.997,281.270 275.530,281.438 275.509 C 281.606 275.489,281.240 276.066,280.626 276.792 M243.774 277.210 C 243.774 277.337,242.500 278.610,240.943 280.041 L 238.113 282.642 240.714 279.811 C 243.135 277.177,243.774 276.634,243.774 277.210 M243.296 283.396 C 241.325 285.679,239.554 287.547,239.362 287.547 C 238.967 287.547,240.748 285.343,244.087 281.698 C 247.729 277.722,247.183 278.893,243.296 283.396 M249.419 281.321 C 248.741 282.462,246.495 285.264,244.429 287.547 C 241.030 291.302,241.126 291.104,245.430 285.485 C 250.429 278.957,251.465 277.876,249.419 281.321 M193.181 285.988 C 191.453 288.452,189.350 291.084,188.509 291.837 C 187.667 292.591,188.929 290.575,191.314 287.358 C 196.413 280.479,197.716 279.523,193.181 285.988 M250.904 285.400 C 249.784 287.204,247.153 290.717,245.056 293.208 C 239.864 299.376,240.000 299.227,240.000 298.710 C 240.000 298.457,242.024 295.827,244.498 292.866 C 246.972 289.905,249.750 286.142,250.670 284.504 C 251.591 282.866,252.478 281.660,252.642 281.824 C 252.805 281.988,252.023 283.597,250.904 285.400 M248.809 294.228 C 246.868 297.067,244.538 300.037,243.629 300.827 C 242.721 301.618,243.512 300.226,245.387 297.736 C 247.263 295.245,249.432 292.114,250.208 290.778 C 250.984 289.442,251.780 288.510,251.977 288.707 C 252.175 288.904,250.749 291.389,248.809 294.228 M251.041 296.415 C 249.698 299.011,243.976 306.686,240.773 310.189 C 239.444 311.642,239.948 310.792,241.894 308.302 C 243.839 305.811,246.818 301.651,248.514 299.057 C 251.779 294.063,252.821 292.973,251.041 296.415 M177.461 305.433 C 173.574 307.312,169.616 308.896,168.666 308.953 C 167.715 309.010,167.070 309.272,167.233 309.535 C 167.395 309.798,166.473 310.451,165.183 310.985 C 163.894 311.519,158.400 315.341,152.975 319.479 C 141.904 327.923,115.898 346.472,97.853 358.795 C 91.276 363.286,83.406 368.746,80.365 370.928 L 74.836 374.895 79.047 375.330 C 93.948 376.868,118.074 362.477,157.736 328.391 L 163.396 323.527 158.113 328.760 C 143.260 343.471,136.586 349.512,135.752 348.997 C 135.218 348.666,135.061 348.770,135.361 349.255 C 135.859 350.060,128.648 356.935,117.654 366.137 C 114.495 368.780,105.156 376.866,96.899 384.104 C 88.642 391.342,81.745 397.370,81.572 397.500 C 78.962 399.458,91.595 396.074,97.736 393.171 C 109.082 387.805,123.394 376.462,145.289 355.478 C 150.274 350.701,155.685 345.604,157.313 344.151 L 160.275 341.509 157.709 344.906 C 151.803 352.722,147.671 357.036,147.025 356.059 C 146.530 355.310,146.218 355.381,145.630 356.378 C 145.213 357.084,144.370 358.163,143.757 358.777 C 143.143 359.390,142.653 360.341,142.667 360.889 C 142.692 361.916,145.293 359.215,145.830 357.605 C 146.045 356.960,146.491 356.956,147.587 357.592 C 148.848 358.324,148.875 358.448,147.776 358.468 C 146.661 358.488,141.493 364.074,117.881 390.785 C 112.229 397.179,112.250 397.719,118.047 395.156 C 125.214 391.986,132.767 386.404,140.440 378.608 C 145.318 373.651,147.898 371.516,148.193 372.193 C 148.493 372.880,148.581 372.812,148.469 371.982 C 148.250 370.373,164.486 350.073,165.494 350.696 C 165.921 350.961,166.045 350.811,165.769 350.365 C 165.493 349.918,167.393 346.925,169.992 343.714 C 178.694 332.961,178.957 332.887,172.440 343.019 C 163.073 357.581,148.198 383.400,149.180 383.390 C 153.895 383.339,169.150 364.535,183.363 341.253 C 192.308 326.600,194.816 322.991,195.685 323.528 C 196.145 323.812,196.229 323.633,195.892 323.088 C 195.571 322.569,195.930 321.478,196.719 320.579 C 198.231 318.855,198.207 318.859,192.830 321.149 L 189.811 322.435 191.233 320.858 C 192.015 319.991,192.949 319.463,193.308 319.685 C 193.668 319.907,193.962 319.729,193.962 319.290 C 193.962 318.226,193.546 318.277,190.845 319.674 C 189.586 320.324,188.710 321.258,188.898 321.749 C 189.102 322.285,183.804 325.451,175.654 329.666 C 168.135 333.553,162.263 336.186,162.503 335.561 C 162.741 334.940,168.049 327.262,174.298 318.499 C 180.547 309.736,185.660 302.413,185.660 302.226 C 185.660 301.577,184.488 302.036,177.461 305.433 M250.102 303.585 C 248.398 306.490,243.677 313.178,243.062 313.558 C 242.666 313.803,244.087 311.447,246.219 308.322 C 248.351 305.198,250.222 302.642,250.376 302.642 C 250.529 302.642,250.406 303.066,250.102 303.585 M267.420 304.917 C 266.681 306.169,265.286 308.122,264.322 309.257 C 263.357 310.392,263.821 309.368,265.353 306.981 C 268.256 302.458,269.759 300.958,267.420 304.917 M270.519 306.368 C 269.404 308.417,267.500 311.219,266.289 312.594 C 264.338 314.809,264.381 314.664,266.667 311.321 C 268.086 309.245,269.808 306.443,270.492 305.094 C 271.177 303.745,271.919 302.642,272.142 302.642 C 272.365 302.642,271.634 304.318,270.519 306.368 M184.326 305.660 C 183.759 306.569,183.689 307.170,184.151 307.170 C 184.621 307.170,184.565 307.735,184.006 308.630 C 183.505 309.434,182.770 309.891,182.374 309.646 C 181.950 309.384,181.906 309.609,182.268 310.195 C 183.124 311.580,185.754 308.292,185.117 306.632 C 184.841 305.913,184.960 305.605,185.406 305.881 C 185.823 306.138,186.164 305.854,186.164 305.250 C 186.164 303.718,185.438 303.880,184.326 305.660 M176.415 326.098 C 175.689 326.521,175.121 327.445,175.154 328.151 C 175.191 328.945,175.359 329.072,175.596 328.486 C 175.806 327.964,176.250 327.706,176.582 327.911 C 176.915 328.117,177.364 327.609,177.579 326.784 C 177.795 325.958,177.919 325.293,177.854 325.306 C 177.789 325.319,177.142 325.675,176.415 326.098 M151.617 327.267 C 149.617 329.677,115.472 354.661,115.472 353.715 C 115.472 353.509,119.972 350.089,125.472 346.113 C 130.972 342.138,139.208 336.016,143.774 332.510 C 152.546 325.773,153.245 325.305,151.617 327.267 M224.409 331.094 C 224.475 333.253,224.744 334.781,225.007 334.491 C 225.270 334.200,225.216 332.434,224.888 330.566 L 224.290 327.170 224.409 331.094 M164.528 352.830 C 164.528 353.453,164.019 353.962,163.396 353.962 C 162.774 353.962,162.264 354.245,162.264 354.591 C 162.264 355.958,164.448 355.117,165.203 353.459 C 165.706 352.354,165.730 351.698,165.267 351.698 C 164.861 351.698,164.528 352.208,164.528 352.830 M113.396 363.837 C 112.462 364.191,111.698 364.753,111.698 365.087 C 111.698 365.421,110.507 366.336,109.052 367.119 C 105.456 369.056,106.153 369.412,109.850 367.527 C 112.376 366.239,112.862 366.184,113.200 367.148 C 113.525 368.074,113.985 367.963,115.791 366.523 C 117.260 365.352,117.695 364.592,117.107 364.228 C 116.622 363.929,116.226 364.008,116.226 364.403 C 116.226 364.798,115.669 365.335,114.988 365.597 C 113.944 365.997,113.902 365.888,114.718 364.905 C 115.970 363.396,115.521 363.033,113.396 363.837 M83.844 365.575 C 83.227 366.319,83.195 366.812,83.742 367.150 C 84.180 367.421,84.748 367.097,85.004 366.430 C 85.641 364.770,84.941 364.254,83.844 365.575 M152.638 369.177 C 151.562 372.028,151.665 372.256,153.264 370.573 C 153.917 369.884,154.250 368.744,154.002 368.039 C 153.653 367.042,153.348 367.297,152.638 369.177 M78.069 369.424 C 76.645 370.515,76.652 370.540,78.312 370.319 C 80.399 370.042,82.435 368.302,80.673 368.302 C 80.046 368.302,78.875 368.807,78.069 369.424 M157.080 378.371 C 156.618 378.928,156.481 379.626,156.776 379.921 C 157.071 380.216,156.728 380.233,156.015 379.959 C 155.300 379.685,154.717 379.814,154.717 380.246 C 154.717 380.677,154.033 381.248,153.197 381.513 C 152.360 381.778,151.853 382.282,152.069 382.631 C 152.285 382.981,152.036 383.439,151.514 383.650 C 150.942 383.880,151.090 384.055,151.887 384.091 C 152.613 384.124,153.208 383.885,153.208 383.559 C 153.208 383.233,154.186 382.389,155.381 381.683 C 156.576 380.977,157.733 379.715,157.952 378.879 C 158.418 377.097,158.229 376.987,157.080 378.371 M92.772 384.465 C 91.655 385.683,92.447 387.068,93.642 385.986 C 94.441 385.263,95.094 384.611,95.094 384.537 C 95.094 384.407,92.889 384.339,92.772 384.465 M320.687 387.358 C 322.076 391.601,323.225 393.962,323.898 393.962 C 324.841 393.962,324.014 391.248,322.117 388.113 C 320.376 385.239,319.912 384.994,320.687 387.358 M226.378 395.239 C 222.115 401.324,215.100 405.119,211.666 403.197 C 210.613 402.608,211.153 402.278,214.424 401.508 C 220.213 400.147,222.033 399.049,225.635 394.747 C 229.822 389.747,230.097 389.930,226.378 395.239 M97.358 394.321 C 94.636 395.764,94.337 396.100,95.849 396.013 C 97.684 395.908,102.262 393.988,100.755 393.955 C 100.340 393.946,100.509 393.610,101.132 393.208 C 103.361 391.767,100.690 392.556,97.358 394.321 M298.055 401.100 C 302.085 403.639,308.232 409.292,310.373 412.429 C 311.491 414.069,310.778 413.628,307.853 410.870 C 305.610 408.754,301.653 405.425,299.062 403.471 C 296.470 401.518,293.989 399.173,293.548 398.262 C 292.865 396.849,292.893 396.781,293.732 397.801 C 294.274 398.459,296.219 399.944,298.055 401.100 M243.307 405.472 C 235.736 414.820,233.160 416.522,221.151 420.117 C 214.799 422.018,213.565 422.712,208.013 427.495 L 201.887 432.775 206.359 427.663 C 211.269 422.049,215.010 419.568,220.755 418.116 C 228.777 416.088,234.750 412.514,241.493 405.705 C 245.012 402.152,247.995 399.245,248.121 399.245 C 248.247 399.245,246.081 402.047,243.307 405.472 M198.679 404.724 C 195.591 406.275,194.084 408.249,196.792 407.195 C 197.519 406.912,198.453 406.621,198.868 406.548 C 199.283 406.475,199.801 406.178,200.020 405.889 C 200.238 405.599,200.918 405.679,201.529 406.066 C 202.235 406.512,202.307 406.774,201.726 406.781 C 199.256 406.812,191.913 410.300,189.196 412.733 C 187.184 414.534,186.318 414.988,186.665 414.060 C 187.101 412.891,186.911 412.722,185.559 413.075 C 181.807 414.056,189.760 407.556,195.045 405.322 C 201.201 402.719,203.386 402.359,198.679 404.724 M336.192 404.335 C 336.309 405.064,336.958 405.613,337.636 405.556 C 338.313 405.498,338.868 405.859,338.868 406.358 C 338.868 406.857,339.887 408.241,341.132 409.434 C 343.706 411.900,344.175 411.005,341.854 408.054 C 339.405 404.941,335.925 402.655,336.192 404.335 M192.031 407.887 C 190.618 408.943,190.626 408.966,192.276 408.551 C 193.216 408.314,194.170 407.821,194.396 407.456 C 195.034 406.423,193.654 406.675,192.031 407.887 M310.081 418.704 C 311.905 421.550,316.352 435.320,316.193 437.630 C 316.130 438.541,313.262 432.630,310.982 426.889 C 309.727 423.732,307.712 419.362,306.502 417.178 C 301.412 407.988,303.889 409.044,310.081 418.704"/>
</svg>