<svg version="1.1" viewBox="17.9 25.1 344.0 359.6" xmlns="http://www.w3.org/2000/svg">
<path fill="#C9A84C" fill-rule="evenodd" d="M51.087 35.021 C 64.821 38.598,72.707 45.552,86.708 66.435 C 97.861 83.069,111.847 99.659,113.405 98.101 C 113.617 97.889,110.725 93.203,106.977 87.690 C 99.875 77.243,85.843 49.268,86.870 47.606 C 87.195 47.080,87.014 46.776,86.467 46.929 C 85.921 47.083,84.008 45.199,82.216 42.744 L 78.958 38.279 82.251 38.937 C 93.804 41.248,102.325 50.209,113.528 71.832 C 122.770 89.669,129.513 100.482,135.937 107.770 C 141.884 114.517,141.155 114.484,132.234 107.603 C 123.098 100.556,122.701 100.430,123.475 104.822 C 125.936 118.785,129.297 133.076,132.182 141.851 L 135.594 152.230 125.411 142.309 C 111.466 128.723,93.522 116.413,71.282 105.177 C 67.991 103.515,66.186 102.026,66.617 101.330 C 67.053 100.624,66.858 100.479,66.102 100.946 C 61.217 103.965,46.217 85.194,44.081 73.391 L 43.385 69.543 46.027 71.975 C 47.480 73.312,48.430 74.792,48.139 75.263 C 47.848 75.734,48.246 75.875,49.023 75.577 C 49.800 75.278,51.036 75.758,51.770 76.642 C 52.504 77.526,62.057 83.576,72.999 90.086 C 83.941 96.596,96.206 104.348,100.254 107.313 C 104.302 110.279,107.614 112.312,107.614 111.832 C 107.614 109.886,88.146 92.390,78.173 85.372 C 64.633 75.845,61.499 73.009,63.195 71.822 C 64.025 71.242,63.741 71.135,62.378 71.514 C 60.765 71.962,59.260 70.897,55.779 66.844 C 49.414 59.436,48.517 58.021,49.337 56.694 C 49.755 56.017,49.616 55.798,49.007 56.175 C 48.412 56.542,47.046 54.716,45.868 51.975 C 43.559 46.609,41.737 35.870,43.298 36.836 C 43.827 37.162,44.923 37.010,45.734 36.497 C 46.892 35.764,46.731 35.561,44.984 35.549 C 43.760 35.540,42.477 35.076,42.132 34.518 C 41.246 33.084,44.314 33.256,51.087 35.021 M167.478 80.619 C 191.203 102.014,190.001 100.927,215.736 124.298 C 228.579 135.962,247.995 153.586,258.883 163.464 C 269.772 173.342,286.415 188.457,295.869 197.053 C 322.444 221.217,331.659 234.363,332.754 249.677 C 333.635 261.980,329.240 266.712,317.989 265.574 C 311.090 264.876,308.753 263.742,300.585 257.129 L 297.110 254.315 301.524 262.944 C 305.505 270.727,307.562 273.154,322.484 287.679 C 347.269 311.806,353.935 323.527,349.897 335.875 C 348.328 340.671,348.310 341.405,349.714 343.409 C 353.596 348.951,350.912 360.881,344.522 366.491 C 340.070 370.400,339.402 370.330,339.906 366.011 C 341.358 353.579,326.607 344.596,285.592 332.933 C 253.186 323.717,249.139 322.379,237.695 317.102 C 206.693 302.805,185.559 279.460,173.674 246.380 C 171.238 239.603,171.376 239.629,180.711 247.716 C 192.702 258.104,206.583 267.308,221.320 274.641 C 230.549 279.233,229.518 277.649,216.091 266.611 C 178.409 235.632,164.702 218.611,155.203 191.001 C 152.661 183.613,153.048 183.647,159.309 191.364 C 169.741 204.221,191.822 224.025,217.943 243.950 C 230.919 253.848,226.014 247.692,196.217 216.686 C 157.976 176.894,146.293 159.458,138.551 130.629 C 135.768 120.267,135.209 120.243,146.817 130.986 C 149.545 133.510,156.802 140.115,162.944 145.663 C 177.992 159.256,180.969 161.960,189.885 170.139 C 194.093 173.999,201.386 180.584,206.092 184.772 C 226.104 202.581,251.846 226.668,257.736 233.096 C 272.824 249.561,279.485 273.687,273.572 290.447 C 271.469 296.406,272.271 296.389,276.119 290.392 C 285.065 276.450,285.673 258.323,277.772 241.066 C 272.346 229.213,261.791 217.428,235.533 193.902 C 178.295 142.620,170.595 134.419,164.576 118.333 C 161.561 110.274,161.821 109.915,167.259 114.633 C 179.001 124.820,207.479 148.521,216.751 155.824 C 222.335 160.221,231.015 167.080,236.041 171.065 C 241.066 175.051,245.863 178.672,246.701 179.112 C 249.148 180.400,217.929 149.714,189.587 122.975 C 154.977 90.322,150.050 83.657,146.786 65.064 L 146.178 61.601 148.435 63.542 C 149.677 64.609,158.246 72.294,167.478 80.619 M60.213 67.443 C 59.549 68.200,59.282 69.096,59.621 69.435 C 60.761 70.575,61.496 70.063,61.650 68.020 C 61.828 65.650,61.798 65.638,60.213 67.443 M77.514 107.182 C 80.213 108.619,82.632 109.585,82.888 109.328 C 83.400 108.817,75.061 104.569,73.545 104.569 C 73.028 104.569,74.814 105.744,77.514 107.182 M33.344 114.224 C 34.549 115.429,32.711 115.354,29.442 114.065 L 25.888 112.664 29.368 113.196 C 31.281 113.488,33.071 113.950,33.344 114.224 M56.421 124.996 C 56.724 125.487,57.429 125.888,57.988 125.888 C 58.546 125.888,58.677 125.361,58.279 124.716 C 57.826 123.984,58.001 123.820,58.743 124.279 C 59.397 124.683,59.625 125.509,59.251 126.115 C 58.807 126.833,59.052 126.919,59.952 126.363 C 63.072 124.434,66.739 125.131,74.077 129.045 C 83.848 134.256,98.054 144.537,97.691 146.133 C 97.537 146.807,97.899 147.058,98.495 146.689 C 100.281 145.586,110.126 154.815,119.065 165.974 C 134.311 185.003,141.241 199.083,154.803 238.579 C 175.148 297.831,198.520 320.867,259.391 341.662 C 290.836 352.405,307.980 362.346,315.351 374.112 C 316.966 376.689,316.557 376.484,312.690 372.776 C 302.788 363.279,290.826 357.748,262.666 349.646 C 227.174 339.434,212.249 333.102,196.937 321.759 C 170.631 302.274,155.974 280.055,142.067 238.579 C 126.627 192.533,117.956 176.688,96.424 155.173 C 86.598 145.356,84.739 143.022,85.504 141.468 C 86.331 139.788,86.262 139.798,84.845 141.554 C 83.286 143.487,83.231 143.485,80.972 141.416 C 77.923 138.624,65.724 130.911,57.992 126.887 C 54.574 125.108,51.777 123.513,51.777 123.342 C 51.777 122.684,55.899 124.151,56.421 124.996 M89.207 175.107 C 104.214 189.488,113.266 205.440,126.573 240.954 C 153.991 314.131,185.140 344.122,249.547 359.361 C 257.879 361.332,255.278 361.530,243.595 359.814 C 188.505 351.720,150.416 323.086,126.622 271.879 C 125.143 268.697,119.755 253.621,114.647 238.377 C 100.942 197.469,93.947 184.057,78.123 168.352 L 70.275 160.563 75.493 163.764 C 78.363 165.525,84.534 170.629,89.207 175.107 M324.395 315.917 C 327.376 320.252,327.997 321.970,327.623 324.855 C 326.782 331.343,332.205 338.071,338.275 338.071 C 339.056 338.071,340.204 338.579,340.825 339.201 C 342.813 341.189,344.086 339.315,343.096 335.861 C 340.732 327.618,331.194 315.988,323.550 312.027 L 320.704 310.552 324.395 315.917"/>
</svg>